JetBrainsMono Italic-ExtraBold.ufo
<glyph name="exclam" format="2">
  <advance width="600" height="985"/>
  <unicode hex="0021"/>
  <outline>
    <contour>
      <point x="285.048" y="720" type="line"/>
      <point x="443.048" y="720" type="line"/>
      <point x="419.288" y="570" type="line"/>
      <point x="344.808" y="245" type="line"/>
      <point x="232.808" y="245" type="line"/>
      <point x="261.288" y="570" type="line"/>
    </contour>
    <contour>
      <point x="256.384" y="135" type="curve" smooth="yes"/>
      <point x="286.384" y="135" type="line" smooth="yes"/>
      <point x="331.384" y="135"/>
      <point x="356.949" y="107"/>
      <point x="350.217" y="64.5" type="curve" smooth="yes"/>
      <point x="343.485" y="22"/>
      <point x="309.208" y="-5"/>
      <point x="263.208" y="-5" type="curve" smooth="yes"/>
      <point x="234.208" y="-5" type="line" smooth="yes"/>
      <point x="189.208" y="-5"/>
      <point x="163.643" y="23"/>
      <point x="170.296" y="65" type="curve" smooth="yes"/>
      <point x="176.949" y="107"/>
      <point x="211.384" y="135"/>
    </contour>
  </outline>
</glyph>
<glyph name="dollar" format="2">
  <advance width="600" height="985"/>
  <unicode hex="0024"/>
  <outline>
    <contour>
      <point x="344.64" y="850" type="line"/>
      <point x="409.64" y="850" type="line"/>
      <point x="332.024" y="360" type="line"/>
      <point x="267.024" y="360" type="line"/>
    </contour>
    <contour>
      <point x="252.824" y="-140" type="line"/>
      <point x="187.824" y="-140" type="line"/>
      <point x="265.44" y="350" type="line"/>
      <point x="330.44" y="350" type="line"/>
    </contour>
    <contour>
      <point x="248.416" y="-10" type="curve" smooth="yes" name="ab01"/>
      <point x="101.416" y="-10"/>
      <point x="13.4048" y="72"/>
      <point x="25.888" y="195" type="curve" name="sv01"/>
      <point x="170.888" y="195" type="line"/>
      <point x="166.651" y="143"/>
      <point x="209.266" y="109"/>
      <point x="275.266" y="109" type="curve" smooth="yes" name="sv02"/>
      <point x="346.266" y="109"/>
      <point x="388.018" y="139"/>
      <point x="396.936" y="195.302" type="curve" smooth="yes" name="ah01"/>
      <point x="404.966" y="246"/>
      <point x="380.352" y="280"/>
      <point x="324.411" y="293" type="curve" smooth="yes"/>
      <point x="251.104" y="310" type="line" smooth="yes"/>
      <point x="125.698" y="339"/>
      <point x="67.7856" y="409"/>
      <point x="86.16" y="525" type="curve" smooth="yes" name="sh01"/>
      <point x="107.069" y="657"/>
      <point x="208.79" y="731"/>
      <point x="365.79" y="731" type="curve" smooth="yes" name="at01"/>
      <point x="503.79" y="731"/>
      <point x="587.118" y="651"/>
      <point x="577.11" y="531" type="curve" name="sv03"/>
      <point x="432.11" y="531" type="line"/>
      <point x="433.872" y="580"/>
      <point x="394.941" y="612"/>
      <point x="333.941" y="612" type="curve" smooth="yes" name="sv04"/>
      <point x="273.941" y="612"/>
      <point x="233.189" y="582"/>
      <point x="225.322" y="532.336" type="curve" smooth="yes" name="sh02"/>
      <point x="218.141" y="487"/>
      <point x="243.072" y="455"/>
      <point x="297.013" y="442" type="curve" smooth="yes"/>
      <point x="374.162" y="424" type="line" smooth="yes"/>
      <point x="500.568" y="395"/>
      <point x="556.005" y="322"/>
      <point x="537.63" y="206" type="curve" smooth="yes" name="sh03"/>
      <point x="516.405" y="72"/>
      <point x="408.416" y="-10"/>
    </contour>
  </outline>
</glyph>
<glyph name="percent" format="2">
  <advance width="600" height="985"/>
  <unicode hex="0025"/>
  <outline>
    <contour>
      <point x="593.248" y="565" type="line"/>
      <point x="579.15" y="476" type="line"/>
      <point x="18.4624" y="156" type="line"/>
      <point x="32.56" y="245" type="line"/>
    </contour>
    <contour>
      <point x="228.445" y="642" type="curve" smooth="yes"/>
      <point x="200.445" y="642"/>
      <point x="179.435" y="623"/>
      <point x="175" y="595" type="curve" smooth="yes"/>
      <point x="165.496" y="535" type="line" smooth="yes"/>
      <point x="161.061" y="507"/>
      <point x="176.051" y="488"/>
      <point x="204.051" y="488" type="curve" smooth="yes"/>
      <point x="232.051" y="488"/>
      <point x="253.061" y="507"/>
      <point x="257.496" y="535" type="curve" smooth="yes"/>
      <point x="267" y="595" type="line" smooth="yes"/>
      <point x="271.435" y="623"/>
      <point x="256.445" y="642"/>
    </contour>
    <contour>
      <point x="190.904" y="405" type="curve" smooth="yes"/>
      <point x="103.904" y="405"/>
      <point x="54.1408" y="457"/>
      <point x="66.496" y="535" type="curve" smooth="yes"/>
      <point x="76" y="595" type="line" smooth="yes"/>
      <point x="88.3552" y="673"/>
      <point x="154.592" y="725"/>
      <point x="241.592" y="725" type="curve" smooth="yes"/>
      <point x="328.592" y="725"/>
      <point x="378.355" y="673"/>
      <point x="366" y="595" type="curve" smooth="yes"/>
      <point x="356.496" y="535" type="line" smooth="yes"/>
      <point x="344.141" y="457"/>
      <point x="277.904" y="405"/>
    </contour>
    <contour>
      <point x="405.501" y="232" type="curve" smooth="yes"/>
      <point x="377.501" y="232"/>
      <point x="356.491" y="213"/>
      <point x="352.056" y="185" type="curve" smooth="yes"/>
      <point x="342.552" y="125" type="line" smooth="yes"/>
      <point x="338.117" y="97"/>
      <point x="353.107" y="78"/>
      <point x="381.107" y="78" type="curve" smooth="yes"/>
      <point x="409.107" y="78"/>
      <point x="430.117" y="97"/>
      <point x="434.552" y="125" type="curve" smooth="yes"/>
      <point x="444.056" y="185" type="line" smooth="yes"/>
      <point x="448.491" y="213"/>
      <point x="433.501" y="232"/>
    </contour>
    <contour>
      <point x="367.96" y="-5" type="curve" smooth="yes"/>
      <point x="280.96" y="-5"/>
      <point x="231.197" y="47"/>
      <point x="243.552" y="125" type="curve" smooth="yes"/>
      <point x="253.056" y="185" type="line" smooth="yes"/>
      <point x="265.411" y="263"/>
      <point x="331.648" y="315"/>
      <point x="418.648" y="315" type="curve" smooth="yes"/>
      <point x="505.648" y="315"/>
      <point x="555.411" y="263"/>
      <point x="543.056" y="185" type="curve" smooth="yes"/>
      <point x="533.552" y="125" type="line" smooth="yes"/>
      <point x="521.197" y="47"/>
      <point x="454.96" y="-5"/>
    </contour>
  </outline>
</glyph>
<glyph name="parenleft" format="2">
  <advance width="600" height="985"/>
  <unicode hex="0028"/>
  <outline>
    <contour>
      <point x="300" y="264" type="curve" smooth="yes"/>
      <point x="333" y="455" type="line" smooth="yes"/>
      <point x="355" y="578"/>
      <point x="438" y="667"/>
      <point x="556" y="695" type="curve"/>
      <point x="582" y="845" type="line"/>
      <point x="365" y="789"/>
      <point x="217" y="645"/>
      <point x="183" y="455" type="curve" smooth="yes"/>
      <point x="150" y="264" type="line" smooth="yes"/>
      <point x="116" y="71"/>
      <point x="209" y="-68"/>
      <point x="411" y="-125" type="curve"/>
      <point x="438" y="27" type="line"/>
      <point x="331" y="54"/>
      <point x="279" y="144"/>
    </contour>
  </outline>
  <guideline angle="0" x="0" y="845"/>
  <guideline angle="0" x="0" y="-125"/>
</glyph>
<glyph name="parenright" format="2">
  <advance width="600" height="985"/>
  <unicode hex="0029"/>
  <outline>
    <contour>
      <point x="212" y="845" type="curve"/>
      <point x="186" y="695" type="line"/>
      <point x="294" y="667"/>
      <point x="345" y="578"/>
      <point x="323" y="455" type="curve" smooth="yes"/>
      <point x="290" y="264" type="line" smooth="yes"/>
      <point x="269" y="144"/>
      <point x="185" y="54"/>
      <point x="68" y="27" type="curve"/>
      <point x="41" y="-125" type="line"/>
      <point x="263" y="-68"/>
      <point x="406" y="71"/>
      <point x="440" y="264" type="curve" smooth="yes"/>
      <point x="473" y="455" type="line" smooth="yes"/>
      <point x="507" y="645"/>
      <point x="409" y="789"/>
    </contour>
  </outline>
</glyph>
<glyph name="asterisk" format="2">
  <advance width="600" height="985"/>
  <unicode hex="002A"/>
  <outline>
    <contour>
      <point x="281.624" y="610" type="line"/>
      <point x="411.624" y="610" type="line"/>
      <point x="402.912" y="555" type="line" smooth="yes"/>
      <point x="390.24" y="475"/>
      <point x="317.44" y="350"/>
      <point x="317.44" y="350" type="curve"/>
      <point x="293.44" y="350" type="line"/>
      <point x="293.44" y="350"/>
      <point x="260.24" y="475"/>
      <point x="272.912" y="555" type="curve" smooth="yes"/>
    </contour>
    <contour>
      <point x="250.123" y="348" type="line"/>
      <point x="312.251" y="393" type="line"/>
      <point x="360.123" y="348" type="line"/>
      <point x="327.362" y="299" type="line"/>
      <point x="267.362" y="299" type="line"/>
    </contour>
    <contour>
      <point x="35.1328" y="367" type="line"/>
      <point x="98.4576" y="489" type="line"/>
      <point x="147.448" y="470" type="line" smooth="yes"/>
      <point x="218.171" y="443"/>
      <point x="302.44" y="350"/>
      <point x="302.44" y="350" type="curve"/>
      <point x="290.797" y="327" type="line"/>
      <point x="290.797" y="327"/>
      <point x="153.688" y="320"/>
      <point x="83.1232" y="348" type="curve" smooth="yes"/>
    </contour>
    <contour>
      <point x="553.774" y="491" type="line"/>
      <point x="578.658" y="364" type="line"/>
      <point x="523.648" y="345" type="line" smooth="yes"/>
      <point x="444.371" y="318"/>
      <point x="311.797" y="327"/>
      <point x="311.797" y="327" type="curve"/>
      <point x="307.44" y="350" type="line"/>
      <point x="307.44" y="350"/>
      <point x="419.488" y="445"/>
      <point x="498.765" y="472" type="curve" smooth="yes"/>
    </contour>
    <contour>
      <point x="161.989" y="82" type="line"/>
      <point x="65.7104" y="156" type="line"/>
      <point x="103.838" y="201" type="line" smooth="yes"/>
      <point x="160.293" y="267"/>
      <point x="286.698" y="339"/>
      <point x="286.698" y="339" type="curve"/>
      <point x="304.48" y="325" type="line"/>
      <point x="304.48" y="325"/>
      <point x="257.413" y="192"/>
      <point x="201.117" y="127" type="curve" smooth="yes"/>
    </contour>
    <contour>
      <point x="483.71" y="156" type="line"/>
      <point x="367.989" y="82" type="line"/>
      <point x="343.117" y="127" type="line" smooth="yes"/>
      <point x="307.413" y="192"/>
      <point x="298.48" y="325"/>
      <point x="298.48" y="325" type="curve"/>
      <point x="320.698" y="339" type="line"/>
      <point x="320.698" y="339"/>
      <point x="424.293" y="267"/>
      <point x="459.997" y="202" type="curve" smooth="yes"/>
    </contour>
  </outline>
</glyph>
<glyph name="plus" format="2">
  <advance width="600" height="985"/>
  <unicode hex="002B"/>
  <outline>
    <contour>
      <point x="413.07" y="570" type="line"/>
      <point x="386.142" y="400" type="line"/>
      <point x="551.142" y="400" type="line"/>
      <point x="528.966" y="260" type="line"/>
      <point x="363.966" y="260" type="line"/>
      <point x="337.038" y="90" type="line"/>
      <point x="187.038" y="90" type="line"/>
      <point x="213.966" y="260" type="line"/>
      <point x="48.9664" y="260" type="line"/>
      <point x="71.1424" y="400" type="line"/>
      <point x="236.142" y="400" type="line"/>
      <point x="263.07" y="570" type="line"/>
    </contour>
  </outline>
</glyph>
<glyph name="comma" format="2">
  <advance width="600" height="985"/>
  <unicode hex="002C"/>
  <outline>
    <contour>
      <point x="443.918" y="151" type="line"/>
      <point x="264.656" y="-160" type="line"/>
      <point x="134.656" y="-160" type="line"/>
      <point x="263.918" y="151" type="line"/>
    </contour>
  </outline>
</glyph>
<glyph name="hyphen" format="2">
  <advance width="600" height="985"/>
  <unicode hex="002D"/>
  <outline>
    <contour>
      <point x="110.984" y="400" type="line"/>
      <point x="510.984" y="400" type="line"/>
      <point x="488.808" y="260" type="line"/>
      <point x="88.808" y="260" type="line"/>
    </contour>
  </outline>
</glyph>
<glyph name="period" format="2">
  <advance width="600" height="985"/>
  <unicode hex="002E"/>
  <outline>
    <contour>
      <point x="211.572" y="94" type="curve" smooth="yes"/>
      <point x="222.855" y="158"/>
      <point x="272.26" y="200"/>
      <point x="335.26" y="200" type="curve" smooth="yes"/>
      <point x="399.26" y="200"/>
      <point x="432.855" y="158"/>
      <point x="421.572" y="94" type="curve" smooth="yes"/>
      <point x="410.642" y="32"/>
      <point x="362.237" y="-10"/>
      <point x="298.237" y="-10" type="curve" smooth="yes"/>
      <point x="235.237" y="-10"/>
      <point x="200.642" y="32"/>
    </contour>
  </outline>
</glyph>
<glyph name="zero" format="2">
  <advance width="600" height="985"/>
  <unicode hex="0030"/>
  <outline>
    <contour>
      <point x="260.192" y="380" type="line" smooth="yes" name="sh02"/>
      <point x="265.419" y="413"/>
      <point x="288.904" y="435"/>
      <point x="318.904" y="435" type="curve" smooth="yes" name="dv02"/>
      <point x="348.904" y="435"/>
      <point x="365.419" y="413"/>
      <point x="360.192" y="380" type="curve" smooth="yes" name="sh03"/>
      <point x="353.856" y="340" type="line" smooth="yes"/>
      <point x="348.629" y="307"/>
      <point x="325.144" y="285"/>
      <point x="295.144" y="285" type="curve" smooth="yes" name="dv01"/>
      <point x="265.144" y="285"/>
      <point x="248.629" y="307"/>
      <point x="253.856" y="340" type="curve" smooth="yes"/>
    </contour>
    <contour>
      <point x="172.848" y="220" type="line" smooth="yes" name="sh04"/>
      <point x="163.186" y="159"/>
      <point x="201.85" y="119"/>
      <point x="268.85" y="119" type="curve" smooth="yes" name="sv01"/>
      <point x="335.85" y="119"/>
      <point x="387.186" y="159"/>
      <point x="396.848" y="220" type="curve" smooth="yes" name="sh05"/>
      <point x="441.358" y="501" type="line" smooth="yes"/>
      <point x="451.021" y="562"/>
      <point x="412.357" y="602"/>
      <point x="345.357" y="602" type="curve" smooth="yes" name="sv02"/>
      <point x="278.357" y="602"/>
      <point x="227.021" y="562"/>
      <point x="217.358" y="501" type="curve" smooth="yes"/>
    </contour>
    <contour>
      <point x="32.056" y="215" type="curve" smooth="yes" name="sh01"/>
      <point x="78.1504" y="506" type="line" smooth="yes"/>
      <point x="99.5344" y="641"/>
      <point x="213.632" y="730"/>
      <point x="365.632" y="730" type="curve" smooth="yes" name="at01"/>
      <point x="517.632" y="730"/>
      <point x="603.534" y="641"/>
      <point x="582.15" y="506" type="curve" smooth="yes"/>
      <point x="536.056" y="215" type="line" smooth="yes" name="sh06"/>
      <point x="514.83" y="81"/>
      <point x="398.416" y="-10"/>
      <point x="248.416" y="-10" type="curve" smooth="yes" name="ab01"/>
      <point x="96.416" y="-10"/>
      <point x="10.5136" y="79"/>
    </contour>
  </outline>
</glyph>
<glyph name="one" format="2">
  <advance width="600" height="985"/>
  <unicode hex="0031"/>
  <outline>
    <contour>
      <point x="124.832" y="605" type="line"/>
      <point x="312.048" y="720" type="line"/>
      <point x="477.048" y="720" type="line"/>
      <point x="383.592" y="130" type="line"/>
      <point x="535.592" y="130" type="line"/>
      <point x="515" y="0" type="line"/>
      <point x="20" y="0" type="line"/>
      <point x="40.592" y="130" type="line"/>
      <point x="233.592" y="130" type="line"/>
      <point x="293.309" y="507" type="line"/>
      <point x="302.179" y="563"/>
      <point x="311.298" y="589"/>
      <point x="311.298" y="589" type="curve"/>
      <point x="308.298" y="589" type="line"/>
      <point x="308.298" y="589"/>
      <point x="291.446" y="571"/>
      <point x="257.278" y="551" type="curve" smooth="yes"/>
      <point x="101.864" y="460" type="line"/>
    </contour>
  </outline>
</glyph>
<glyph name="three" format="2">
  <advance width="600" height="985"/>
  <unicode hex="0033"/>
  <outline>
    <contour>
      <point x="360.646" y="446" type="curve"/>
      <point x="360.646" y="446"/>
      <point x="372.122" y="449"/>
      <point x="401.29" y="469" type="curve" smooth="yes"/>
      <point x="567.664" y="585" type="line"/>
      <point x="589.048" y="720" type="line"/>
      <point x="144.048" y="720" type="line"/>
      <point x="124.248" y="595" type="line"/>
      <point x="362.248" y="595" type="line" smooth="yes"/>
      <point x="394.248" y="595"/>
      <point x="422.04" y="600"/>
      <point x="422.04" y="600" type="curve"/>
      <point x="421.565" y="597" type="line"/>
      <point x="421.565" y="597"/>
      <point x="402.248" y="595"/>
      <point x="363.496" y="565" type="curve" smooth="yes"/>
      <point x="227.864" y="460" type="line"/>
      <point x="206.48" y="325" type="line"/>
      <point x="296.48" y="325" type="line" smooth="yes"/>
      <point x="362.48" y="325"/>
      <point x="399.827" y="283"/>
      <point x="389.848" y="220" type="curve" smooth="yes"/>
      <point x="379.869" y="157"/>
      <point x="331.216" y="115"/>
      <point x="268.216" y="115" type="curve" smooth="yes"/>
      <point x="212.216" y="115"/>
      <point x="173.651" y="143"/>
      <point x="174.304" y="185" type="curve"/>
      <point x="24.304" y="185" type="line"/>
      <point x="15.296" y="65"/>
      <point x="102.416" y="-10"/>
      <point x="248.416" y="-10" type="curve" smooth="yes"/>
      <point x="401.416" y="-10"/>
      <point x="517.989" y="82"/>
      <point x="539.848" y="220" type="curve" smooth="yes"/>
      <point x="560.123" y="348"/>
      <point x="491.904" y="435"/>
    </contour>
  </outline>
</glyph>
<glyph name="eight" format="2">
  <advance width="600" height="985"/>
  <unicode hex="0038"/>
  <outline>
    <contour>
      <point x="300.688" y="320" type="curve" smooth="yes"/>
      <point x="368.688" y="320"/>
      <point x="405.194" y="279"/>
      <point x="395.056" y="215" type="curve" smooth="yes"/>
      <point x="385.394" y="154"/>
      <point x="335.424" y="110"/>
      <point x="267.424" y="110" type="curve" smooth="yes"/>
      <point x="200.424" y="110"/>
      <point x="164.394" y="154"/>
      <point x="174.056" y="215" type="curve" smooth="yes"/>
      <point x="184.194" y="279"/>
      <point x="233.688" y="320"/>
    </contour>
    <contour>
      <point x="348.208" y="620" type="curve" smooth="yes"/>
      <point x="410.208" y="620"/>
      <point x="446.506" y="584"/>
      <point x="438.11" y="531" type="curve" smooth="yes"/>
      <point x="428.923" y="473"/>
      <point x="380.112" y="430"/>
      <point x="318.112" y="430" type="curve" smooth="yes"/>
      <point x="255.112" y="430"/>
      <point x="220.082" y="474"/>
      <point x="229.11" y="531" type="curve" smooth="yes"/>
      <point x="237.506" y="584"/>
      <point x="285.208" y="620"/>
    </contour>
    <contour>
      <point x="365.632" y="730" type="curve" smooth="yes"/>
      <point x="214.632" y="730"/>
      <point x="109.069" y="657"/>
      <point x="90.3776" y="539" type="curve" smooth="yes"/>
      <point x="76.9136" y="454"/>
      <point x="124.301" y="387"/>
      <point x="210.875" y="378" type="curve"/>
      <point x="210.242" y="374" type="line"/>
      <point x="110.707" y="358"/>
      <point x="36.2528" y="292"/>
      <point x="21.68" y="200" type="curve" smooth="yes"/>
      <point x="1.88" y="75"/>
      <point x="89.416" y="-10"/>
      <point x="248.416" y="-10" type="curve" smooth="yes"/>
      <point x="406.416" y="-10"/>
      <point x="521.405" y="72"/>
      <point x="541.68" y="200" type="curve" smooth="yes"/>
      <point x="556.253" y="292"/>
      <point x="502.707" y="358"/>
      <point x="408.242" y="374" type="curve"/>
      <point x="408.875" y="378" type="line"/>
      <point x="498.301" y="387"/>
      <point x="566.914" y="454"/>
      <point x="580.378" y="539" type="curve" smooth="yes"/>
      <point x="599.069" y="657"/>
      <point x="516.632" y="730"/>
    </contour>
  </outline>
</glyph>
<glyph name="colon" format="2">
  <advance width="600" height="985"/>
  <unicode hex="003A"/>
  <outline>
    <contour>
      <point x="164.986" y="85" type="curve" smooth="yes"/>
      <point x="175.74" y="146"/>
      <point x="222.792" y="186"/>
      <point x="282.792" y="186" type="curve" smooth="yes"/>
      <point x="342.792" y="186"/>
      <point x="375.74" y="146"/>
      <point x="364.986" y="85" type="curve" smooth="yes"/>
      <point x="354.936" y="28"/>
      <point x="308.237" y="-10"/>
      <point x="248.237" y="-10" type="curve" smooth="yes"/>
      <point x="188.237" y="-10"/>
      <point x="154.936" y="28"/>
    </contour>
    <contour>
      <point x="230.922" y="459" type="curve" smooth="yes"/>
      <point x="241.676" y="520"/>
      <point x="288.728" y="560"/>
      <point x="348.728" y="560" type="curve" smooth="yes"/>
      <point x="408.728" y="560"/>
      <point x="441.676" y="520"/>
      <point x="430.922" y="459" type="curve" smooth="yes"/>
      <point x="420.873" y="402"/>
      <point x="374.173" y="364"/>
      <point x="314.173" y="364" type="curve" smooth="yes"/>
      <point x="254.173" y="364"/>
      <point x="220.873" y="402"/>
    </contour>
  </outline>
</glyph>
<glyph name="semicolon" format="2">
  <advance width="600" height="985"/>
  <unicode hex="003B"/>
  <outline>
    <contour>
      <point x="409.918" y="151" type="line"/>
      <point x="230.656" y="-160" type="line"/>
      <point x="100.656" y="-160" type="line"/>
      <point x="229.918" y="151" type="line"/>
    </contour>
    <contour>
      <point x="246.914" y="454" type="curve" smooth="yes"/>
      <point x="257.051" y="518"/>
      <point x="305.704" y="560"/>
      <point x="368.704" y="560" type="curve" smooth="yes"/>
      <point x="432.704" y="560"/>
      <point x="467.051" y="518"/>
      <point x="456.914" y="454" type="curve" smooth="yes"/>
      <point x="447.093" y="392"/>
      <point x="399.44" y="350"/>
      <point x="335.44" y="350" type="curve" smooth="yes"/>
      <point x="272.44" y="350"/>
      <point x="237.093" y="392"/>
    </contour>
  </outline>
</glyph>
<glyph name="greater" format="2">
  <advance width="600" height="985"/>
  <unicode hex="003E"/>
  <outline>
    <contour>
      <point x="113" y="600" type="line"/>
      <point x="91" y="469" type="line"/>
      <point x="350" y="357" type="line" smooth="yes"/>
      <point x="385" y="342"/>
      <point x="438" y="339"/>
      <point x="438" y="339" type="curve"/>
      <point x="436" y="329" type="line"/>
      <point x="436" y="329"/>
      <point x="384" y="327"/>
      <point x="343" y="312" type="curve" smooth="yes"/>
      <point x="50" y="205" type="line"/>
      <point x="27" y="60" type="line"/>
      <point x="519" y="259" type="line"/>
      <point x="541" y="402" type="line"/>
    </contour>
  </outline>
</glyph>
<glyph name="C" format="2">
  <advance width="600" height="985"/>
  <unicode hex="0043"/>
  <outline>
    <contour>
      <point x="370.632" y="730" type="curve" smooth="yes"/>
      <point x="216.632" y="730"/>
      <point x="104.851" y="643"/>
      <point x="82.992" y="505" type="curve" smooth="yes"/>
      <point x="37.056" y="215" type="line" smooth="yes"/>
      <point x="15.9888" y="82"/>
      <point x="103.416" y="-10"/>
      <point x="252.416" y="-10" type="curve" smooth="yes"/>
      <point x="405.416" y="-10"/>
      <point x="517.355" y="78"/>
      <point x="539.056" y="215" type="curve"/>
      <point x="389.056" y="215" type="line"/>
      <point x="380.661" y="162"/>
      <point x="335.8" y="125"/>
      <point x="273.8" y="125" type="curve" smooth="yes"/>
      <point x="210.8" y="125"/>
      <point x="178.186" y="159"/>
      <point x="187.056" y="215" type="curve" smooth="yes"/>
      <point x="232.992" y="505" type="line" smooth="yes"/>
      <point x="241.704" y="560"/>
      <point x="287.248" y="595"/>
      <point x="349.248" y="595" type="curve" smooth="yes"/>
      <point x="410.248" y="595"/>
      <point x="443.704" y="560"/>
      <point x="434.992" y="505" type="curve"/>
      <point x="584.992" y="505" type="line"/>
      <point x="606.059" y="638"/>
      <point x="518.632" y="730"/>
    </contour>
  </outline>
</glyph>
<glyph name="F" format="2">
  <advance width="600" height="985"/>
  <unicode hex="0046"/>
  <outline>
    <contour>
      <point x="134.048" y="720" type="line"/>
      <point x="604.048" y="720" type="line"/>
      <point x="581.872" y="580" type="line"/>
      <point x="259.872" y="580" type="line"/>
      <point x="235.795" y="428" type="line"/>
      <point x="531.795" y="428" type="line"/>
      <point x="509.619" y="288" type="line"/>
      <point x="215.619" y="288" type="line"/>
      <point x="170" y="0" type="line"/>
      <point x="20" y="0" type="line"/>
    </contour>
  </outline>
</glyph>
<glyph name="G" format="2">
  <advance width="600" height="985"/>
  <unicode hex="0047"/>
  <outline>
    <contour>
      <point x="303.36" y="400" type="line"/>
      <point x="565.36" y="400" type="line"/>
      <point x="536.056" y="215" type="line" smooth="yes"/>
      <point x="514.672" y="80"/>
      <point x="399.416" y="-10"/>
      <point x="248.416" y="-10" type="curve" smooth="yes"/>
      <point x="97.416" y="-10"/>
      <point x="10.672" y="80"/>
      <point x="32.056" y="215" type="curve" smooth="yes"/>
      <point x="77.992" y="505" type="line" smooth="yes"/>
      <point x="98.9008" y="637"/>
      <point x="212.84" y="725"/>
      <point x="364.84" y="725" type="curve" smooth="yes"/>
      <point x="505.84" y="725"/>
      <point x="591.01" y="644"/>
      <point x="583.576" y="515" type="curve"/>
      <point x="433.576" y="515" type="line"/>
      <point x="435.862" y="561"/>
      <point x="400.456" y="590"/>
      <point x="343.456" y="590" type="curve" smooth="yes"/>
      <point x="281.456" y="590"/>
      <point x="236.07" y="556"/>
      <point x="227.992" y="505" type="curve" smooth="yes"/>
      <point x="182.056" y="215" type="line" smooth="yes"/>
      <point x="173.027" y="158"/>
      <point x="207.166" y="121"/>
      <point x="269.166" y="121" type="curve" smooth="yes"/>
      <point x="331.166" y="121"/>
      <point x="377.027" y="158"/>
      <point x="386.056" y="215" type="curve" smooth="yes"/>
      <point x="395.243" y="273" type="line"/>
      <point x="283.243" y="273" type="line"/>
    </contour>
  </outline>
</glyph>
<glyph name="N" format="2">
  <advance width="600" height="985"/>
  <unicode hex="004E"/>
  <outline>
    <contour>
      <point x="606.048" y="720" type="line"/>
      <point x="492" y="0" type="line"/>
      <point x="310" y="0" type="line"/>
      <point x="232.082" y="474" type="line" smooth="yes"/>
      <point x="224.21" y="519"/>
      <point x="228.456" y="590"/>
      <point x="228.456" y="590" type="curve"/>
      <point x="214.456" y="590" type="line"/>
      <point x="214.456" y="590"/>
      <point x="213.141" y="487"/>
      <point x="201.261" y="412" type="curve" smooth="yes"/>
      <point x="136" y="0" type="line"/>
      <point x="8" y="0" type="line"/>
      <point x="122.048" y="720" type="line"/>
      <point x="304.048" y="720" type="line"/>
      <point x="384.966" y="246" type="line" smooth="yes"/>
      <point x="391.106" y="209"/>
      <point x="387.592" y="130"/>
      <point x="387.592" y="130" type="curve"/>
      <point x="401.592" y="130" type="line"/>
      <point x="402.592" y="130"/>
      <point x="401.858" y="239"/>
      <point x="412.946" y="309" type="curve" smooth="yes"/>
      <point x="478.048" y="720" type="line"/>
    </contour>
  </outline>
</glyph>
<glyph name="T" format="2">
  <advance width="600" height="985"/>
  <unicode hex="0054"/>
  <outline>
    <contour>
      <point x="99.048" y="720" type="line"/>
      <point x="629.048" y="720" type="line"/>
      <point x="606.872" y="580" type="line"/>
      <point x="416.872" y="580" type="line"/>
      <point x="325" y="0" type="line"/>
      <point x="175" y="0" type="line"/>
      <point x="266.872" y="580" type="line"/>
      <point x="76.872" y="580" type="line"/>
    </contour>
  </outline>
</glyph>
<glyph name="Y" format="2">
  <advance width="600" height="985"/>
  <unicode hex="0059"/>
  <outline>
    <contour>
      <point x="491.048" y="720" type="line"/>
      <point x="649.048" y="720" type="line"/>
      <point x="364.6" y="250" type="line"/>
      <point x="325" y="0" type="line"/>
      <point x="175" y="0" type="line"/>
      <point x="214.6" y="250" type="line"/>
      <point x="79.048" y="720" type="line"/>
      <point x="230.048" y="720" type="line"/>
      <point x="296.656" y="465" type="line" smooth="yes"/>
      <point x="308.37" y="419"/>
      <point x="305.4" y="375"/>
      <point x="305.4" y="375" type="curve"/>
      <point x="312.4" y="375" type="line"/>
      <point x="312.4" y="375"/>
      <point x="318.37" y="419"/>
      <point x="344.656" y="465" type="curve" smooth="yes"/>
    </contour>
  </outline>
</glyph>
<glyph name="Z" format="2">
  <advance width="600" height="985"/>
  <unicode hex="005A"/>
  <outline>
    <contour>
      <point x="578.048" y="720" type="line"/>
      <point x="555.714" y="579" type="line"/>
      <point x="221.542" y="136" type="line"/>
      <point x="221.226" y="134" type="line"/>
      <point x="293.018" y="139" type="line"/>
      <point x="497.018" y="139" type="line"/>
      <point x="475" y="0" type="line"/>
      <point x="25" y="0" type="line"/>
      <point x="47.176" y="140" type="line"/>
      <point x="380.347" y="583" type="line"/>
      <point x="380.664" y="585" type="line"/>
      <point x="307.03" y="581" type="line"/>
      <point x="125.03" y="581" type="line"/>
      <point x="147.048" y="720" type="line"/>
    </contour>
  </outline>
</glyph>
<glyph name="bracketleft" format="2">
  <advance width="600" height="985"/>
  <unicode hex="005B"/>
  <outline>
    <contour>
      <point x="245" y="830" type="line"/>
      <point x="550" y="830" type="line"/>
      <point x="528" y="690" type="line"/>
      <point x="373" y="690" type="line"/>
      <point x="268" y="30" type="line"/>
      <point x="423" y="30" type="line"/>
      <point x="401" y="-110" type="line"/>
      <point x="96" y="-110" type="line"/>
    </contour>
  </outline>
</glyph>
<glyph name="bracketright" format="2">
  <advance width="600" height="985"/>
  <unicode hex="005D"/>
  <outline>
    <contour>
      <point x="520" y="830" type="line"/>
      <point x="215" y="830" type="line"/>
      <point x="193" y="690" type="line"/>
      <point x="348" y="690" type="line"/>
      <point x="243" y="30" type="line"/>
      <point x="88" y="30" type="line"/>
      <point x="66" y="-110" type="line"/>
      <point x="371" y="-110" type="line"/>
    </contour>
  </outline>
</glyph>
<glyph name="asciicircum" format="2">
  <advance width="600" height="985"/>
  <unicode hex="005E"/>
  <outline>
    <contour>
      <point x="352.574" y="616" type="curve"/>
      <point x="340.574" y="616" type="line"/>
      <point x="340.574" y="616"/>
      <point x="342.03" y="581"/>
      <point x="326.278" y="551" type="curve" smooth="yes"/>
      <point x="206.272" y="330" type="line"/>
      <point x="60.272" y="330" type="line"/>
      <point x="293.048" y="720" type="line"/>
      <point x="438.048" y="720" type="line"/>
      <point x="540.272" y="330" type="line"/>
      <point x="403.272" y="330" type="line"/>
      <point x="357.278" y="551" type="line" smooth="yes"/>
      <point x="351.03" y="581"/>
      <point x="352.574" y="616"/>
    </contour>
  </outline>
</glyph>
<glyph name="underscore" format="2">
  <advance width="600" height="985"/>
  <unicode hex="005F"/>
  <outline>
    <contour>
      <point x="8.68534" y="-25" type="line"/>
      <point x="508.685" y="-25" type="line"/>
      <point x="484.003" y="-165" type="line"/>
      <point x="-15.9967" y="-165" type="line"/>
    </contour>
  </outline>
</glyph>
<glyph name="grave" format="2">
  <advance width="600" height="985"/>
  <unicode hex="0060"/>
  <outline>
    <contour>
      <point x="234.344" y="785" type="line"/>
      <point x="379.344" y="785" type="line"/>
      <point x="457.168" y="645" type="line"/>
      <point x="332.168" y="645" type="line"/>
    </contour>
  </outline>
</glyph>
<glyph name="a" format="2">
  <advance width="600" height="985"/>
  <unicode hex="0061"/>
  <outline>
    <contour>
      <point x="32.264" y="210" type="curve" smooth="yes"/>
      <point x="53.648" y="345" type="line" smooth="yes"/>
      <point x="74.3984" y="476"/>
      <point x="160.704" y="560"/>
      <point x="274.704" y="560" type="curve" smooth="yes"/>
      <point x="350.704" y="560"/>
      <point x="386.002" y="524"/>
      <point x="385.072" y="455" type="curve"/>
      <point x="410.072" y="455" type="line"/>
      <point x="391.856" y="340" type="line"/>
      <point x="371.856" y="340" type="line"/>
      <point x="380.726" y="396"/>
      <point x="356.112" y="430"/>
      <point x="302.112" y="430" type="curve" smooth="yes"/>
      <point x="248.112" y="430"/>
      <point x="211.726" y="396"/>
      <point x="202.856" y="340" type="curve" smooth="yes"/>
      <point x="183.056" y="215" type="line" smooth="yes"/>
      <point x="174.027" y="158"/>
      <point x="195.166" y="121"/>
      <point x="253.166" y="121" type="curve" smooth="yes"/>
      <point x="308.166" y="121"/>
      <point x="344.552" y="155"/>
      <point x="353.264" y="210" type="curve"/>
      <point x="373.264" y="210" type="line"/>
      <point x="355.206" y="96" type="line"/>
      <point x="330.206" y="96" type="line"/>
      <point x="309.752" y="30"/>
      <point x="257.416" y="-10"/>
      <point x="185.416" y="-10" type="curve" smooth="yes"/>
      <point x="72.416" y="-10"/>
      <point x="11.3552" y="78"/>
    </contour>
    <contour>
      <point x="413.12" y="550" type="line"/>
      <point x="558.12" y="550" type="line"/>
      <point x="494.76" y="150" type="line" smooth="yes"/>
      <point x="490.958" y="126"/>
      <point x="504.424" y="110"/>
      <point x="528.424" y="110" type="curve" smooth="yes"/>
      <point x="554.424" y="110" type="line"/>
      <point x="536.208" y="-5" type="line"/>
      <point x="450.208" y="-5" type="line" smooth="yes"/>
      <point x="378.208" y="-5"/>
      <point x="334.861" y="37"/>
      <point x="344.523" y="98" type="curve"/>
      <point x="336.523" y="98" type="line"/>
      <point x="388.072" y="455" type="line"/>
      <point x="398.072" y="455" type="line"/>
    </contour>
  </outline>
</glyph>
<glyph name="b" format="2">
  <advance width="600" height="985"/>
  <unicode hex="0062"/>
  <outline>
    <contour>
      <point x="13" y="0" type="line" name="sh01"/>
      <point x="159" y="0" type="line"/>
      <point x="174.206" y="96" type="line" name="sh03"/>
      <point x="183.206" y="96" type="line" name="sh04"/>
      <point x="182.752" y="30"/>
      <point x="230.416" y="-10"/>
      <point x="308.416" y="-10" type="curve" smooth="yes" name="ab01"/>
      <point x="424.416" y="-10"/>
      <point x="513.88" y="75"/>
      <point x="535.264" y="210" type="curve" smooth="yes"/>
      <point x="556.648" y="345" type="line" smooth="yes" name="sh05"/>
      <point x="577.398" y="476"/>
      <point x="514.704" y="560"/>
      <point x="398.704" y="560" type="curve" smooth="yes" name="at02"/>
      <point x="320.704" y="560"/>
      <point x="260.368" y="520"/>
      <point x="240.072" y="455" type="curve" name="sh06"/>
      <point x="230.072" y="455" type="line" name="sh07"/>
      <point x="230.072" y="455"/>
      <point x="244.259" y="513"/>
      <point x="250.12" y="550" type="curve" smooth="yes" name="sh08"/>
      <point x="277.048" y="720" type="line" name="at01"/>
      <point x="127.048" y="720" type="line"/>
    </contour>
    <contour>
      <point x="196.264" y="210" type="curve" smooth="yes" name="sh02"/>
      <point x="216.856" y="340" type="line" smooth="yes"/>
      <point x="225.41" y="394"/>
      <point x="269.112" y="430"/>
      <point x="326.112" y="430" type="curve" smooth="yes" name="sv01"/>
      <point x="383.112" y="430"/>
      <point x="414.568" y="395"/>
      <point x="405.856" y="340" type="curve" smooth="yes" name="ah01"/>
      <point x="386.056" y="215" type="line" smooth="yes"/>
      <point x="377.186" y="159"/>
      <point x="336.166" y="121"/>
      <point x="277.166" y="121" type="curve" smooth="yes" name="sv02"/>
      <point x="218.166" y="121"/>
      <point x="188.027" y="158"/>
    </contour>
  </outline>
</glyph>
<glyph name="i" format="2">
  <advance width="600" height="985"/>
  <unicode hex="0069"/>
  <outline>
    <contour>
      <point x="137.12" y="550" type="line"/>
      <point x="447.12" y="550" type="line"/>
      <point x="381.542" y="136" type="line"/>
      <point x="536.542" y="136" type="line"/>
      <point x="515" y="0" type="line"/>
      <point x="25" y="0" type="line"/>
      <point x="46.5424" y="136" type="line"/>
      <point x="241.542" y="136" type="line"/>
      <point x="285.736" y="415" type="line"/>
      <point x="115.736" y="415" type="line"/>
    </contour>
    <contour>
      <point x="386.176" y="765" type="curve" smooth="yes"/>
      <point x="416.176" y="765" type="line" smooth="yes"/>
      <point x="461.176" y="765"/>
      <point x="486.741" y="737"/>
      <point x="480.009" y="694.5" type="curve" smooth="yes"/>
      <point x="473.277" y="652"/>
      <point x="439" y="625"/>
      <point x="393" y="625" type="curve" smooth="yes"/>
      <point x="364" y="625" type="line" smooth="yes"/>
      <point x="319" y="625"/>
      <point x="293.435" y="653"/>
      <point x="300.088" y="695" type="curve" smooth="yes"/>
      <point x="306.741" y="737"/>
      <point x="341.176" y="765"/>
    </contour>
  </outline>
</glyph>
<glyph name="k" format="2">
  <advance width="600" height="985"/>
  <unicode hex="006B"/>
  <outline>
    <contour>
      <point x="284.048" y="720" type="line" name="at01"/>
      <point x="224.173" y="342" type="line"/>
      <point x="298.173" y="342" type="line" name="dv02"/>
      <point x="446.12" y="550" type="line"/>
      <point x="613.12" y="550" type="line" name="iv01"/>
      <point x="417.51" y="281" type="line"/>
      <point x="529" y="0" type="line" name="ab01"/>
      <point x="359" y="0" type="line"/>
      <point x="277.214" y="216" type="line" name="dv01"/>
      <point x="204.214" y="216" type="line"/>
      <point x="170" y="0" type="line" name="ab02"/>
      <point x="20" y="0" type="line" name="dh01"/>
      <point x="134.048" y="720" type="line"/>
    </contour>
  </outline>
</glyph>
<glyph name="q" format="2">
  <advance width="600" height="985"/>
  <unicode hex="0071"/>
  <outline>
    <contour>
      <point x="188.416" y="-10" type="curve" smooth="yes" name="ab02"/>
      <point x="266.416" y="-10"/>
      <point x="326.752" y="30"/>
      <point x="347.206" y="96" type="curve" name="sh01"/>
      <point x="357.206" y="96" type="line" name="sh02"/>
      <point x="354.464" y="85"/>
      <point x="343.653" y="42"/>
      <point x="337" y="0" type="curve" smooth="yes"/>
      <point x="310.072" y="-170" type="line" name="ab01"/>
      <point x="460.072" y="-170" type="line" name="sh03"/>
      <point x="574.12" y="550" type="line"/>
      <point x="429.12" y="550" type="line" name="sh04"/>
      <point x="414.072" y="455" type="line"/>
      <point x="404.072" y="455" type="line" name="sh05"/>
      <point x="404.368" y="520"/>
      <point x="356.704" y="560"/>
      <point x="278.704" y="560" type="curve" smooth="yes" name="at01"/>
      <point x="162.704" y="560"/>
      <point x="73.3984" y="476"/>
      <point x="52.648" y="345" type="curve" smooth="yes" name="sh06"/>
      <point x="31.264" y="210" type="line" smooth="yes"/>
      <point x="9.88" y="75"/>
      <point x="72.416" y="-10"/>
    </contour>
    <contour>
      <point x="310.112" y="430" type="curve" smooth="yes" name="sv01"/>
      <point x="367.112" y="430"/>
      <point x="399.41" y="394"/>
      <point x="390.856" y="340" type="curve" smooth="yes" name="sh07"/>
      <point x="370.264" y="210" type="line" smooth="yes"/>
      <point x="362.027" y="158"/>
      <point x="320.166" y="121"/>
      <point x="261.166" y="121" type="curve" smooth="yes" name="sv02"/>
      <point x="202.166" y="121"/>
      <point x="173.186" y="159"/>
      <point x="182.056" y="215" type="curve" smooth="yes"/>
      <point x="201.856" y="340" type="line" smooth="yes" name="sh08"/>
      <point x="210.568" y="395"/>
      <point x="253.112" y="430"/>
    </contour>
  </outline>
</glyph>
<glyph name="v" format="2">
  <advance width="600" height="985"/>
  <unicode hex="0076"/>
  <outline>
    <contour>
      <point x="259.374" y="116" type="curve"/>
      <point x="273.374" y="116" type="line"/>
      <point x="273.374" y="116"/>
      <point x="280.611" y="168"/>
      <point x="303.531" y="218" type="curve" smooth="yes"/>
      <point x="459.12" y="550" type="line" name="at01"/>
      <point x="617.12" y="550" type="line"/>
      <point x="341" y="0" type="line" name="ab01"/>
      <point x="161" y="0" type="line"/>
      <point x="57.12" y="550" type="line" name="at02"/>
      <point x="207.12" y="550" type="line"/>
      <point x="261.531" y="218" type="line" smooth="yes"/>
      <point x="269.611" y="168"/>
      <point x="259.374" y="116"/>
    </contour>
  </outline>
</glyph>
<glyph name="w" format="2">
  <advance width="600" height="985"/>
  <unicode hex="0077"/>
  <outline>
    <contour>
      <point x="385.12" y="550" type="line" name="at01"/>
      <point x="383.907" y="233" type="line" smooth="yes"/>
      <point x="383.987" y="183"/>
      <point x="369.88" y="75"/>
      <point x="369.88" y="75" type="curve"/>
      <point x="383.88" y="75" type="line"/>
      <point x="383.88" y="75"/>
      <point x="403.987" y="183"/>
      <point x="417.907" y="233" type="curve" smooth="yes"/>
      <point x="506.12" y="550" type="line" name="at02"/>
      <point x="627.12" y="550" type="line"/>
      <point x="467" y="0" type="line" name="ab01"/>
      <point x="311" y="0" type="line"/>
      <point x="314.272" y="330" type="line" smooth="yes"/>
      <point x="315.133" y="367"/>
      <point x="329.864" y="460"/>
      <point x="329.864" y="460" type="curve"/>
      <point x="317.864" y="460" type="line"/>
      <point x="317.864" y="460"/>
      <point x="303.133" y="367"/>
      <point x="291.272" y="330" type="curve" smooth="yes"/>
      <point x="189" y="0" type="line" name="ab02"/>
      <point x="32" y="0" type="line"/>
      <point x="47.12" y="550" type="line" name="at03"/>
      <point x="166.12" y="550" type="line"/>
      <point x="153.907" y="233" type="line" smooth="yes"/>
      <point x="152.146" y="184"/>
      <point x="134.88" y="75"/>
      <point x="134.88" y="75" type="curve"/>
      <point x="148.88" y="75" type="line"/>
      <point x="148.88" y="75"/>
      <point x="172.146" y="184"/>
      <point x="187.907" y="233" type="curve" smooth="yes"/>
      <point x="289.12" y="550" type="line"/>
    </contour>
  </outline>
</glyph>
<glyph name="x" format="2">
  <advance width="600" height="985"/>
  <unicode hex="0078"/>
  <outline>
    <contour>
      <point x="-34" y="0" type="line" name="ab01"/>
      <point x="211.144" y="285" type="line"/>
      <point x="66.12" y="550" type="line" name="at01"/>
      <point x="228.12" y="550" type="line"/>
      <point x="291.637" y="427" type="line" smooth="yes"/>
      <point x="302.469" y="407"/>
      <point x="304.618" y="389"/>
      <point x="304.618" y="389" type="curve"/>
      <point x="312.618" y="389" type="line"/>
      <point x="312.618" y="389"/>
      <point x="318.31" y="406"/>
      <point x="335.637" y="427" type="curve" smooth="yes"/>
      <point x="436.12" y="550" type="line" name="at02"/>
      <point x="608.12" y="550" type="line"/>
      <point x="380.144" y="285" type="line"/>
      <point x="534" y="0" type="line" name="ab02"/>
      <point x="372" y="0" type="line"/>
      <point x="298.334" y="141" type="line" smooth="yes"/>
      <point x="286.661" y="162"/>
      <point x="284.354" y="179"/>
      <point x="284.354" y="179" type="curve"/>
      <point x="276.354" y="179" type="line"/>
      <point x="276.354" y="179"/>
      <point x="269.661" y="162"/>
      <point x="253.493" y="142" type="curve" smooth="yes"/>
      <point x="138" y="0" type="line"/>
    </contour>
  </outline>
</glyph>
<glyph name="y" format="2">
  <advance width="600" height="985"/>
  <unicode hex="0079"/>
  <outline>
    <contour>
      <point x="100.12" y="550" type="line"/>
      <point x="250.12" y="550" type="line"/>
      <point x="204.342" y="261" type="line" smooth="yes"/>
      <point x="195.63" y="206"/>
      <point x="224.086" y="171"/>
      <point x="277.086" y="171" type="curve" smooth="yes"/>
      <point x="330.086" y="171"/>
      <point x="369.63" y="206"/>
      <point x="378.342" y="261" type="curve" smooth="yes"/>
      <point x="424.12" y="550" type="line"/>
      <point x="573.12" y="550" type="line"/>
      <point x="488.752" y="30" type="line"/>
      <point x="469.744" y="-90"/>
      <point x="370.072" y="-170"/>
      <point x="238.072" y="-170" type="curve" smooth="yes"/>
      <point x="54.072" y="-170" type="line"/>
      <point x="75.664" y="-40" type="line"/>
      <point x="238.664" y="-40" type="line" smooth="yes"/>
      <point x="293.664" y="-40"/>
      <point x="332.941" y="-13"/>
      <point x="339.752" y="30" type="curve" smooth="yes"/>
      <point x="343.712" y="55" type="line"/>
      <point x="363.334" y="141" type="line"/>
      <point x="352.334" y="141" type="line"/>
      <point x="332.88" y="75"/>
      <point x="280.494" y="41"/>
      <point x="200.494" y="41" type="curve" smooth="yes"/>
      <point x="89.4944" y="41"/>
      <point x="32.008" y="120"/>
      <point x="51.9664" y="246" type="curve" smooth="yes"/>
    </contour>
  </outline>
</glyph>
<glyph name="z" format="2">
  <advance width="600" height="985"/>
  <unicode hex="007A"/>
  <outline>
    <contour>
      <point x="110.12" y="550" type="line"/>
      <point x="561.12" y="550" type="line"/>
      <point x="538.578" y="414" type="line"/>
      <point x="221.642" y="124" type="line"/>
      <point x="220.533" y="117" type="line"/>
      <point x="220.533" y="117"/>
      <point x="265.434" y="129"/>
      <point x="315.434" y="129" type="curve" smooth="yes"/>
      <point x="505.434" y="129" type="line"/>
      <point x="485" y="0" type="line"/>
      <point x="15" y="0" type="line"/>
      <point x="37.384" y="135" type="line"/>
      <point x="354.32" y="425" type="line"/>
      <point x="355.27" y="431" type="line"/>
      <point x="355.27" y="431"/>
      <point x="311.686" y="421"/>
      <point x="258.686" y="421" type="curve" smooth="yes"/>
      <point x="89.6864" y="421" type="line"/>
    </contour>
  </outline>
</glyph>
<glyph name="braceright" format="2">
  <advance width="600" height="985"/>
  <unicode hex="007D"/>
  <outline>
    <contour>
      <point x="161" y="846" type="line"/>
      <point x="246" y="846" type="line" smooth="yes"/>
      <point x="355" y="846"/>
      <point x="423" y="773"/>
      <point x="397" y="661" type="curve" smooth="yes"/>
      <point x="364" y="516" type="line" smooth="yes"/>
      <point x="354" y="474"/>
      <point x="381" y="446"/>
      <point x="423" y="446" type="curve" smooth="yes"/>
      <point x="548" y="446" type="line"/>
      <point x="526" y="306" type="line"/>
      <point x="401" y="306" type="line" smooth="yes"/>
      <point x="359" y="306"/>
      <point x="323" y="278"/>
      <point x="320" y="236" type="curve" smooth="yes"/>
      <point x="306" y="85" type="line" smooth="yes"/>
      <point x="295" y="-25"/>
      <point x="207" y="-95"/>
      <point x="97" y="-95" type="curve" smooth="yes"/>
      <point x="12" y="-95" type="line"/>
      <point x="35" y="45" type="line"/>
      <point x="90" y="45" type="line" smooth="yes"/>
      <point x="128" y="45"/>
      <point x="155" y="62"/>
      <point x="159" y="105" type="curve" smooth="yes"/>
      <point x="173" y="256" type="line" smooth="yes"/>
      <point x="180" y="331"/>
      <point x="249" y="369"/>
      <point x="326" y="372" type="curve"/>
      <point x="327" y="377" type="line"/>
      <point x="250" y="380"/>
      <point x="194" y="421"/>
      <point x="211" y="496" type="curve" smooth="yes"/>
      <point x="245" y="646" type="line" smooth="yes"/>
      <point x="252" y="682"/>
      <point x="230" y="706"/>
      <point x="194" y="706" type="curve" smooth="yes"/>
      <point x="139" y="706" type="line"/>
    </contour>
  </outline>
</glyph>
<glyph name="asciitilde" format="2">
  <advance width="600" height="985"/>
  <unicode hex="007E"/>
  <outline>
    <contour>
      <point x="386.624" y="250" type="curve" smooth="yes"/>
      <point x="256.624" y="250"/>
      <point x="254.464" y="350"/>
      <point x="189.464" y="350" type="curve" smooth="yes"/>
      <point x="167.464" y="350"/>
      <point x="150.088" y="335"/>
      <point x="146.445" y="312" type="curve" smooth="yes"/>
      <point x="137.416" y="255" type="line"/>
      <point x="27.416" y="255" type="line"/>
      <point x="38.504" y="325" type="line" smooth="yes"/>
      <point x="51.0176" y="404"/>
      <point x="113.096" y="455"/>
      <point x="199.096" y="455" type="curve" smooth="yes"/>
      <point x="329.096" y="455"/>
      <point x="331.256" y="355"/>
      <point x="396.256" y="355" type="curve" smooth="yes"/>
      <point x="418.256" y="355"/>
      <point x="435.632" y="370"/>
      <point x="439.275" y="393" type="curve" smooth="yes"/>
      <point x="448.304" y="450" type="line"/>
      <point x="558.304" y="450" type="line"/>
      <point x="547.216" y="380" type="line" smooth="yes"/>
      <point x="534.702" y="301"/>
      <point x="472.624" y="250"/>
    </contour>
  </outline>
</glyph>
<glyph name="sterling" format="2">
  <advance width="600" height="985"/>
  <unicode hex="00A3"/>
  <outline>
    <contour>
      <point x="50.344" y="160" type="curve"/>
      <point x="25" y="0" type="line"/>
      <point x="485" y="0" type="line"/>
      <point x="507.176" y="140" type="line"/>
      <point x="137.176" y="140" type="line"/>
      <point x="137.176" y="140"/>
      <point x="287.81" y="144"/>
      <point x="306.659" y="263" type="curve" smooth="yes"/>
      <point x="331.845" y="422"/>
      <point x="222.538" y="439"/>
      <point x="235.685" y="522" type="curve" smooth="yes"/>
      <point x="242.496" y="565"/>
      <point x="281.456" y="590"/>
      <point x="339.456" y="590" type="curve" smooth="yes"/>
      <point x="395.456" y="590"/>
      <point x="427.338" y="564"/>
      <point x="425.368" y="520" type="curve"/>
      <point x="575.368" y="520" type="line"/>
      <point x="586.01" y="644"/>
      <point x="506.048" y="720"/>
      <point x="364.048" y="720" type="curve" smooth="yes"/>
      <point x="213.048" y="720"/>
      <point x="104.693" y="642"/>
      <point x="86.952" y="530" type="curve" smooth="yes"/>
      <point x="66.8352" y="403"/>
      <point x="195.459" y="388"/>
      <point x="174.234" y="254" type="curve" smooth="yes"/>
      <point x="163.462" y="186"/>
      <point x="50.344" y="160"/>
    </contour>
    <contour>
      <point x="57.768" y="270" type="line"/>
      <point x="427.768" y="270" type="line"/>
      <point x="446.776" y="390" type="line"/>
      <point x="76.776" y="390" type="line"/>
    </contour>
  </outline>
</glyph>
<glyph name="currency" format="2">
  <advance width="600" height="985"/>
  <unicode hex="00A4"/>
  <outline>
    <contour>
      <point x="79.7536" y="554" type="line"/>
      <point x="152.733" y="617" type="line"/>
      <point x="226.794" y="529" type="line"/>
      <point x="259.645" y="547"/>
      <point x="298.229" y="557"/>
      <point x="337.229" y="557" type="curve" smooth="yes"/>
      <point x="378.229" y="557"/>
      <point x="414.486" y="546"/>
      <point x="442.318" y="526" type="curve"/>
      <point x="540.782" y="611" type="line"/>
      <point x="593.803" y="548" type="line"/>
      <point x="495.339" y="463" type="line"/>
      <point x="508.429" y="432"/>
      <point x="513.568" y="395"/>
      <point x="507.232" y="355" type="curve" smooth="yes"/>
      <point x="500.738" y="314"/>
      <point x="483.718" y="276"/>
      <point x="458.808" y="245" type="curve"/>
      <point x="532.027" y="158" type="line"/>
      <point x="459.048" y="95" type="line"/>
      <point x="385.829" y="182" type="line"/>
      <point x="351.978" y="164"/>
      <point x="313.235" y="153"/>
      <point x="273.235" y="153" type="curve" smooth="yes"/>
      <point x="233.235" y="153"/>
      <point x="197.819" y="163"/>
      <point x="170.829" y="182" type="curve"/>
      <point x="70.048" y="95" type="line"/>
      <point x="17.0272" y="158" type="line"/>
      <point x="116.65" y="244" type="line"/>
      <point x="100.56" y="275"/>
      <point x="95.5792" y="313"/>
      <point x="102.232" y="355" type="curve" smooth="yes"/>
      <point x="108.885" y="397"/>
      <point x="127.062" y="436"/>
      <point x="152.131" y="468" type="curve"/>
    </contour>
    <contour>
      <point x="284.798" y="226" type="curve" smooth="yes"/>
      <point x="361.798" y="226"/>
      <point x="421.035" y="278"/>
      <point x="433.232" y="355" type="curve" smooth="yes"/>
      <point x="445.429" y="432"/>
      <point x="402.666" y="484"/>
      <point x="325.666" y="484" type="curve" smooth="yes"/>
      <point x="248.666" y="484"/>
      <point x="188.429" y="432"/>
      <point x="176.232" y="355" type="curve" smooth="yes"/>
      <point x="164.035" y="278"/>
      <point x="207.798" y="226"/>
    </contour>
  </outline>
</glyph>
<glyph name="brokenbar" format="2">
  <advance width="600" height="985"/>
  <unicode hex="00A6"/>
  <outline>
    <contour>
      <point x="306.472" y="830" type="line"/>
      <point x="456.472" y="830" type="line"/>
      <point x="396.28" y="450" type="line"/>
      <point x="246.28" y="450" type="line"/>
    </contour>
    <contour>
      <point x="217.768" y="270" type="line"/>
      <point x="367.768" y="270" type="line"/>
      <point x="307.576" y="-110" type="line"/>
      <point x="157.576" y="-110" type="line"/>
    </contour>
  </outline>
</glyph>
<glyph name="dieresis" format="2">
  <advance width="600" height="985"/>
  <unicode hex="00A8"/>
  <outline>
    <contour>
      <point x="204.523" y="723" type="curve" smooth="yes"/>
      <point x="210.701" y="762"/>
      <point x="244.819" y="788"/>
      <point x="289.819" y="788" type="curve" smooth="yes"/>
      <point x="334.819" y="788"/>
      <point x="360.701" y="762"/>
      <point x="354.523" y="723" type="curve" smooth="yes"/>
      <point x="348.029" y="682"/>
      <point x="313.752" y="655"/>
      <point x="268.752" y="655" type="curve" smooth="yes"/>
      <point x="223.752" y="655"/>
      <point x="198.029" y="682"/>
    </contour>
    <contour>
      <point x="414.523" y="723" type="curve" smooth="yes"/>
      <point x="420.701" y="762"/>
      <point x="454.819" y="788"/>
      <point x="499.819" y="788" type="curve" smooth="yes"/>
      <point x="544.819" y="788"/>
      <point x="570.701" y="762"/>
      <point x="564.523" y="723" type="curve" smooth="yes"/>
      <point x="558.029" y="682"/>
      <point x="523.752" y="655"/>
      <point x="478.752" y="655" type="curve" smooth="yes"/>
      <point x="433.752" y="655"/>
      <point x="408.029" y="682"/>
    </contour>
  </outline>
</glyph>
<glyph name="macron" format="2">
  <advance width="600" height="985"/>
  <unicode hex="00AF"/>
  <outline>
    <contour>
      <point x="222.064" y="770" type="line"/>
      <point x="522.064" y="770" type="line"/>
      <point x="503.848" y="655" type="line"/>
      <point x="203.848" y="655" type="line"/>
    </contour>
  </outline>
</glyph>
<glyph name="plusminus" format="2">
  <advance width="600" height="985"/>
  <unicode hex="00B1"/>
  <outline>
    <contour>
      <point x="52.9744" y="260" type="line"/>
      <point x="75.1504" y="400" type="line"/>
      <point x="245.15" y="400" type="line"/>
      <point x="272.078" y="570" type="line"/>
      <point x="422.078" y="570" type="line"/>
      <point x="395.15" y="400" type="line"/>
      <point x="565.15" y="400" type="line"/>
      <point x="542.974" y="260" type="line"/>
      <point x="372.974" y="260" type="line"/>
      <point x="349.373" y="111" type="line"/>
      <point x="504.373" y="111" type="line"/>
      <point x="486.79" y="0" type="line"/>
      <point x="16.7904" y="0" type="line"/>
      <point x="34.3728" y="111" type="line"/>
      <point x="199.373" y="111" type="line"/>
      <point x="222.974" y="260" type="line"/>
    </contour>
  </outline>
</glyph>
<glyph name="twosuperior" format="2">
  <advance width="600" height="985"/>
  <unicode hex="00B2"/>
  <outline>
    <contour>
      <point x="460.653" y="667" type="curve" smooth="yes"/>
      <point x="453.208" y="620"/>
      <point x="418.555" y="578"/>
      <point x="344.328" y="545" type="curve" smooth="yes"/>
      <point x="279.734" y="516" type="line"/>
      <point x="278.309" y="507" type="line"/>
      <point x="278.309" y="507"/>
      <point x="316.576" y="515"/>
      <point x="341.576" y="515" type="curve" smooth="yes"/>
      <point x="441.576" y="515" type="line"/>
      <point x="429.696" y="440" type="line"/>
      <point x="154.696" y="440" type="line"/>
      <point x="169.952" y="530" type="line"/>
      <point x="324.466" y="609" type="line" smooth="yes"/>
      <point x="352.842" y="624"/>
      <point x="366.218" y="639"/>
      <point x="369.386" y="659" type="curve" smooth="yes"/>
      <point x="373.346" y="684"/>
      <point x="358.88" y="700"/>
      <point x="333.88" y="700" type="curve" smooth="yes"/>
      <point x="304.88" y="700"/>
      <point x="283.029" y="682"/>
      <point x="278.91" y="656" type="curve"/>
      <point x="188.91" y="656" type="line"/>
      <point x="199.523" y="723"/>
      <point x="263.968" y="770"/>
      <point x="344.968" y="770" type="curve" smooth="yes"/>
      <point x="423.968" y="770"/>
      <point x="470.474" y="729"/>
    </contour>
  </outline>
</glyph>
<glyph name="threesuperior" format="2">
  <advance width="600" height="985"/>
  <unicode hex="00B3"/>
  <outline>
    <contour>
      <point x="347.168" y="645" type="curve"/>
      <point x="345.742" y="636" type="line"/>
      <point x="345.742" y="636"/>
      <point x="387.802" y="649"/>
      <point x="398.91" y="656" type="curve" smooth="yes"/>
      <point x="454.93" y="694" type="line"/>
      <point x="466.176" y="765" type="line"/>
      <point x="231.176" y="765" type="line"/>
      <point x="220.88" y="700" type="line"/>
      <point x="305.88" y="700" type="line" smooth="yes"/>
      <point x="358.88" y="700"/>
      <point x="392.306" y="709"/>
      <point x="392.306" y="709" type="curve"/>
      <point x="391.197" y="702" type="line"/>
      <point x="298.118" y="651" type="line"/>
      <point x="287.664" y="585" type="line"/>
      <point x="317.664" y="585" type="line" smooth="yes"/>
      <point x="344.664" y="585"/>
      <point x="360.13" y="569"/>
      <point x="356.328" y="545" type="curve" smooth="yes"/>
      <point x="352.526" y="521"/>
      <point x="331.992" y="505"/>
      <point x="303.992" y="505" type="curve" smooth="yes"/>
      <point x="274.992" y="505"/>
      <point x="257.21" y="519"/>
      <point x="260.536" y="540" type="curve"/>
      <point x="170.536" y="540" type="line"/>
      <point x="160.557" y="477"/>
      <point x="209.904" y="435"/>
      <point x="292.904" y="435" type="curve" smooth="yes"/>
      <point x="374.904" y="435"/>
      <point x="435.874" y="479"/>
      <point x="446.328" y="545" type="curve" smooth="yes"/>
      <point x="455.832" y="605"/>
      <point x="416.168" y="645"/>
    </contour>
  </outline>
</glyph>
<glyph name="acute" format="2">
  <advance width="600" height="985"/>
  <unicode hex="00B4"/>
  <outline>
    <contour>
      <point x="540.928" y="785" type="line"/>
      <point x="385.928" y="785" type="line"/>
      <point x="263.752" y="645" type="line"/>
      <point x="398.752" y="645" type="line"/>
    </contour>
  </outline>
</glyph>
<glyph name="uni00B5" format="2">
  <advance width="600" height="985"/>
  <unicode hex="00B5"/>
  <outline>
    <contour>
      <point x="-11.928" y="-170" type="line"/>
      <point x="127.072" y="-170" type="line"/>
      <point x="131.941" y="-13" type="line" smooth="yes"/>
      <point x="132.643" y="23"/>
      <point x="121.147" y="83"/>
      <point x="119.147" y="83" type="curve"/>
      <point x="128.147" y="83" type="line"/>
      <point x="128.147" y="83"/>
      <point x="139.416" y="-10"/>
      <point x="263.416" y="-10" type="curve" smooth="yes"/>
      <point x="400.416" y="-10"/>
      <point x="496.88" y="75"/>
      <point x="518.898" y="214" type="curve" smooth="yes"/>
      <point x="572.12" y="550" type="line"/>
      <point x="422.12" y="550" type="line"/>
      <point x="369.056" y="215" type="line" smooth="yes"/>
      <point x="359.394" y="154"/>
      <point x="325.008" y="120"/>
      <point x="269.008" y="120" type="curve" smooth="yes"/>
      <point x="212.008" y="120"/>
      <point x="189.394" y="154"/>
      <point x="199.056" y="215" type="curve" smooth="yes"/>
      <point x="252.12" y="550" type="line"/>
      <point x="102.12" y="550" type="line"/>
    </contour>
  </outline>
</glyph>
<glyph name="guillemotright" format="2">
  <advance width="600" height="985"/>
  <unicode hex="00BB"/>
  <outline>
    <contour>
      <point x="331.352" y="280" type="line"/>
      <point x="134.336" y="40" type="line"/>
      <point x="-25.664" y="40" type="line"/>
      <point x="141.65" y="244" type="line" smooth="yes"/>
      <point x="162.768" y="270"/>
      <point x="188.194" y="279"/>
      <point x="188.194" y="279" type="curve"/>
      <point x="188.51" y="281" type="line"/>
      <point x="188.51" y="281"/>
      <point x="175.778" y="289"/>
      <point x="161.054" y="316" type="curve" smooth="yes"/>
      <point x="52.368" y="520" type="line"/>
      <point x="203.368" y="520" type="line"/>
    </contour>
    <contour>
      <point x="580.352" y="280" type="line"/>
      <point x="395.336" y="40" type="line"/>
      <point x="235.336" y="40" type="line"/>
      <point x="402.65" y="244" type="line" smooth="yes"/>
      <point x="423.768" y="270"/>
      <point x="438.194" y="279"/>
      <point x="438.194" y="279" type="curve"/>
      <point x="438.51" y="281" type="line"/>
      <point x="438.51" y="281"/>
      <point x="425.778" y="289"/>
      <point x="411.054" y="316" type="curve" smooth="yes"/>
      <point x="302.368" y="520" type="line"/>
      <point x="453.368" y="520" type="line"/>
    </contour>
  </outline>
</glyph>
<glyph name="Eth" format="2">
  <advance width="600" height="985"/>
  <unicode hex="00D0"/>
  <outline>
    <contour>
      <point x="272" y="140" type="curve" smooth="yes"/>
      <point x="185" y="140" type="line"/>
      <point x="255" y="580" type="line"/>
      <point x="342" y="580" type="line" smooth="yes"/>
      <point x="403" y="580"/>
      <point x="438" y="542"/>
      <point x="429" y="486" type="curve" smooth="yes"/>
      <point x="389" y="235" type="line" smooth="yes"/>
      <point x="380" y="178"/>
      <point x="333" y="140"/>
    </contour>
    <contour>
      <point x="250" y="0" type="line" smooth="yes"/>
      <point x="401" y="0"/>
      <point x="517" y="94"/>
      <point x="539" y="235" type="curve" smooth="yes"/>
      <point x="579" y="486" type="line" smooth="yes"/>
      <point x="601" y="627"/>
      <point x="515" y="720"/>
      <point x="364" y="720" type="curve" smooth="yes"/>
      <point x="127" y="720" type="line"/>
      <point x="13" y="0" type="line"/>
    </contour>
    <contour>
      <point x="16" y="290" type="line"/>
      <point x="296" y="290" type="line"/>
      <point x="317" y="425" type="line"/>
      <point x="37" y="425" type="line"/>
    </contour>
  </outline>
</glyph>
<glyph name="germandbls" format="2">
  <advance width="600" height="985"/>
  <unicode hex="00DF"/>
  <outline>
    <contour>
      <point x="-153.92" y="-50" type="line"/>
      <point x="-88.92" y="-50" type="line" smooth="yes"/>
      <point x="-35.92" y="-50"/>
      <point x="1.1488" y="-18"/>
      <point x="9.544" y="35" type="curve" smooth="yes"/>
      <point x="92.2784" y="551" type="line" smooth="yes"/>
      <point x="109.227" y="658"/>
      <point x="214.632" y="730"/>
      <point x="339.632" y="730" type="curve" smooth="yes"/>
      <point x="392.632" y="730" type="line" smooth="yes"/>
      <point x="531.632" y="730"/>
      <point x="612.227" y="658"/>
      <point x="595.278" y="551" type="curve" smooth="yes"/>
      <point x="579.28" y="450" type="line"/>
      <point x="464.28" y="450" type="line" smooth="yes"/>
      <point x="424.28" y="450"/>
      <point x="397.112" y="430"/>
      <point x="392.043" y="398" type="curve" smooth="yes"/>
      <point x="386.974" y="366"/>
      <point x="399.44" y="350"/>
      <point x="425.331" y="343" type="curve" smooth="yes"/>
      <point x="457.064" y="335" type="line" smooth="yes"/>
      <point x="549.421" y="312"/>
      <point x="589.6" y="250"/>
      <point x="574.869" y="157" type="curve" smooth="yes"/>
      <point x="559.029" y="57"/>
      <point x="474.416" y="-10"/>
      <point x="372.416" y="-10" type="curve" smooth="yes"/>
      <point x="275.416" y="-10"/>
      <point x="212.92" y="50"/>
      <point x="217.176" y="140" type="curve"/>
      <point x="332.176" y="140" type="line"/>
      <point x="332.424" y="110"/>
      <point x="355.256" y="90"/>
      <point x="388.256" y="90" type="curve" smooth="yes"/>
      <point x="422.256" y="90"/>
      <point x="448.216" y="115"/>
      <point x="454.077" y="152" type="curve" smooth="yes"/>
      <point x="460.413" y="192"/>
      <point x="446.848" y="220"/>
      <point x="416.957" y="227" type="curve" smooth="yes"/>
      <point x="388.066" y="234" type="line" smooth="yes"/>
      <point x="294.709" y="257"/>
      <point x="256.312" y="305"/>
      <point x="270.093" y="392" type="curve" smooth="yes"/>
      <point x="284.666" y="484"/>
      <point x="366.12" y="550"/>
      <point x="465.12" y="550" type="curve"/>
      <point x="471.773" y="592"/>
      <point x="436.208" y="620"/>
      <point x="375.208" y="620" type="curve" smooth="yes"/>
      <point x="322.208" y="620" type="line" smooth="yes"/>
      <point x="270.208" y="620"/>
      <point x="233.931" y="593"/>
      <point x="227.12" y="550" type="curve" smooth="yes"/>
      <point x="144.544" y="35" type="line" smooth="yes"/>
      <point x="124.269" y="-93"/>
      <point x="30.072" y="-170"/>
      <point x="-107.928" y="-170" type="curve" smooth="yes"/>
      <point x="-172.928" y="-170" type="line"/>
    </contour>
  </outline>
</glyph>
<glyph name="eth" format="2">
  <advance width="600" height="985"/>
  <unicode hex="00F0"/>
  <outline>
    <contour>
      <point x="250" y="0" type="curve" smooth="yes"/>
      <point x="409" y="0"/>
      <point x="525.206" y="96"/>
      <point x="549.632" y="250.203" type="curve" smooth="yes"/>
      <point x="563.381" y="337"/>
      <point x="546.112" y="430"/>
      <point x="481.061" y="537" type="curve" smooth="yes"/>
      <point x="363.632" y="730" type="line"/>
      <point x="196.632" y="730" type="line"/>
      <point x="341.458" y="489" type="line" smooth="yes"/>
      <point x="403.142" y="386"/>
      <point x="400.4" y="375"/>
      <point x="400.4" y="375" type="curve"/>
      <point x="394.4" y="375" type="line"/>
      <point x="394.4" y="375"/>
      <point x="360.23" y="456"/>
      <point x="265.23" y="456" type="curve" smooth="yes"/>
      <point x="144.23" y="456"/>
      <point x="48.2912" y="368"/>
      <point x="27.3824" y="236" type="curve" smooth="yes"/>
      <point x="4.8896" y="94"/>
      <point x="93" y="0"/>
    </contour>
    <contour>
      <point x="177.224" y="235" type="curve" smooth="yes"/>
      <point x="187.837" y="302"/>
      <point x="237.648" y="345"/>
      <point x="304.648" y="345" type="curve" smooth="yes"/>
      <point x="370.648" y="345"/>
      <point x="407.678" y="301"/>
      <point x="397.224" y="235" type="curve" smooth="yes"/>
      <point x="386.611" y="168"/>
      <point x="336.8" y="125"/>
      <point x="269.8" y="125" type="curve" smooth="yes"/>
      <point x="202.8" y="125"/>
      <point x="166.611" y="168"/>
    </contour>
    <contour>
      <point x="135.517" y="502" type="line"/>
      <point x="544.693" y="642" type="line"/>
      <point x="561.325" y="747" type="line"/>
      <point x="152.149" y="607" type="line"/>
    </contour>
  </outline>
</glyph>
<glyph name="thorn" format="2">
  <advance width="600" height="985"/>
  <unicode hex="00FE"/>
  <outline>
    <component base="b"/>
    <contour>
      <point x="20.92" y="50" type="line"/>
      <point x="166.92" y="50" type="line"/>
      <point x="136.072" y="-170" type="line"/>
      <point x="-13.928" y="-170" type="line"/>
    </contour>
  </outline>
</glyph>
<glyph name="dcaron" format="2">
  <advance width="600" height="985"/>
  <unicode hex="010F"/>
  <outline>
    <component base="d" xOffset="-10"/>
    <contour>
      <point x="769.75" y="756" type="line"/>
      <point x="681.624" y="610" type="line"/>
      <point x="611.624" y="610" type="line"/>
      <point x="679.75" y="756" type="line"/>
    </contour>
  </outline>
</glyph>
<glyph name="dcroat" format="2">
  <advance width="600" height="985"/>
  <unicode hex="0111"/>
  <outline>
    <component base="d"/>
    <contour>
      <point x="353.712" y="675" type="line"/>
      <point x="653.712" y="675" type="line"/>
      <point x="639.456" y="585" type="line"/>
      <point x="339.456" y="585" type="line"/>
    </contour>
  </outline>
</glyph>
<glyph name="eogonek" format="2">
  <advance width="600" height="985"/>
  <unicode hex="0119"/>
  <outline>
    <component base="e"/>
    <contour>
      <point x="417.736" y="-210" type="line"/>
      <point x="308.736" y="-210" type="line" smooth="yes"/>
      <point x="220.736" y="-210"/>
      <point x="173.122" y="-176"/>
      <point x="181.992" y="-120" type="curve" smooth="yes"/>
      <point x="188.328" y="-80"/>
      <point x="222.664" y="-40"/>
      <point x="290.742" y="11" type="curve" smooth="yes"/>
      <point x="409.682" y="99" type="line"/>
      <point x="444.87" y="56" type="line"/>
      <point x="361.05" y="-6" type="line" smooth="yes"/>
      <point x="323.614" y="-34"/>
      <point x="305.654" y="-59"/>
      <point x="301.694" y="-84" type="curve" smooth="yes"/>
      <point x="297.734" y="-109"/>
      <point x="313.2" y="-125"/>
      <point x="341.2" y="-125" type="curve" smooth="yes"/>
      <point x="431.2" y="-125" type="line"/>
    </contour>
  </outline>
</glyph>
<glyph name="Hbar" format="2">
  <advance width="600" height="985"/>
  <unicode hex="0126"/>
  <outline>
    <component base="H"/>
    <contour>
      <point x="76.208" y="620" type="line"/>
      <point x="626.208" y="620" type="line"/>
      <point x="610.368" y="520" type="line"/>
      <point x="60.368" y="520" type="line"/>
    </contour>
  </outline>
</glyph>
<glyph name="hbar" format="2">
  <advance width="600" height="985"/>
  <unicode hex="0127"/>
  <outline>
    <component base="h"/>
    <contour>
      <point x="59.296" y="680" type="line"/>
      <point x="369.296" y="680" type="line"/>
      <point x="355.832" y="595" type="line"/>
      <point x="45.832" y="595" type="line"/>
    </contour>
  </outline>
</glyph>
<glyph name="iogonek" format="2">
  <advance width="600" height="985"/>
  <unicode hex="012F"/>
  <outline>
    <component base="i"/>
    <contour>
      <point x="477.736" y="-210" type="line"/>
      <point x="368.736" y="-210" type="line" smooth="yes"/>
      <point x="280.736" y="-210"/>
      <point x="233.122" y="-176"/>
      <point x="241.992" y="-120" type="curve" smooth="yes"/>
      <point x="248.328" y="-80"/>
      <point x="282.664" y="-40"/>
      <point x="350.742" y="11" type="curve" smooth="yes"/>
      <point x="469.682" y="99" type="line"/>
      <point x="504.87" y="56" type="line"/>
      <point x="421.05" y="-6" type="line" smooth="yes"/>
      <point x="383.614" y="-34"/>
      <point x="365.654" y="-59"/>
      <point x="361.694" y="-84" type="curve" smooth="yes"/>
      <point x="357.734" y="-109"/>
      <point x="373.2" y="-125"/>
      <point x="401.2" y="-125" type="curve" smooth="yes"/>
      <point x="491.2" y="-125" type="line"/>
    </contour>
  </outline>
</glyph>
<glyph name="IJ" format="2">
  <advance width="600" height="985"/>
  <unicode hex="0132"/>
  <outline>
    <contour>
      <point x="259.048" y="720" type="line"/>
      <point x="145" y="0" type="line"/>
      <point x="-5" y="0" type="line"/>
      <point x="109.048" y="720" type="line"/>
    </contour>
    <contour>
      <point x="274.642" y="124" type="line" smooth="yes"/>
      <point x="338.642" y="124"/>
      <point x="380.027" y="158"/>
      <point x="389.531" y="218" type="curve" smooth="yes"/>
      <point x="446.872" y="580" type="line"/>
      <point x="306.872" y="580" type="line"/>
      <point x="329.048" y="720" type="line"/>
      <point x="619.048" y="720" type="line"/>
      <point x="539.531" y="218" type="line" smooth="yes"/>
      <point x="516.88" y="75"/>
      <point x="414.05" y="-6"/>
      <point x="254.05" y="-6" type="curve" smooth="yes"/>
      <point x="204.05" y="-6" type="line"/>
      <point x="224.642" y="124" type="line"/>
    </contour>
  </outline>
</glyph>
<glyph name="Eng" format="2">
  <advance width="600" height="985"/>
  <unicode hex="014A"/>
  <outline>
    <contour>
      <point x="353.87" y="56" type="line"/>
      <point x="346.267" y="8"/>
      <point x="312.832" y="-20"/>
      <point x="261.832" y="-20" type="curve" smooth="yes"/>
      <point x="181.832" y="-20" type="line"/>
      <point x="158.864" y="-165" type="line"/>
      <point x="228.864" y="-165" type="line" smooth="yes"/>
      <point x="369.864" y="-165"/>
      <point x="482.17" y="-81"/>
      <point x="501.336" y="40" type="curve" smooth="yes"/>
      <point x="607.464" y="710" type="line"/>
      <point x="477.464" y="710" type="line"/>
      <point x="423.45" y="369" type="line" smooth="yes"/>
      <point x="412.362" y="299"/>
      <point x="418.264" y="210"/>
      <point x="417.264" y="210" type="curve"/>
      <point x="408.264" y="210" type="line"/>
      <point x="408.264" y="210"/>
      <point x="413.877" y="277"/>
      <point x="403.371" y="318" type="curve" smooth="yes"/>
      <point x="302.464" y="710" type="line"/>
      <point x="117.464" y="710" type="line"/>
      <point x="5" y="0" type="line"/>
      <point x="135" y="0" type="line"/>
      <point x="206.597" y="452" type="line" smooth="yes"/>
      <point x="218.477" y="527"/>
      <point x="218.624" y="610"/>
      <point x="218.624" y="610" type="curve"/>
      <point x="225.624" y="610" type="line"/>
      <point x="225.624" y="610"/>
      <point x="217.278" y="551"/>
      <point x="230.517" y="502" type="curve" smooth="yes"/>
    </contour>
  </outline>
</glyph>
<glyph name="eng" format="2">
  <advance width="600" height="985"/>
  <unicode hex="014B"/>
  <outline>
    <contour>
      <point x="98.12" y="550" type="line"/>
      <point x="11" y="0" type="line"/>
      <point x="161" y="0" type="line"/>
      <point x="214.856" y="340" type="line" smooth="yes"/>
      <point x="223.568" y="395"/>
      <point x="263.112" y="430"/>
      <point x="316.112" y="430" type="curve" smooth="yes"/>
      <point x="369.112" y="430"/>
      <point x="397.568" y="395"/>
      <point x="388.856" y="340" type="curve" smooth="yes"/>
      <point x="343.87" y="56" type="line" smooth="yes"/>
      <point x="336.267" y="8"/>
      <point x="302.832" y="-20"/>
      <point x="251.832" y="-20" type="curve" smooth="yes"/>
      <point x="191.832" y="-20" type="line"/>
      <point x="168.864" y="-165" type="line"/>
      <point x="218.864" y="-165" type="line" smooth="yes"/>
      <point x="359.864" y="-165"/>
      <point x="472.17" y="-81"/>
      <point x="491.336" y="40" type="curve" smooth="yes"/>
      <point x="540.44" y="350" type="line" smooth="yes"/>
      <point x="560.715" y="478"/>
      <point x="505.704" y="560"/>
      <point x="391.704" y="560" type="curve" smooth="yes"/>
      <point x="310.704" y="560"/>
      <point x="257.051" y="518"/>
      <point x="236.488" y="445" type="curve"/>
      <point x="223.488" y="445" type="line"/>
      <point x="240.12" y="550" type="line"/>
    </contour>
  </outline>
</glyph>
<glyph name="oe" format="2">
  <advance width="600" height="985"/>
  <unicode hex="0153"/>
  <outline>
    <contour>
      <point x="265.088" y="70" type="line"/>
      <point x="265.088" y="70"/>
      <point x="263.416" y="-10"/>
      <point x="368.416" y="-10" type="curve" smooth="yes"/>
      <point x="442.416" y="-10"/>
      <point x="505.653" y="42"/>
      <point x="531.8" y="125" type="curve"/>
      <point x="416.8" y="125" type="line"/>
      <point x="410.157" y="102"/>
      <point x="390.781" y="87"/>
      <point x="367.781" y="87" type="curve" smooth="yes"/>
      <point x="339.781" y="87"/>
      <point x="324.107" y="108"/>
      <point x="329.176" y="140" type="curve" smooth="yes"/>
      <point x="346.6" y="250" type="line"/>
      <point x="554.6" y="250" type="line"/>
      <point x="579.944" y="410" type="line" smooth="yes"/>
      <point x="594.834" y="504"/>
      <point x="549.704" y="560"/>
      <point x="458.704" y="560" type="curve" smooth="yes"/>
      <point x="353.704" y="560"/>
      <point x="330.032" y="480"/>
      <point x="330.032" y="480" type="curve"/>
      <point x="322.032" y="480" type="line"/>
      <point x="322.032" y="480"/>
      <point x="324.704" y="560"/>
      <point x="218.704" y="560" type="curve" smooth="yes"/>
      <point x="128.704" y="560"/>
      <point x="65.6256" y="509"/>
      <point x="49.944" y="410" type="curve" smooth="yes"/>
      <point x="7.176" y="140" type="line" smooth="yes"/>
      <point x="-8.5056" y="41"/>
      <point x="38.416" y="-10"/>
      <point x="128.416" y="-10" type="curve" smooth="yes"/>
      <point x="234.416" y="-10"/>
      <point x="257.088" y="70"/>
      <point x="257.088" y="70" type="curve"/>
    </contour>
    <contour>
      <point x="359.272" y="330" type="line"/>
      <point x="371.944" y="410" type="line" smooth="yes"/>
      <point x="377.013" y="442"/>
      <point x="399.339" y="463"/>
      <point x="427.339" y="463" type="curve" smooth="yes"/>
      <point x="455.339" y="463"/>
      <point x="470.013" y="442"/>
      <point x="464.944" y="410" type="curve" smooth="yes"/>
      <point x="452.272" y="330" type="line"/>
    </contour>
    <contour>
      <point x="122.176" y="140" type="curve" smooth="yes"/>
      <point x="164.944" y="410" type="line" smooth="yes"/>
      <point x="170.013" y="442"/>
      <point x="192.339" y="463"/>
      <point x="220.339" y="463" type="curve" smooth="yes"/>
      <point x="248.339" y="463"/>
      <point x="263.013" y="442"/>
      <point x="257.944" y="410" type="curve" smooth="yes"/>
      <point x="215.176" y="140" type="line" smooth="yes"/>
      <point x="210.107" y="108"/>
      <point x="188.781" y="87"/>
      <point x="160.781" y="87" type="curve" smooth="yes"/>
      <point x="132.781" y="87"/>
      <point x="117.107" y="108"/>
    </contour>
  </outline>
</glyph>
<glyph name="uni018F" format="2">
  <advance width="600"/>
  <unicode hex="018F"/>
  <outline>
    <contour>
      <point x="193.312" y="305" type="line" name="iv01"/>
      <point x="403.312" y="305" type="line" name="dv02"/>
      <point x="388.898" y="214" type="line" smooth="yes" name="sh02"/>
      <point x="378.76" y="150"/>
      <point x="332.424" y="110"/>
      <point x="267.424" y="110" type="curve" smooth="yes" name="sv03"/>
      <point x="202.424" y="110"/>
      <point x="168.76" y="150"/>
      <point x="179.056" y="215" type="curve" smooth="yes" name="ah01"/>
    </contour>
    <contour>
      <point x="365.632" y="730" type="curve" smooth="yes" name="at01"/>
      <point x="215.632" y="730"/>
      <point x="101.376" y="640"/>
      <point x="79.992" y="505" type="curve" name="sh03"/>
      <point x="224.992" y="505" type="line" name="sv04"/>
      <point x="233.704" y="560"/>
      <point x="284.04" y="600"/>
      <point x="345.04" y="600" type="curve" smooth="yes" name="sv03"/>
      <point x="408.04" y="600"/>
      <point x="443.546" y="559"/>
      <point x="434.992" y="505" type="curve" smooth="yes"/>
      <point x="418.36" y="400" type="line" name="dv01"/>
      <point x="63.36" y="400" type="line"/>
      <point x="34.056" y="215" type="line" smooth="yes" name="sh03"/>
      <point x="11.88" y="75"/>
      <point x="93.416" y="-10"/>
      <point x="248.416" y="-10" type="curve" smooth="yes" name="at01"/>
      <point x="402.416" y="-10"/>
      <point x="512.038" y="76"/>
      <point x="533.898" y="214" type="curve" smooth="yes" name="sh01"/>
      <point x="579.992" y="505" type="line" smooth="yes"/>
      <point x="601.693" y="642"/>
      <point x="516.632" y="730"/>
    </contour>
  </outline>
</glyph>
<glyph name="uni0259" format="2">
  <advance width="600"/>
  <unicode hex="0259"/>
  <outline>
    <contour>
      <point x="406.104" y="310" type="line" name="dv01"/>
      <point x="47.104" y="310" type="line"/>
      <point x="31.264" y="210" type="line" smooth="yes" name="sh03"/>
      <point x="10.5136" y="79"/>
      <point x="97.416" y="-10"/>
      <point x="246.416" y="-10" type="curve" smooth="yes" name="at01"/>
      <point x="398.416" y="-10"/>
      <point x="512.197" y="77"/>
      <point x="533.106" y="209" type="curve" smooth="yes" name="sh01"/>
      <point x="553.856" y="340" type="line" smooth="yes"/>
      <point x="574.765" y="472"/>
      <point x="487.704" y="560"/>
      <point x="336.704" y="560" type="curve" smooth="yes" name="ab01"/>
      <point x="214.704" y="560"/>
      <point x="106.566" y="496"/>
      <point x="66.36" y="400" type="curve" name="sv01"/>
      <point x="213.36" y="400" type="line" name="sh04"/>
      <point x="229.795" y="428"/>
      <point x="269.488" y="445"/>
      <point x="318.488" y="445" type="curve" smooth="yes" name="sv02"/>
      <point x="385.488" y="445"/>
      <point x="421.152" y="405"/>
      <point x="410.856" y="340" type="curve" smooth="yes"/>
    </contour>
    <contour>
      <point x="391.848" y="220" type="line" name="dv02"/>
      <point x="390.106" y="209" type="line" smooth="yes" name="sh02"/>
      <point x="380.126" y="146"/>
      <point x="331.632" y="105"/>
      <point x="264.632" y="105" type="curve" smooth="yes" name="sv03"/>
      <point x="197.632" y="105"/>
      <point x="163.968" y="145"/>
      <point x="174.264" y="210" type="curve" smooth="yes" name="ah01"/>
      <point x="177.432" y="230" type="line" name="iv01"/>
      <point x="165.848" y="220" type="line" name="ih01"/>
    </contour>
  </outline>
</glyph>
<glyph name="uni02BC" format="2">
  <advance width="600"/>
  <unicode hex="02BC"/>
  <outline>
    <contour>
      <point x="522.918" y="776" type="line"/>
      <point x="343.656" y="465" type="line"/>
      <point x="213.656" y="465" type="line"/>
      <point x="342.918" y="776" type="line"/>
    </contour>
  </outline>
</glyph>
<glyph name="circumflex" format="2">
  <advance width="600" height="985"/>
  <unicode hex="02C6"/>
  <outline>
    <contour>
      <point x="290.928" y="785" type="line"/>
      <point x="460.928" y="785" type="line"/>
      <point x="538.752" y="645" type="line"/>
      <point x="433.752" y="645" type="line"/>
      <point x="422.445" y="662" type="line" smooth="yes"/>
      <point x="403.474" y="690.522"/>
      <point x="379.008" y="735"/>
      <point x="379.008" y="735" type="curve"/>
      <point x="367.008" y="735" type="line"/>
      <point x="367.008" y="735"/>
      <point x="328.281" y="689.9"/>
      <point x="301.603" y="663" type="curve" smooth="yes"/>
      <point x="283.752" y="645" type="line"/>
      <point x="168.752" y="645" type="line"/>
    </contour>
  </outline>
</glyph>
<glyph name="caron" format="2">
  <advance width="600" height="985"/>
  <unicode hex="02C7"/>
  <outline>
    <contour>
      <point x="438.752" y="645" type="line"/>
      <point x="268.752" y="645" type="line"/>
      <point x="190.928" y="785" type="line"/>
      <point x="295.928" y="785" type="line"/>
      <point x="307.235" y="768" type="line" smooth="yes"/>
      <point x="326.206" y="739.478"/>
      <point x="350.672" y="695"/>
      <point x="350.672" y="695" type="curve"/>
      <point x="362.672" y="695" type="line"/>
      <point x="362.672" y="695"/>
      <point x="401.399" y="740.1"/>
      <point x="428.077" y="767" type="curve" smooth="yes"/>
      <point x="445.928" y="785" type="line"/>
      <point x="560.928" y="785" type="line"/>
    </contour>
  </outline>
</glyph>
<glyph name="uni02C9" format="2">
  <advance width="600" height="985"/>
  <unicode hex="02C9"/>
  <outline>
    <contour>
      <point x="224.648" y="945" type="line"/>
      <point x="524.648" y="945" type="line"/>
      <point x="504.056" y="815" type="line"/>
      <point x="204.056" y="815" type="line"/>
    </contour>
  </outline>
</glyph>
<glyph name="breve" format="2">
  <advance width="600" height="985"/>
  <unicode hex="02D8"/>
  <outline>
    <contour>
      <point x="366.216" y="730" type="curve" smooth="yes"/>
      <point x="407.466" y="730"/>
      <point x="435.483" y="750.625"/>
      <point x="440.928" y="785" type="curve"/>
      <point x="555.928" y="785" type="line"/>
      <point x="542.147" y="698"/>
      <point x="460.96" y="640"/>
      <point x="352.96" y="640" type="curve" smooth="yes"/>
      <point x="244.96" y="640"/>
      <point x="182.147" y="698"/>
      <point x="195.928" y="785" type="curve"/>
      <point x="310.928" y="785" type="line"/>
      <point x="305.476" y="750.582"/>
      <point x="326.166" y="730"/>
    </contour>
  </outline>
</glyph>
<glyph name="dotaccent" format="2">
  <advance width="600" height="985"/>
  <unicode hex="02D9"/>
  <outline>
    <contour>
      <point x="339.84" y="775" type="curve" smooth="yes"/>
      <point x="369.84" y="775" type="line" smooth="yes"/>
      <point x="414.84" y="775"/>
      <point x="440.405" y="747"/>
      <point x="433.673" y="704.5" type="curve" smooth="yes"/>
      <point x="426.941" y="662"/>
      <point x="392.664" y="635"/>
      <point x="346.664" y="635" type="curve" smooth="yes"/>
      <point x="317.664" y="635" type="line" smooth="yes"/>
      <point x="272.664" y="635"/>
      <point x="247.099" y="663"/>
      <point x="253.752" y="705" type="curve" smooth="yes"/>
      <point x="260.405" y="747"/>
      <point x="294.84" y="775"/>
    </contour>
  </outline>
</glyph>
<glyph name="ring" format="2">
  <advance width="600" height="985"/>
  <unicode hex="02DA"/>
  <outline>
    <contour>
      <point x="232.464" y="700" type="curve" smooth="yes"/>
      <point x="242.443" y="763"/>
      <point x="301.096" y="805"/>
      <point x="379.096" y="805" type="curve" smooth="yes"/>
      <point x="457.096" y="805"/>
      <point x="502.443" y="763"/>
      <point x="492.464" y="700" type="curve" smooth="yes"/>
      <point x="482.485" y="637"/>
      <point x="423.832" y="595"/>
      <point x="345.832" y="595" type="curve" smooth="yes"/>
      <point x="267.832" y="595"/>
      <point x="222.485" y="637"/>
    </contour>
    <contour>
      <point x="302.464" y="700" type="curve" smooth="yes"/>
      <point x="297.554" y="669"/>
      <point x="317.386" y="649"/>
      <point x="353.386" y="649" type="curve" smooth="yes"/>
      <point x="390.386" y="649"/>
      <point x="417.554" y="669"/>
      <point x="422.464" y="700" type="curve" smooth="yes"/>
      <point x="427.374" y="731"/>
      <point x="406.542" y="751"/>
      <point x="369.542" y="751" type="curve" smooth="yes"/>
      <point x="333.542" y="751"/>
      <point x="307.374" y="731"/>
    </contour>
  </outline>
</glyph>
<glyph name="ogonek" format="2">
  <advance width="600" height="985"/>
  <unicode hex="02DB"/>
  <outline>
    <contour>
      <point x="358.742" y="11" type="line"/>
      <point x="335.05" y="-6" type="line" smooth="yes"/>
      <point x="297.614" y="-34"/>
      <point x="279.654" y="-59"/>
      <point x="275.694" y="-84" type="curve" smooth="yes"/>
      <point x="271.734" y="-109"/>
      <point x="287.2" y="-125"/>
      <point x="315.2" y="-125" type="curve" smooth="yes"/>
      <point x="384.2" y="-125" type="line"/>
      <point x="370.736" y="-210" type="line"/>
      <point x="272.736" y="-210" type="line" smooth="yes"/>
      <point x="194.736" y="-210"/>
      <point x="148.072" y="-170"/>
      <point x="157.418" y="-111" type="curve" smooth="yes"/>
      <point x="163.912" y="-70"/>
      <point x="189.456" y="-35"/>
      <point x="248.742" y="11" type="curve"/>
    </contour>
  </outline>
</glyph>
<glyph name="tilde" format="2">
  <advance width="600" height="985"/>
  <unicode hex="02DC"/>
  <outline>
    <contour>
      <point x="445.632" y="720" type="curve" smooth="yes"/>
      <point x="395.632" y="720"/>
      <point x="376.72" y="790"/>
      <point x="291.72" y="790" type="curve" smooth="yes"/>
      <point x="223.72" y="790"/>
      <point x="174.275" y="743"/>
      <point x="163.504" y="675" type="curve" smooth="yes"/>
      <point x="157.96" y="640" type="line"/>
      <point x="242.96" y="640" type="line"/>
      <point x="248.029" y="672" type="line" smooth="yes"/>
      <point x="251.197" y="692"/>
      <point x="265.256" y="705"/>
      <point x="283.256" y="705" type="curve" smooth="yes"/>
      <point x="333.256" y="705"/>
      <point x="352.168" y="635"/>
      <point x="437.168" y="635" type="curve" smooth="yes"/>
      <point x="505.168" y="635"/>
      <point x="554.613" y="682"/>
      <point x="565.384" y="750" type="curve" smooth="yes"/>
      <point x="570.928" y="785" type="line"/>
      <point x="485.928" y="785" type="line"/>
      <point x="480.067" y="748" type="line" smooth="yes"/>
      <point x="477.374" y="731"/>
      <point x="463.632" y="720"/>
    </contour>
  </outline>
</glyph>
<glyph name="hungarumlaut" format="2">
  <advance width="600" height="985"/>
  <unicode hex="02DD"/>
  <outline>
    <contour>
      <point x="649.344" y="785" type="line"/>
      <point x="494.344" y="785" type="line"/>
      <point x="372.168" y="645" type="line"/>
      <point x="507.01" y="645" type="line"/>
    </contour>
    <contour>
      <point x="414.344" y="785" type="line"/>
      <point x="259.344" y="785" type="line"/>
      <point x="137.168" y="645" type="line"/>
      <point x="272.168" y="645" type="line"/>
    </contour>
  </outline>
</glyph>
<glyph name="hookabovecomb" format="2">
  <advance width="600"/>
  <unicode hex="0309"/>
  <outline>
    <contour>
      <point x="273" y="620" type="line"/>
      <point x="286" y="629" type="line" smooth="yes"/>
      <point x="336" y="666"/>
      <point x="360" y="695"/>
      <point x="364.421" y="722.997" type="curve" smooth="yes"/>
      <point x="369" y="752"/>
      <point x="351" y="770"/>
      <point x="317" y="770" type="curve" smooth="yes"/>
      <point x="257" y="770" type="line"/>
      <point x="266" y="830" type="line"/>
      <point x="344" y="830" type="line" smooth="yes"/>
      <point x="418" y="830"/>
      <point x="461" y="794"/>
      <point x="452" y="740" type="curve" smooth="yes"/>
      <point x="446" y="702"/>
      <point x="418" y="664"/>
      <point x="348" y="620" type="curve"/>
    </contour>
  </outline>
</glyph>
<glyph name="uni031B" format="2">
  <advance width="600"/>
  <unicode hex="031B"/>
  <outline>
    <contour>
      <point x="511" y="510" type="line"/>
      <point x="511" y="510"/>
      <point x="528" y="480"/>
      <point x="570" y="480" type="curve" smooth="yes"/>
      <point x="594" y="480"/>
      <point x="607" y="485"/>
      <point x="612" y="515" type="curve" smooth="yes"/>
      <point x="622" y="580" type="line"/>
      <point x="692" y="580" type="line"/>
      <point x="682" y="515" type="line" smooth="yes"/>
      <point x="672" y="452"/>
      <point x="634" y="420"/>
      <point x="588.203" y="420" type="curve" smooth="yes"/>
      <point x="537" y="420"/>
      <point x="503" y="460"/>
      <point x="503" y="460" type="curve"/>
    </contour>
  </outline>
</glyph>
<glyph name="commaaccent" format="2">
  <advance width="600" height="985"/>
  <unicode hex="0326"/>
  <outline>
    <contour>
      <point x="384.608" y="-95" type="line"/>
      <point x="236.64" y="-240" type="line"/>
      <point x="111.64" y="-240" type="line"/>
      <point x="219.608" y="-95" type="line"/>
    </contour>
  </outline>
</glyph>
<glyph name="uni0402" format="2">
  <advance width="600" height="985"/>
  <unicode hex="0402"/>
  <outline>
    <contour>
      <point x="70.048" y="720" type="line"/>
      <point x="430.048" y="720" type="line"/>
      <point x="407.872" y="580" type="line"/>
      <point x="297.872" y="580" type="line"/>
      <point x="272.528" y="420" type="line"/>
      <point x="288.746" y="434" type="line" smooth="yes"/>
      <point x="335.082" y="474"/>
      <point x="383.408" y="495"/>
      <point x="429.408" y="495" type="curve" smooth="yes"/>
      <point x="537.408" y="495"/>
      <point x="595.211" y="418"/>
      <point x="575.936" y="290" type="curve" smooth="yes"/>
      <point x="537.336" y="40" type="line"/>
      <point x="518.17" y="-81"/>
      <point x="405.864" y="-165"/>
      <point x="264.864" y="-165" type="curve" smooth="yes"/>
      <point x="214.864" y="-165" type="line"/>
      <point x="237.832" y="-20" type="line"/>
      <point x="297.832" y="-20" type="line" smooth="yes"/>
      <point x="348.832" y="-20"/>
      <point x="382.267" y="8"/>
      <point x="389.87" y="56" type="curve"/>
      <point x="425.144" y="285" type="line"/>
      <point x="433.539" y="338"/>
      <point x="415.816" y="365"/>
      <point x="373.816" y="365" type="curve" smooth="yes"/>
      <point x="345.816" y="365"/>
      <point x="318.915" y="353"/>
      <point x="291.114" y="329" type="curve" smooth="yes"/>
      <point x="252.886" y="296" type="line"/>
      <point x="206" y="0" type="line"/>
      <point x="56" y="0" type="line"/>
      <point x="147.872" y="580" type="line"/>
      <point x="47.872" y="580" type="line"/>
    </contour>
  </outline>
</glyph>
<glyph name="uni040A" format="2">
  <advance width="600" height="985"/>
  <unicode hex="040A"/>
  <outline>
    <contour>
      <point x="104.048" y="720" type="line"/>
      <point x="-10" y="0" type="line"/>
      <point x="110" y="0" type="line"/>
      <point x="164.648" y="345" type="line"/>
      <point x="279.648" y="345" type="line"/>
      <point x="225" y="0" type="line"/>
      <point x="350" y="0" type="line" smooth="yes"/>
      <point x="467" y="0"/>
      <point x="550.93" y="69"/>
      <point x="569.304" y="185" type="curve" smooth="yes"/>
      <point x="582.61" y="269" type="line" smooth="yes"/>
      <point x="601.142" y="386"/>
      <point x="539.072" y="455"/>
      <point x="422.072" y="455" type="curve" smooth="yes"/>
      <point x="417.072" y="455" type="line"/>
      <point x="459.048" y="720" type="line"/>
      <point x="339.048" y="720" type="line"/>
      <point x="297.072" y="455" type="line"/>
      <point x="182.072" y="455" type="line"/>
      <point x="224.048" y="720" type="line"/>
    </contour>
    <contour>
      <point x="399.648" y="345" type="line"/>
      <point x="404.648" y="345" type="line" smooth="yes"/>
      <point x="448.648" y="345"/>
      <point x="470.213" y="317"/>
      <point x="462.293" y="267" type="curve" smooth="yes"/>
      <point x="449.462" y="186" type="line" smooth="yes"/>
      <point x="441.701" y="137"/>
      <point x="411.424" y="110"/>
      <point x="367.424" y="110" type="curve" smooth="yes"/>
      <point x="362.424" y="110" type="line"/>
    </contour>
  </outline>
</glyph>
<glyph name="uni040F" format="2">
  <advance width="600" height="985"/>
  <unicode hex="040F"/>
  <outline>
    <contour>
      <point x="15" y="0" type="line"/>
      <point x="175" y="0" type="line"/>
      <point x="155.2" y="-125" type="line"/>
      <point x="305.2" y="-125" type="line"/>
      <point x="325" y="0" type="line"/>
      <point x="485" y="0" type="line"/>
      <point x="599.048" y="720" type="line"/>
      <point x="449.048" y="720" type="line"/>
      <point x="357.176" y="140" type="line"/>
      <point x="187.176" y="140" type="line"/>
      <point x="279.048" y="720" type="line"/>
      <point x="129.048" y="720" type="line"/>
    </contour>
  </outline>
</glyph>
<glyph name="uni0413" format="2">
  <advance width="600" height="985"/>
  <unicode hex="0413"/>
  <outline>
    <contour>
      <point x="604.048" y="720" type="line"/>
      <point x="581.872" y="580" type="line"/>
      <point x="286.872" y="580" type="line"/>
      <point x="195" y="0" type="line"/>
      <point x="45" y="0" type="line"/>
      <point x="159.048" y="720" type="line"/>
    </contour>
  </outline>
</glyph>
<glyph name="uni0414" format="2">
  <advance width="600" height="985"/>
  <unicode hex="0414"/>
  <outline>
    <contour>
      <point x="171.018" y="139" type="curve"/>
      <point x="169.275" y="128" type="line"/>
      <point x="348.275" y="128" type="line"/>
      <point x="421.456" y="590" type="line"/>
      <point x="291.456" y="590" type="line"/>
      <point x="260.102" y="411" type="line" smooth="yes"/>
      <point x="225.898" y="214"/>
      <point x="171.018" y="139"/>
    </contour>
    <contour>
      <point x="110" y="0" type="line"/>
      <point x="87.824" y="-140" type="line"/>
      <point x="-52.176" y="-140" type="line"/>
      <point x="-9.7248" y="128" type="line"/>
      <point x="19.2752" y="128" type="line"/>
      <point x="19.2752" y="128"/>
      <point x="84.1056" y="209"/>
      <point x="118.944" y="410" type="curve" smooth="yes"/>
      <point x="173.048" y="720" type="line"/>
      <point x="584.048" y="720" type="line"/>
      <point x="490.275" y="128" type="line"/>
      <point x="550.275" y="128" type="line"/>
      <point x="507.824" y="-140" type="line"/>
      <point x="367.824" y="-140" type="line"/>
      <point x="390" y="0" type="line"/>
    </contour>
  </outline>
</glyph>
<glyph name="uni0416" format="2">
  <advance width="600" height="985"/>
  <unicode hex="0416"/>
  <outline>
    <contour>
      <point x="-50" y="0" type="line"/>
      <point x="105.608" y="370" type="line"/>
      <point x="70.048" y="720" type="line"/>
      <point x="184.048" y="720" type="line"/>
      <point x="211.726" y="396" type="line"/>
      <point x="253.726" y="396" type="line"/>
      <point x="305.048" y="720" type="line"/>
      <point x="419.048" y="720" type="line"/>
      <point x="367.726" y="396" type="line"/>
      <point x="405.726" y="396" type="line"/>
      <point x="538.048" y="720" type="line"/>
      <point x="654.048" y="720" type="line"/>
      <point x="508.45" y="369" type="line"/>
      <point x="550" y="0" type="line"/>
      <point x="436" y="0" type="line"/>
      <point x="403.173" y="342" type="line"/>
      <point x="359.173" y="342" type="line"/>
      <point x="310" y="0" type="line"/>
      <point x="196" y="0" type="line"/>
      <point x="245.173" y="342" type="line"/>
      <point x="205.173" y="342" type="line"/>
      <point x="68" y="0" type="line"/>
    </contour>
  </outline>
</glyph>
<glyph name="uni041B" format="2">
  <advance width="600" height="985"/>
  <unicode hex="041B"/>
  <outline>
    <contour>
      <point x="92.432" y="230" type="line" smooth="yes"/>
      <point x="82.0864" y="171"/>
      <point x="50.592" y="130"/>
      <point x="15.592" y="130" type="curve" smooth="yes"/>
      <point x="-14.408" y="130" type="line"/>
      <point x="-35.792" y="-5" type="line"/>
      <point x="4.208" y="-5" type="line" smooth="yes"/>
      <point x="124.208" y="-5"/>
      <point x="216.622" y="86"/>
      <point x="241.432" y="230" type="curve" smooth="yes"/>
      <point x="300.872" y="580" type="line"/>
      <point x="431.872" y="580" type="line"/>
      <point x="340" y="0" type="line"/>
      <point x="490" y="0" type="line"/>
      <point x="604.048" y="720" type="line"/>
      <point x="176.048" y="720" type="line"/>
    </contour>
  </outline>
</glyph>
<glyph name="uni041F" format="2">
  <advance width="600" height="985"/>
  <unicode hex="041F"/>
  <outline>
    <contour>
      <point x="129.048" y="720" type="line"/>
      <point x="15" y="0" type="line"/>
      <point x="165" y="0" type="line"/>
      <point x="256.872" y="580" type="line"/>
      <point x="426.872" y="580" type="line"/>
      <point x="335" y="0" type="line"/>
      <point x="485" y="0" type="line"/>
      <point x="599.048" y="720" type="line"/>
    </contour>
  </outline>
</glyph>
<glyph name="uni0423" format="2">
  <advance width="600" height="985"/>
  <unicode hex="0423"/>
  <outline>
    <contour>
      <point x="268" y="0" type="line"/>
      <point x="111" y="0" type="line"/>
      <point x="215.304" y="185" type="line"/>
      <point x="84.048" y="720" type="line"/>
      <point x="246.048" y="720" type="line"/>
      <point x="301.587" y="433" type="line" smooth="yes"/>
      <point x="309.251" y="393"/>
      <point x="303.005" y="322"/>
      <point x="303.005" y="322" type="curve"/>
      <point x="312.005" y="322" type="line"/>
      <point x="312.005" y="322"/>
      <point x="326.251" y="393"/>
      <point x="345.587" y="433" type="curve" smooth="yes"/>
      <point x="487.048" y="720" type="line"/>
      <point x="644.048" y="720" type="line"/>
    </contour>
  </outline>
</glyph>
<glyph name="uni0424" format="2">
  <advance width="600" height="985"/>
  <unicode hex="0424"/>
  <outline>
    <contour>
      <point x="197.128" y="45" type="curve"/>
      <point x="186.04" y="-25" type="line"/>
      <point x="306.04" y="-25" type="line"/>
      <point x="317.128" y="45" type="line"/>
      <point x="442.128" y="45"/>
      <point x="541.067" y="133"/>
      <point x="561.818" y="264" type="curve" smooth="yes"/>
      <point x="596.19" y="481" type="line" smooth="yes"/>
      <point x="616.941" y="612"/>
      <point x="545.88" y="700"/>
      <point x="420.88" y="700" type="curve"/>
      <point x="431.968" y="770" type="line"/>
      <point x="311.968" y="770" type="line"/>
      <point x="300.88" y="700" type="line"/>
      <point x="175.88" y="700"/>
      <point x="76.9408" y="612"/>
      <point x="56.1904" y="481" type="curve" smooth="yes"/>
      <point x="21.8176" y="264" type="line" smooth="yes"/>
      <point x="1.0672" y="133"/>
      <point x="72.128" y="45"/>
    </contour>
    <contour>
      <point x="329.502" y="161" type="curve"/>
      <point x="396.664" y="585" type="line"/>
      <point x="449.664" y="585"/>
      <point x="479.011" y="543"/>
      <point x="469.19" y="481" type="curve" smooth="yes"/>
      <point x="434.818" y="264" type="line" smooth="yes"/>
      <point x="424.997" y="202"/>
      <point x="382.502" y="161"/>
    </contour>
    <contour>
      <point x="183.19" y="481" type="line" smooth="yes"/>
      <point x="193.011" y="543"/>
      <point x="235.664" y="585"/>
      <point x="288.664" y="585" type="curve"/>
      <point x="221.502" y="161" type="line"/>
      <point x="168.502" y="161"/>
      <point x="138.997" y="202"/>
      <point x="148.818" y="264" type="curve" smooth="yes"/>
    </contour>
  </outline>
</glyph>
<glyph name="uni0427" format="2">
  <advance width="600" height="985"/>
  <unicode hex="0427"/>
  <outline>
    <contour>
      <point x="104.048" y="720" type="line"/>
      <point x="64.6064" y="471" type="line" smooth="yes"/>
      <point x="43.6976" y="339"/>
      <point x="115.392" y="255"/>
      <point x="250.392" y="255" type="curve" smooth="yes"/>
      <point x="375.392" y="255" type="line"/>
      <point x="335" y="0" type="line"/>
      <point x="485" y="0" type="line"/>
      <point x="599.048" y="720" type="line"/>
      <point x="449.048" y="720" type="line"/>
      <point x="396.776" y="390" type="line"/>
      <point x="306.776" y="390" type="line" smooth="yes"/>
      <point x="242.776" y="390"/>
      <point x="207.32" y="425"/>
      <point x="216.032" y="480" type="curve" smooth="yes"/>
      <point x="254.048" y="720" type="line"/>
    </contour>
  </outline>
</glyph>
<glyph name="uni0429" format="2">
  <advance width="600" height="985"/>
  <unicode hex="0429"/>
  <outline>
    <contour>
      <point x="99.048" y="720" type="line"/>
      <point x="-15" y="0" type="line"/>
      <point x="430" y="0" type="line"/>
      <point x="408.616" y="-135" type="line"/>
      <point x="508.616" y="-135" type="line"/>
      <point x="545.84" y="100" type="line"/>
      <point x="487.84" y="100" type="line"/>
      <point x="586.048" y="720" type="line"/>
      <point x="476.048" y="720" type="line"/>
      <point x="377.84" y="100" type="line"/>
      <point x="297.84" y="100" type="line"/>
      <point x="396.048" y="720" type="line"/>
      <point x="286.048" y="720" type="line"/>
      <point x="187.84" y="100" type="line"/>
      <point x="110.84" y="100" type="line"/>
      <point x="209.048" y="720" type="line"/>
    </contour>
  </outline>
</glyph>
<glyph name="uni042B" format="2">
  <advance width="600" height="985"/>
  <unicode hex="042B"/>
  <outline>
    <contour>
      <point x="94.048" y="720" type="line"/>
      <point x="-20" y="0" type="line"/>
      <point x="160" y="0" type="line" smooth="yes"/>
      <point x="274" y="0"/>
      <point x="362.038" y="76"/>
      <point x="380.096" y="190" type="curve" smooth="yes"/>
      <point x="390.234" y="254" type="line" smooth="yes"/>
      <point x="408.45" y="369"/>
      <point x="344.488" y="445"/>
      <point x="230.488" y="445" type="curve" smooth="yes"/>
      <point x="175.488" y="445" type="line"/>
      <point x="219.048" y="720" type="line"/>
    </contour>
    <contour>
      <point x="157.272" y="330" type="line"/>
      <point x="207.272" y="330" type="line" smooth="yes"/>
      <point x="251.272" y="330"/>
      <point x="272.837" y="302"/>
      <point x="264.917" y="252" type="curve" smooth="yes"/>
      <point x="255.254" y="191" type="line" smooth="yes"/>
      <point x="247.493" y="142"/>
      <point x="217.216" y="115"/>
      <point x="173.216" y="115" type="curve" smooth="yes"/>
      <point x="123.216" y="115" type="line"/>
    </contour>
    <contour>
      <point x="509.048" y="720" type="line"/>
      <point x="395" y="0" type="line"/>
      <point x="520" y="0" type="line"/>
      <point x="634.048" y="720" type="line"/>
    </contour>
  </outline>
</glyph>
<glyph name="uni042C" format="2">
  <advance width="600" height="985"/>
  <unicode hex="042C"/>
  <outline>
    <contour>
      <point x="409.165" y="222" type="curve" smooth="yes"/>
      <point x="418.194" y="279"/>
      <point x="381.896" y="315"/>
      <point x="314.896" y="315" type="curve" smooth="yes"/>
      <point x="219.896" y="315" type="line"/>
      <point x="190.592" y="130" type="line"/>
      <point x="285.592" y="130" type="line" smooth="yes"/>
      <point x="352.592" y="130"/>
      <point x="400.136" y="165"/>
    </contour>
    <contour>
      <point x="284.048" y="720" type="line"/>
      <point x="240.488" y="445" type="line"/>
      <point x="344.488" y="445" type="line" smooth="yes"/>
      <point x="499.488" y="445"/>
      <point x="582.024" y="360"/>
      <point x="560.323" y="223" type="curve" smooth="yes"/>
      <point x="538.622" y="86"/>
      <point x="429" y="0"/>
      <point x="275" y="0" type="curve" smooth="yes"/>
      <point x="20" y="0" type="line"/>
      <point x="134.048" y="720" type="line"/>
    </contour>
  </outline>
</glyph>
<glyph name="uni042D" format="2">
  <advance width="600" height="985"/>
  <unicode hex="042D"/>
  <outline>
    <contour>
      <point x="360.632" y="730" type="curve" smooth="yes"/>
      <point x="217.632" y="730"/>
      <point x="103.693" y="642"/>
      <point x="75.784" y="510" type="curve"/>
      <point x="225.784" y="510" type="line"/>
      <point x="234.021" y="562"/>
      <point x="278.248" y="595"/>
      <point x="339.248" y="595" type="curve" smooth="yes"/>
      <point x="401.248" y="595"/>
      <point x="436.021" y="562"/>
      <point x="427.942" y="511" type="curve" smooth="yes"/>
      <point x="380.264" y="210" type="line" smooth="yes"/>
      <point x="372.027" y="158"/>
      <point x="326.8" y="125"/>
      <point x="264.8" y="125" type="curve" smooth="yes"/>
      <point x="202.8" y="125"/>
      <point x="169.869" y="157"/>
      <point x="178.264" y="210" type="curve"/>
      <point x="28.264" y="210" type="line"/>
      <point x="14.3552" y="78"/>
      <point x="100.416" y="-10"/>
      <point x="243.416" y="-10" type="curve" smooth="yes"/>
      <point x="394.416" y="-10"/>
      <point x="509.83" y="81"/>
      <point x="530.264" y="210" type="curve" smooth="yes"/>
      <point x="577.942" y="511" type="line" smooth="yes"/>
      <point x="598.376" y="640"/>
      <point x="511.632" y="730"/>
    </contour>
    <contour>
      <point x="193.362" y="299" type="line"/>
      <point x="433.362" y="299" type="line"/>
      <point x="454.112" y="430" type="line"/>
      <point x="214.112" y="430" type="line"/>
    </contour>
  </outline>
</glyph>
<glyph name="uni0438" format="2">
  <advance width="600" height="985"/>
  <unicode hex="0438"/>
  <outline>
    <contour>
      <point x="271.008" y="120" type="curve" smooth="yes"/>
      <point x="324.008" y="120"/>
      <point x="363.552" y="155"/>
      <point x="372.264" y="210" type="curve"/>
      <point x="392.264" y="210" type="line"/>
      <point x="374.048" y="95" type="line"/>
      <point x="352.048" y="95" type="line"/>
      <point x="332.594" y="29"/>
      <point x="274.416" y="-10"/>
      <point x="194.416" y="-10" type="curve" smooth="yes"/>
      <point x="87.416" y="-10"/>
      <point x="26.7216" y="74"/>
      <point x="45.888" y="195" type="curve" smooth="yes"/>
      <point x="102.12" y="550" type="line"/>
      <point x="252.12" y="550" type="line"/>
      <point x="198.264" y="210" type="line"/>
      <point x="189.552" y="155"/>
      <point x="218.008" y="120"/>
    </contour>
    <contour>
      <point x="427.12" y="550" type="line"/>
      <point x="577.12" y="550" type="line"/>
      <point x="490" y="0" type="line"/>
      <point x="345" y="0" type="line"/>
      <point x="360.523" y="98" type="line"/>
      <point x="355.523" y="98" type="line"/>
    </contour>
  </outline>
</glyph>
<glyph name="uni043D" format="2">
  <advance width="600" height="985"/>
  <unicode hex="043D"/>
  <outline>
    <contour>
      <point x="422.12" y="550" type="line"/>
      <point x="389.806" y="346" type="line"/>
      <point x="219.806" y="346" type="line"/>
      <point x="252.12" y="550" type="line"/>
      <point x="102.12" y="550" type="line"/>
      <point x="15" y="0" type="line"/>
      <point x="165" y="0" type="line"/>
      <point x="197.63" y="206" type="line"/>
      <point x="367.63" y="206" type="line"/>
      <point x="335" y="0" type="line"/>
      <point x="485" y="0" type="line"/>
      <point x="572.12" y="550" type="line"/>
    </contour>
  </outline>
</glyph>
<glyph name="uni043F" format="2">
  <advance width="600" height="985"/>
  <unicode hex="043F"/>
  <outline>
    <contour>
      <point x="102.12" y="550" type="line"/>
      <point x="15" y="0" type="line"/>
      <point x="165" y="0" type="line"/>
      <point x="229.944" y="410" type="line"/>
      <point x="399.944" y="410" type="line"/>
      <point x="335" y="0" type="line"/>
      <point x="485" y="0" type="line"/>
      <point x="572.12" y="550" type="line"/>
    </contour>
  </outline>
</glyph>
<glyph name="uni0442" format="2">
  <advance width="600" height="985"/>
  <unicode hex="0442"/>
  <outline>
    <contour>
      <point x="72.12" y="550" type="line"/>
      <point x="602.12" y="550" type="line"/>
      <point x="579.944" y="410" type="line"/>
      <point x="389.944" y="410" type="line"/>
      <point x="325" y="0" type="line"/>
      <point x="175" y="0" type="line"/>
      <point x="239.944" y="410" type="line"/>
      <point x="49.944" y="410" type="line"/>
    </contour>
  </outline>
</glyph>
<glyph name="uni0444" format="2">
  <advance width="600" height="985"/>
  <unicode hex="0444"/>
  <outline>
    <contour>
      <point x="35.2816" y="349" type="curve" smooth="yes"/>
      <point x="15.1648" y="222" type="line" smooth="yes"/>
      <point x="-5.2688" y="93"/>
      <point x="62.376" y="15"/>
      <point x="193.376" y="15" type="curve"/>
      <point x="187.832" y="-20" type="line" smooth="yes"/>
      <point x="183.238" y="-49"/>
      <point x="164.704" y="-65"/>
      <point x="133.704" y="-65" type="curve" smooth="yes"/>
      <point x="23.704" y="-65" type="line"/>
      <point x="7.072" y="-170" type="line"/>
      <point x="120.072" y="-170" type="line" smooth="yes"/>
      <point x="223.072" y="-170"/>
      <point x="292.784" y="-115"/>
      <point x="307.832" y="-20" type="curve" smooth="yes"/>
      <point x="313.376" y="15" type="line"/>
      <point x="442.376" y="15"/>
      <point x="534.573" y="92"/>
      <point x="555.165" y="222" type="curve" smooth="yes"/>
      <point x="575.282" y="349" type="line" smooth="yes"/>
      <point x="595.398" y="476"/>
      <point x="527.912" y="555"/>
      <point x="398.912" y="555" type="curve"/>
      <point x="400.496" y="565" type="line" smooth="yes"/>
      <point x="405.565" y="597"/>
      <point x="424.416" y="615"/>
      <point x="453.416" y="615" type="curve" smooth="yes"/>
      <point x="568.416" y="615" type="line"/>
      <point x="585.048" y="720" type="line"/>
      <point x="470.048" y="720" type="line" smooth="yes"/>
      <point x="370.048" y="720"/>
      <point x="295.386" y="659"/>
      <point x="280.496" y="565" type="curve" smooth="yes"/>
      <point x="278.912" y="555" type="line"/>
      <point x="149.912" y="555"/>
      <point x="55.24" y="475"/>
    </contour>
    <contour>
      <point x="448.282" y="349" type="curve" smooth="yes"/>
      <point x="428.165" y="222" type="line" smooth="yes"/>
      <point x="419.453" y="167"/>
      <point x="382.067" y="133"/>
      <point x="328.067" y="133" type="curve"/>
      <point x="376.379" y="438" type="line"/>
      <point x="429.379" y="438"/>
      <point x="456.994" y="404"/>
    </contour>
    <contour>
      <point x="162.282" y="349" type="line" smooth="yes"/>
      <point x="170.994" y="404"/>
      <point x="209.379" y="438"/>
      <point x="262.379" y="438" type="curve"/>
      <point x="214.067" y="133" type="line"/>
      <point x="160.067" y="133"/>
      <point x="133.453" y="167"/>
      <point x="142.165" y="222" type="curve" smooth="yes"/>
    </contour>
  </outline>
</glyph>
<glyph name="uni0449" format="2">
  <advance width="600" height="985"/>
  <unicode hex="0449"/>
  <outline>
    <contour>
      <point x="77.12" y="550" type="line"/>
      <point x="191.12" y="550" type="line"/>
      <point x="129.344" y="160" type="line" smooth="yes"/>
      <point x="123.166" y="121"/>
      <point x="138.84" y="100"/>
      <point x="175.84" y="100" type="curve" smooth="yes"/>
      <point x="200.84" y="100" type="line"/>
      <point x="272.12" y="550" type="line"/>
      <point x="371.12" y="550" type="line"/>
      <point x="299.84" y="100" type="line"/>
      <point x="380.84" y="100" type="line"/>
      <point x="452.12" y="550" type="line"/>
      <point x="566.12" y="550" type="line"/>
      <point x="494.84" y="100" type="line"/>
      <point x="559.84" y="100" type="line"/>
      <point x="522.616" y="-135" type="line"/>
      <point x="392.616" y="-135" type="line"/>
      <point x="414" y="0" type="line"/>
      <point x="160" y="0" type="line" smooth="yes"/>
      <point x="53" y="0"/>
      <point x="-0.496" y="60"/>
      <point x="15.344" y="160" type="curve" smooth="yes"/>
    </contour>
  </outline>
</glyph>
<glyph name="uni044A" format="2">
  <advance width="600" height="985"/>
  <unicode hex="044A"/>
  <outline>
    <contour>
      <point x="241.838" y="201" type="line" smooth="yes"/>
      <point x="234.869" y="157"/>
      <point x="259.275" y="128"/>
      <point x="305.275" y="128" type="curve" smooth="yes"/>
      <point x="335.275" y="128" type="line" smooth="yes"/>
      <point x="377.275" y="128"/>
      <point x="408.552" y="155"/>
      <point x="414.492" y="192.5" type="curve" smooth="yes"/>
      <point x="420.432" y="230"/>
      <point x="397.709" y="257"/>
      <point x="355.709" y="257" type="curve" smooth="yes"/>
      <point x="250.709" y="257" type="line"/>
    </contour>
    <contour>
      <point x="93.68" y="200" type="curve" smooth="yes"/>
      <point x="127.261" y="412" type="line"/>
      <point x="17.2608" y="412" type="line"/>
      <point x="39.12" y="550" type="line"/>
      <point x="297.12" y="550" type="line"/>
      <point x="270.984" y="385" type="line"/>
      <point x="374.984" y="385" type="line" smooth="yes"/>
      <point x="512.984" y="385"/>
      <point x="581.738" y="314"/>
      <point x="562.571" y="193" type="curve" smooth="yes"/>
      <point x="543.722" y="74"/>
      <point x="449" y="0"/>
      <point x="315" y="0" type="curve" smooth="yes"/>
      <point x="285" y="0" type="line" smooth="yes"/>
      <point x="150" y="0"/>
      <point x="74.672" y="80"/>
    </contour>
  </outline>
</glyph>
<glyph name="uni044B" format="2">
  <advance width="600" height="985"/>
  <unicode hex="044B"/>
  <outline>
    <contour>
      <point x="157.768" y="270" type="line"/>
      <point x="140.978" y="164" type="line" smooth="yes"/>
      <point x="136.067" y="133"/>
      <point x="151.899" y="113"/>
      <point x="182.899" y="113" type="curve" smooth="yes"/>
      <point x="212.899" y="113"/>
      <point x="236.067" y="133"/>
      <point x="240.978" y="164" type="curve" smooth="yes"/>
      <point x="249.056" y="215" type="line" smooth="yes"/>
      <point x="254.283" y="248"/>
      <point x="235.768" y="270"/>
      <point x="202.768" y="270" type="curve" smooth="yes"/>
    </contour>
    <contour>
      <point x="472.12" y="550" type="line"/>
      <point x="595.12" y="550" type="line"/>
      <point x="508" y="0" type="line"/>
      <point x="385" y="0" type="line"/>
    </contour>
    <contour>
      <point x="79.12" y="550" type="line"/>
      <point x="202.12" y="550" type="line"/>
      <point x="175.667" y="383" type="line"/>
      <point x="219.667" y="383" type="line" smooth="yes"/>
      <point x="329.667" y="383"/>
      <point x="388.213" y="317"/>
      <point x="371.898" y="214" type="curve" smooth="yes"/>
      <point x="363.661" y="162" type="line" smooth="yes"/>
      <point x="348.296" y="65"/>
      <point x="268" y="0"/>
      <point x="164" y="0" type="curve" smooth="yes"/>
      <point x="60" y="0"/>
      <point x="2.1376" y="64"/>
      <point x="17.8192" y="163" type="curve" smooth="yes"/>
    </contour>
  </outline>
</glyph>
<glyph name="uni044D" format="2">
  <advance width="600" height="985"/>
  <unicode hex="044D"/>
  <outline>
    <contour>
      <point x="46.44" y="365" type="curve"/>
      <point x="196.44" y="365" type="line"/>
      <point x="210.459" y="403"/>
      <point x="257.736" y="430"/>
      <point x="310.736" y="430" type="curve" smooth="yes"/>
      <point x="372.736" y="430"/>
      <point x="407.984" y="400"/>
      <point x="399.272" y="345" type="curve" smooth="yes"/>
      <point x="376.938" y="204" type="line" smooth="yes"/>
      <point x="368.226" y="149"/>
      <point x="323.632" y="120"/>
      <point x="261.632" y="120" type="curve" smooth="yes"/>
      <point x="208.632" y="120"/>
      <point x="170.909" y="147"/>
      <point x="168.086" y="186" type="curve"/>
      <point x="18.0864" y="186" type="line"/>
      <point x="20.2368" y="67"/>
      <point x="108.04" y="-10"/>
      <point x="241.04" y="-10" type="curve" smooth="yes"/>
      <point x="392.04" y="-10"/>
      <point x="506.187" y="73"/>
      <point x="526.938" y="204" type="curve" smooth="yes"/>
      <point x="549.272" y="345" type="line" smooth="yes"/>
      <point x="570.022" y="476"/>
      <point x="482.328" y="560"/>
      <point x="331.328" y="560" type="curve" smooth="yes"/>
      <point x="198.328" y="560"/>
      <point x="86.1312" y="483"/>
    </contour>
    <contour>
      <point x="223.53" y="334" type="line"/>
      <point x="205.472" y="220" type="line"/>
      <point x="445.472" y="220" type="line"/>
      <point x="463.53" y="334" type="line"/>
    </contour>
  </outline>
</glyph>
<glyph name="uni044E" format="2">
  <advance width="600" height="985"/>
  <unicode hex="044E"/>
  <outline>
    <contour>
      <point x="-20" y="0" type="line"/>
      <point x="103" y="0" type="line"/>
      <point x="139.432" y="230" type="line"/>
      <point x="214.432" y="230" type="line"/>
      <point x="202.71" y="156" type="line" smooth="yes"/>
      <point x="186.87" y="56"/>
      <point x="235.416" y="-10"/>
      <point x="340.416" y="-10" type="curve" smooth="yes"/>
      <point x="445.416" y="-10"/>
      <point x="528.87" y="56"/>
      <point x="544.71" y="156" type="curve" smooth="yes"/>
      <point x="582.568" y="395" type="line" smooth="yes"/>
      <point x="598.408" y="495"/>
      <point x="536.704" y="560"/>
      <point x="430.704" y="560" type="curve" smooth="yes"/>
      <point x="325.704" y="560"/>
      <point x="256.25" y="494"/>
      <point x="240.568" y="395" type="curve" smooth="yes"/>
      <point x="229.48" y="325" type="line"/>
      <point x="154.48" y="325" type="line"/>
      <point x="190.12" y="550" type="line"/>
      <point x="67.12" y="550" type="line"/>
    </contour>
    <contour>
      <point x="413.28" y="450" type="curve" smooth="yes"/>
      <point x="445.28" y="450"/>
      <point x="464.637" y="427"/>
      <point x="459.568" y="395" type="curve" smooth="yes"/>
      <point x="421.71" y="156" type="line" smooth="yes"/>
      <point x="416.483" y="123"/>
      <point x="389.84" y="100"/>
      <point x="357.84" y="100" type="curve" smooth="yes"/>
      <point x="325.84" y="100"/>
      <point x="306.483" y="123"/>
      <point x="311.71" y="156" type="curve" smooth="yes"/>
      <point x="349.568" y="395" type="line" smooth="yes"/>
      <point x="354.637" y="427"/>
      <point x="381.28" y="450"/>
    </contour>
  </outline>
</glyph>
<glyph name="uni0454" format="2">
  <advance width="600" height="985"/>
  <unicode hex="0454"/>
  <outline>
    <contour>
      <point x="552.44" y="365" type="curve"/>
      <point x="402.44" y="365" type="line"/>
      <point x="400.459" y="403"/>
      <point x="361.736" y="430"/>
      <point x="308.736" y="430" type="curve" smooth="yes"/>
      <point x="246.736" y="430"/>
      <point x="201.984" y="400"/>
      <point x="193.272" y="345" type="curve" smooth="yes"/>
      <point x="170.938" y="204" type="line" smooth="yes"/>
      <point x="162.226" y="149"/>
      <point x="197.632" y="120"/>
      <point x="259.632" y="120" type="curve" smooth="yes"/>
      <point x="312.632" y="120"/>
      <point x="358.909" y="147"/>
      <point x="374.086" y="186" type="curve"/>
      <point x="524.086" y="186" type="line"/>
      <point x="484.237" y="67"/>
      <point x="372.04" y="-10"/>
      <point x="239.04" y="-10" type="curve" smooth="yes"/>
      <point x="88.04" y="-10"/>
      <point x="0.1872" y="73"/>
      <point x="20.9376" y="204" type="curve" smooth="yes"/>
      <point x="43.272" y="345" type="line" smooth="yes"/>
      <point x="64.0224" y="476"/>
      <point x="178.328" y="560"/>
      <point x="329.328" y="560" type="curve" smooth="yes"/>
      <point x="462.328" y="560"/>
      <point x="550.131" y="483"/>
    </contour>
    <contour>
      <point x="365.53" y="334" type="line"/>
      <point x="347.472" y="220" type="line"/>
      <point x="107.472" y="220" type="line"/>
      <point x="125.53" y="334" type="line"/>
    </contour>
  </outline>
</glyph>
<glyph name="uni045A" format="2">
  <advance width="600" height="985"/>
  <unicode hex="045A"/>
  <outline>
    <contour>
      <point x="77.12" y="550" type="line"/>
      <point x="-10" y="0" type="line"/>
      <point x="110" y="0" type="line"/>
      <point x="151.976" y="265" type="line"/>
      <point x="266.976" y="265" type="line"/>
      <point x="247.176" y="140" type="line" smooth="yes"/>
      <point x="232.762" y="49"/>
      <point x="291.416" y="-10"/>
      <point x="386.416" y="-10" type="curve" smooth="yes"/>
      <point x="480.416" y="-10"/>
      <point x="552.762" y="49"/>
      <point x="567.018" y="139" type="curve" smooth="yes"/>
      <point x="580.323" y="223" type="line" smooth="yes"/>
      <point x="594.738" y="314"/>
      <point x="540.4" y="375"/>
      <point x="444.4" y="375" type="curve" smooth="yes"/>
      <point x="404.4" y="375" type="line"/>
      <point x="432.12" y="550" type="line"/>
      <point x="312.12" y="550" type="line"/>
      <point x="284.4" y="375" type="line"/>
      <point x="169.4" y="375" type="line"/>
      <point x="197.12" y="550" type="line"/>
    </contour>
    <contour>
      <point x="386.818" y="264" type="line"/>
      <point x="426.818" y="264" type="line" smooth="yes"/>
      <point x="450.818" y="264"/>
      <point x="464.283" y="248"/>
      <point x="460.482" y="224" type="curve" smooth="yes"/>
      <point x="447.176" y="140" type="line" smooth="yes"/>
      <point x="443.374" y="116"/>
      <point x="424.84" y="100"/>
      <point x="400.84" y="100" type="curve" smooth="yes"/>
      <point x="376.84" y="100"/>
      <point x="363.374" y="116"/>
      <point x="367.176" y="140" type="curve" smooth="yes"/>
    </contour>
  </outline>
</glyph>
<glyph name="uni045B" format="2">
  <advance width="600" height="985"/>
  <unicode hex="045B"/>
  <outline>
    <contour>
      <point x="249.704" y="550" type="line"/>
      <point x="242.576" y="505" type="line" smooth="yes"/>
      <point x="236.082" y="464"/>
      <point x="217.528" y="410"/>
      <point x="218.528" y="410" type="curve"/>
      <point x="229.528" y="410" type="line"/>
      <point x="248.982" y="476"/>
      <point x="307.16" y="515"/>
      <point x="387.16" y="515" type="curve" smooth="yes"/>
      <point x="498.16" y="515"/>
      <point x="555.646" y="436"/>
      <point x="535.688" y="310" type="curve" smooth="yes"/>
      <point x="486.584" y="0" type="line"/>
      <point x="336.584" y="0" type="line"/>
      <point x="383.312" y="295" type="line" smooth="yes"/>
      <point x="392.024" y="350"/>
      <point x="363.568" y="385"/>
      <point x="310.568" y="385" type="curve" smooth="yes"/>
      <point x="257.568" y="385"/>
      <point x="218.024" y="350"/>
      <point x="209.312" y="295" type="curve" smooth="yes"/>
      <point x="162.584" y="0" type="line"/>
      <point x="12.584" y="0" type="line"/>
      <point x="99.704" y="550" type="line"/>
      <point x="38.704" y="550" type="line"/>
      <point x="52.168" y="635" type="line"/>
      <point x="113.168" y="635" type="line"/>
      <point x="128.216" y="730" type="line"/>
      <point x="278.216" y="730" type="line"/>
      <point x="263.168" y="635" type="line"/>
      <point x="362.168" y="635" type="line"/>
      <point x="348.704" y="550" type="line"/>
    </contour>
  </outline>
</glyph>
<glyph name="uni04AE" format="2">
  <advance width="600"/>
  <unicode hex="04AE"/>
  <outline>
    <contour>
      <point x="491.048" y="720" type="line"/>
      <point x="649.048" y="720" type="line"/>
      <point x="364.6" y="250" type="line"/>
      <point x="325" y="0" type="line"/>
      <point x="175" y="0" type="line"/>
      <point x="214.6" y="250" type="line"/>
      <point x="79.048" y="720" type="line"/>
      <point x="234.048" y="720" type="line"/>
      <point x="300.656" y="465" type="line" smooth="yes"/>
      <point x="312.37" y="419"/>
      <point x="306.4" y="375"/>
      <point x="306.4" y="375" type="curve"/>
      <point x="313.4" y="375" type="line"/>
      <point x="313.4" y="375"/>
      <point x="321.37" y="419"/>
      <point x="347.656" y="465" type="curve" smooth="yes"/>
    </contour>
  </outline>
</glyph>
<glyph name="uni04AF" format="2">
  <advance width="600"/>
  <unicode hex="04AF"/>
  <outline>
    <contour>
      <point x="463.12" y="550" type="line"/>
      <point x="622.12" y="550" type="line"/>
      <point x="337.672" y="80" type="line"/>
      <point x="298.072" y="-170" type="line"/>
      <point x="148.072" y="-170" type="line"/>
      <point x="187.672" y="80" type="line"/>
      <point x="52.12" y="550" type="line"/>
      <point x="206.12" y="550" type="line"/>
      <point x="272.728" y="295" type="line" smooth="yes"/>
      <point x="284.442" y="249"/>
      <point x="278.472" y="205"/>
      <point x="278.472" y="205" type="curve"/>
      <point x="285.472" y="205" type="line"/>
      <point x="285.472" y="205"/>
      <point x="293.442" y="249"/>
      <point x="319.728" y="295" type="curve" smooth="yes"/>
    </contour>
  </outline>
</glyph>
<glyph name="uni04E8" format="2">
  <advance width="600"/>
  <unicode hex="04E8"/>
  <outline>
    <contour>
      <point x="248.416" y="-10" type="curve" smooth="yes"/>
      <point x="398.416" y="-10"/>
      <point x="514.83" y="81"/>
      <point x="536.056" y="215" type="curve" smooth="yes"/>
      <point x="582.15" y="506" type="line" smooth="yes"/>
      <point x="603.534" y="641"/>
      <point x="517.632" y="730"/>
      <point x="365.632" y="730" type="curve" smooth="yes"/>
      <point x="213.632" y="730"/>
      <point x="99.5344" y="641"/>
      <point x="78.1504" y="506" type="curve" smooth="yes"/>
      <point x="32.056" y="215" type="line" smooth="yes"/>
      <point x="10.5136" y="79"/>
      <point x="96.416" y="-10"/>
    </contour>
    <contour>
      <point x="409.52" y="300" type="line"/>
      <point x="396.848" y="220" type="line" smooth="yes"/>
      <point x="387.502" y="161"/>
      <point x="336.166" y="121"/>
      <point x="269.166" y="121" type="curve" smooth="yes"/>
      <point x="202.166" y="121"/>
      <point x="163.502" y="161"/>
      <point x="172.848" y="220" type="curve" smooth="yes"/>
      <point x="185.52" y="300" type="line"/>
    </contour>
    <contour>
      <point x="205.32" y="425" type="line"/>
      <point x="217.2" y="500" type="line" smooth="yes"/>
      <point x="226.704" y="560"/>
      <point x="278.04" y="600"/>
      <point x="345.04" y="600" type="curve" smooth="yes"/>
      <point x="412.04" y="600"/>
      <point x="450.704" y="560"/>
      <point x="441.2" y="500" type="curve" smooth="yes"/>
      <point x="429.32" y="425" type="line"/>
    </contour>
  </outline>
</glyph>
<glyph name="uni04E9" format="2">
  <advance width="600"/>
  <unicode hex="04E9"/>
  <outline>
    <contour>
      <point x="248.416" y="-10" type="curve" smooth="yes"/>
      <point x="397.416" y="-10"/>
      <point x="514.672" y="80"/>
      <point x="535.264" y="210" type="curve" smooth="yes"/>
      <point x="556.014" y="341" type="line" smooth="yes"/>
      <point x="576.606" y="471"/>
      <point x="488.704" y="560"/>
      <point x="338.704" y="560" type="curve" smooth="yes"/>
      <point x="188.704" y="560"/>
      <point x="72.6064" y="471"/>
      <point x="52.0144" y="341" type="curve" smooth="yes"/>
      <point x="31.264" y="210" type="line" smooth="yes"/>
      <point x="10.672" y="80"/>
      <point x="99.416" y="-10"/>
    </contour>
    <contour>
      <point x="403.432" y="230" type="line"/>
      <point x="400.264" y="210" type="line" smooth="yes"/>
      <point x="391.235" y="153"/>
      <point x="338.216" y="115"/>
      <point x="268.216" y="115" type="curve" smooth="yes"/>
      <point x="198.216" y="115"/>
      <point x="157.235" y="153"/>
      <point x="166.264" y="210" type="curve" smooth="yes"/>
      <point x="169.432" y="230" type="line"/>
    </contour>
    <contour>
      <point x="184.48" y="325" type="line"/>
      <point x="187.014" y="341" type="line" smooth="yes"/>
      <point x="195.885" y="397"/>
      <point x="248.904" y="435"/>
      <point x="318.904" y="435" type="curve" smooth="yes"/>
      <point x="388.904" y="435"/>
      <point x="429.885" y="397"/>
      <point x="421.014" y="341" type="curve" smooth="yes"/>
      <point x="418.48" y="325" type="line"/>
    </contour>
  </outline>
</glyph>
<glyph name="quoteright" format="2">
  <advance width="600" height="985"/>
  <unicode hex="2019"/>
  <outline>
    <contour>
      <point x="470" y="776" type="line"/>
      <point x="285" y="465" type="line"/>
      <point x="155" y="465" type="line"/>
      <point x="290" y="776" type="line"/>
    </contour>
  </outline>
</glyph>
<glyph name="quotedblright" format="2">
  <advance width="600" height="985"/>
  <unicode hex="201D"/>
  <outline>
    <contour>
      <point x="640" y="776" type="line"/>
      <point x="455" y="465" type="line"/>
      <point x="325" y="465" type="line"/>
      <point x="460" y="776" type="line"/>
    </contour>
    <contour>
      <point x="365" y="776" type="line"/>
      <point x="180" y="465" type="line"/>
      <point x="50" y="465" type="line"/>
      <point x="185" y="776" type="line"/>
    </contour>
  </outline>
</glyph>
<glyph name="quotedblbase" format="2">
  <advance width="600" height="985"/>
  <unicode hex="201E"/>
  <outline>
    <contour>
      <point x="555" y="150" type="line"/>
      <point x="370" y="-161" type="line"/>
      <point x="240" y="-161" type="line"/>
      <point x="375" y="150" type="line"/>
    </contour>
    <contour>
      <point x="280" y="151" type="line"/>
      <point x="95" y="-160" type="line"/>
      <point x="-35" y="-160" type="line"/>
      <point x="100" y="151" type="line"/>
    </contour>
  </outline>
</glyph>
<glyph name="bullet" format="2">
  <advance width="600" height="985"/>
  <unicode hex="2022"/>
  <outline>
    <contour>
      <point x="172.816" y="365" type="curve" smooth="yes"/>
      <point x="185.433" y="444.65"/>
      <point x="249.55" y="500"/>
      <point x="329.2" y="500" type="curve" smooth="yes"/>
      <point x="408.85" y="500"/>
      <point x="455.433" y="444.65"/>
      <point x="442.816" y="365" type="curve" smooth="yes"/>
      <point x="430.199" y="285.35"/>
      <point x="366.082" y="230"/>
      <point x="286.432" y="230" type="curve" smooth="yes"/>
      <point x="206.782" y="230"/>
      <point x="160.199" y="285.35"/>
    </contour>
  </outline>
</glyph>
<glyph name="perthousand" format="2">
  <advance width="600" height="985"/>
  <unicode hex="2030"/>
  <outline>
    <contour>
      <point x="556.2" y="500" type="line"/>
      <point x="556.37" y="419" type="line"/>
      <point x="4.0256" y="259" type="line"/>
      <point x="3.856" y="340" type="line"/>
    </contour>
    <contour>
      <point x="163.349" y="105" type="curve" smooth="yes"/>
      <point x="175.229" y="180" type="line" smooth="yes"/>
      <point x="186.317" y="250"/>
      <point x="244.653" y="290"/>
      <point x="309.653" y="290" type="curve" smooth="yes"/>
      <point x="384.653" y="290"/>
      <point x="390.515" y="226"/>
      <point x="390.515" y="226" type="curve"/>
      <point x="390.515" y="226"/>
      <point x="417.653" y="290"/>
      <point x="492.653" y="290" type="curve" smooth="yes"/>
      <point x="557.653" y="290"/>
      <point x="603.317" y="250"/>
      <point x="592.229" y="180" type="curve" smooth="yes"/>
      <point x="580.349" y="105" type="line" smooth="yes"/>
      <point x="569.261" y="35"/>
      <point x="510.925" y="-5"/>
      <point x="445.925" y="-5" type="curve" smooth="yes"/>
      <point x="370.925" y="-5"/>
      <point x="365.062" y="59"/>
      <point x="365.062" y="59" type="curve"/>
      <point x="365.062" y="59"/>
      <point x="337.925" y="-5"/>
      <point x="262.925" y="-5" type="curve" smooth="yes"/>
      <point x="197.925" y="-5"/>
      <point x="152.261" y="35"/>
    </contour>
    <contour>
      <point x="422.229" y="180" type="curve" smooth="yes"/>
      <point x="410.349" y="105" type="line" smooth="yes"/>
      <point x="406.23" y="79"/>
      <point x="421.379" y="61"/>
      <point x="449.379" y="61" type="curve" smooth="yes"/>
      <point x="474.379" y="61"/>
      <point x="494.23" y="79"/>
      <point x="498.349" y="105" type="curve" smooth="yes"/>
      <point x="510.229" y="180" type="line" smooth="yes"/>
      <point x="514.347" y="206"/>
      <point x="500.198" y="224"/>
      <point x="475.198" y="224" type="curve" smooth="yes"/>
      <point x="447.198" y="224"/>
      <point x="426.347" y="206"/>
    </contour>
    <contour>
      <point x="281.379" y="61" type="curve" smooth="yes"/>
      <point x="309.379" y="61"/>
      <point x="328.23" y="79"/>
      <point x="332.349" y="105" type="curve" smooth="yes"/>
      <point x="344.229" y="180" type="line" smooth="yes"/>
      <point x="348.347" y="206"/>
      <point x="335.198" y="224"/>
      <point x="307.198" y="224" type="curve" smooth="yes"/>
      <point x="282.198" y="224"/>
      <point x="261.347" y="206"/>
      <point x="257.229" y="180" type="curve" smooth="yes"/>
      <point x="245.349" y="105" type="line" smooth="yes"/>
      <point x="241.23" y="79"/>
      <point x="256.379" y="61"/>
    </contour>
    <contour>
      <point x="175.198" y="656" type="curve" smooth="yes"/>
      <point x="148.198" y="656"/>
      <point x="127.347" y="638"/>
      <point x="122.912" y="610" type="curve" smooth="yes"/>
      <point x="112.616" y="545" type="line" smooth="yes"/>
      <point x="108.339" y="518"/>
      <point x="123.488" y="500"/>
      <point x="150.488" y="500" type="curve" smooth="yes"/>
      <point x="177.488" y="500"/>
      <point x="198.339" y="518"/>
      <point x="202.616" y="545" type="curve" smooth="yes"/>
      <point x="212.912" y="610" type="line" smooth="yes"/>
      <point x="217.347" y="638"/>
      <point x="202.198" y="656"/>
    </contour>
    <contour>
      <point x="139.4" y="430" type="curve" smooth="yes"/>
      <point x="61.4" y="430"/>
      <point x="16.6864" y="476"/>
      <point x="27.616" y="545" type="curve" smooth="yes"/>
      <point x="37.912" y="610" type="line" smooth="yes"/>
      <point x="48.8416" y="679"/>
      <point x="108.128" y="725"/>
      <point x="186.128" y="725" type="curve" smooth="yes"/>
      <point x="264.128" y="725"/>
      <point x="308.842" y="679"/>
      <point x="297.912" y="610" type="curve" smooth="yes"/>
      <point x="287.616" y="545" type="line" smooth="yes"/>
      <point x="276.686" y="476"/>
      <point x="217.4" y="430"/>
    </contour>
  </outline>
</glyph>
<glyph name="guilsinglleft" format="2">
  <advance width="600" height="985"/>
  <unicode hex="2039"/>
  <outline>
    <contour>
      <point x="134.352" y="280" type="line"/>
      <point x="261.336" y="40" type="line"/>
      <point x="408.336" y="40" type="line"/>
      <point x="299.65" y="244" type="line" smooth="yes"/>
      <point x="285.768" y="270"/>
      <point x="274.194" y="279"/>
      <point x="274.194" y="279" type="curve"/>
      <point x="274.51" y="281" type="line"/>
      <point x="274.51" y="281"/>
      <point x="294.778" y="289"/>
      <point x="318.054" y="316" type="curve" smooth="yes"/>
      <point x="491.368" y="520" type="line"/>
      <point x="337.368" y="520" type="line"/>
    </contour>
  </outline>
</glyph>
<glyph name="guilsinglright" format="2">
  <advance width="600" height="985"/>
  <unicode hex="203A"/>
  <outline>
    <contour>
      <point x="454.352" y="280" type="line"/>
      <point x="251.336" y="40" type="line"/>
      <point x="97.336" y="40" type="line"/>
      <point x="270.65" y="244" type="line" smooth="yes"/>
      <point x="292.768" y="270"/>
      <point x="311.194" y="279"/>
      <point x="311.194" y="279" type="curve"/>
      <point x="311.51" y="281" type="line"/>
      <point x="311.51" y="281"/>
      <point x="303.778" y="289"/>
      <point x="289.054" y="316" type="curve" smooth="yes"/>
      <point x="180.368" y="520" type="line"/>
      <point x="327.368" y="520" type="line"/>
    </contour>
  </outline>
</glyph>
<glyph name="uni2070" format="2">
  <advance width="600" height="985"/>
  <unicode hex="2070"/>
  <outline>
    <contour>
      <point x="350.584" y="695" type="curve" smooth="yes"/>
      <point x="314.584" y="695"/>
      <point x="286.782" y="671"/>
      <point x="281.08" y="635" type="curve" smooth="yes"/>
      <point x="270.784" y="570" type="line" smooth="yes"/>
      <point x="265.082" y="534"/>
      <point x="285.28" y="510"/>
      <point x="321.28" y="510" type="curve" smooth="yes"/>
      <point x="357.28" y="510"/>
      <point x="385.082" y="534"/>
      <point x="390.784" y="570" type="curve" smooth="yes"/>
      <point x="401.08" y="635" type="line" smooth="yes"/>
      <point x="406.782" y="671"/>
      <point x="386.584" y="695"/>
    </contour>
    <contour>
      <point x="309.4" y="435" type="curve" smooth="yes"/>
      <point x="225.4" y="435"/>
      <point x="177.954" y="489"/>
      <point x="190.784" y="570" type="curve" smooth="yes"/>
      <point x="201.08" y="635" type="line" smooth="yes"/>
      <point x="213.91" y="716"/>
      <point x="278.464" y="770"/>
      <point x="362.464" y="770" type="curve" smooth="yes"/>
      <point x="446.464" y="770"/>
      <point x="493.91" y="716"/>
      <point x="481.08" y="635" type="curve" smooth="yes"/>
      <point x="470.784" y="570" type="line" smooth="yes"/>
      <point x="457.954" y="489"/>
      <point x="393.4" y="435"/>
    </contour>
  </outline>
</glyph>
<glyph name="uni2074" format="2">
  <advance width="600" height="985"/>
  <unicode hex="2074"/>
  <outline>
    <contour>
      <point x="287.822" y="586" type="line"/>
      <point x="285.288" y="570" type="line"/>
      <point x="361.288" y="570" type="line"/>
      <point x="372.218" y="639" type="line"/>
      <point x="462.218" y="639" type="line"/>
      <point x="430.696" y="440" type="line"/>
      <point x="340.696" y="440" type="line"/>
      <point x="350.2" y="500" type="line"/>
      <point x="184.2" y="500" type="line"/>
      <point x="200.04" y="600" type="line"/>
      <point x="352.176" y="765" type="line"/>
      <point x="451.176" y="765" type="line"/>
    </contour>
  </outline>
</glyph>
<glyph name="Euro" format="2">
  <advance width="600" height="985"/>
  <unicode hex="20AC"/>
  <outline>
    <component base="C" xOffset="10"/>
    <contour>
      <point x="43.408" y="495" type="line"/>
      <point x="388.408" y="495" type="line"/>
      <point x="373.36" y="400" type="line"/>
      <point x="28.36" y="400" type="line"/>
    </contour>
    <contour>
      <point x="15.688" y="320" type="line"/>
      <point x="360.688" y="320" type="line"/>
      <point x="345.64" y="225" type="line"/>
      <point x="0.64" y="225" type="line"/>
    </contour>
  </outline>
</glyph>
<glyph name="uni2116" format="2">
  <advance width="600" height="985"/>
  <unicode hex="2116"/>
  <outline>
    <contour>
      <point x="427.048" y="720" type="line"/>
      <point x="313" y="0" type="line"/>
      <point x="173" y="0" type="line"/>
      <point x="148.826" y="384" type="line" smooth="yes"/>
      <point x="144.181" y="462"/>
      <point x="149.624" y="610"/>
      <point x="149.624" y="610" type="curve"/>
      <point x="135.624" y="610" type="line"/>
      <point x="135.624" y="610"/>
      <point x="130.936" y="290"/>
      <point x="111.928" y="170" type="curve" smooth="yes"/>
      <point x="85" y="0" type="line"/>
      <point x="-35" y="0" type="line"/>
      <point x="79.048" y="720" type="line"/>
      <point x="219.048" y="720" type="line"/>
      <point x="243.381" y="337" type="line" smooth="yes"/>
      <point x="247.768" y="270"/>
      <point x="244.424" y="110"/>
      <point x="244.424" y="110" type="curve"/>
      <point x="258.424" y="110" type="line"/>
      <point x="259.424" y="110"/>
      <point x="261.112" y="430"/>
      <point x="280.12" y="550" type="curve" smooth="yes"/>
      <point x="307.048" y="720" type="line"/>
    </contour>
    <contour>
      <point x="544.544" y="660" type="curve" smooth="yes"/>
      <point x="532.544" y="660"/>
      <point x="523.277" y="652"/>
      <point x="521.218" y="639" type="curve" smooth="yes"/>
      <point x="481.934" y="391" type="line" smooth="yes"/>
      <point x="479.875" y="378"/>
      <point x="486.608" y="370"/>
      <point x="498.608" y="370" type="curve" smooth="yes"/>
      <point x="510.608" y="370"/>
      <point x="519.875" y="378"/>
      <point x="521.934" y="391" type="curve" smooth="yes"/>
      <point x="561.218" y="639" type="line" smooth="yes"/>
      <point x="563.277" y="652"/>
      <point x="556.544" y="660"/>
    </contour>
    <contour>
      <point x="487.52" y="300" type="curve" smooth="yes"/>
      <point x="430.52" y="300"/>
      <point x="398.539" y="338"/>
      <point x="407.568" y="395" type="curve" smooth="yes"/>
      <point x="445.584" y="635" type="line" smooth="yes"/>
      <point x="454.613" y="692"/>
      <point x="498.632" y="730"/>
      <point x="555.632" y="730" type="curve" smooth="yes"/>
      <point x="612.632" y="730"/>
      <point x="644.613" y="692"/>
      <point x="635.584" y="635" type="curve" smooth="yes"/>
      <point x="597.568" y="395" type="line" smooth="yes"/>
      <point x="588.539" y="338"/>
      <point x="544.52" y="300"/>
    </contour>
  </outline>
</glyph>
<glyph name="arrowleft" format="2">
  <advance width="600"/>
  <unicode hex="2190"/>
  <outline>
    <contour>
      <point x="40" y="330" type="line"/>
      <point x="271" y="625" type="line"/>
      <point x="377" y="625" type="line"/>
      <point x="215" y="420" type="line" smooth="yes"/>
      <point x="197" y="397"/>
      <point x="170" y="375"/>
      <point x="170" y="375" type="curve"/>
      <point x="170" y="366" type="line"/>
      <point x="170" y="366"/>
      <point x="210" y="370"/>
      <point x="240" y="370" type="curve" smooth="yes"/>
      <point x="570" y="370" type="line"/>
      <point x="570" y="290" type="line"/>
      <point x="240" y="290" type="line" smooth="yes"/>
      <point x="210" y="290"/>
      <point x="170" y="295"/>
      <point x="170" y="295" type="curve"/>
      <point x="170" y="286" type="line"/>
      <point x="170" y="286"/>
      <point x="192" y="267"/>
      <point x="215" y="239" type="curve" smooth="yes"/>
      <point x="377" y="35" type="line"/>
      <point x="272" y="35" type="line"/>
    </contour>
  </outline>
  <guideline angle="90" x="-663" y="0"/>
</glyph>
<glyph name="universal" format="2">
  <advance width="600"/>
  <unicode hex="2200"/>
  <outline>
    <contour>
      <point x="348" y="0" type="line" name="at01"/>
      <point x="148" y="0" type="line"/>
      <point x="74.048" y="720" type="line" name="ab01"/>
      <point x="226.048" y="720" type="line"/>
      <point x="237.912" y="555" type="line" name="dv01"/>
      <point x="438.912" y="555" type="line"/>
      <point x="503.048" y="720" type="line" name="ab02"/>
      <point x="654.048" y="720" type="line"/>
    </contour>
    <contour>
      <point x="393.379" y="438" type="line"/>
      <point x="247.379" y="438" type="line" name="dv02"/>
      <point x="264.838" y="201" type="line" smooth="yes"/>
      <point x="267.502" y="161"/>
      <point x="263.84" y="100"/>
      <point x="263.84" y="100" type="curve"/>
      <point x="269.84" y="100" type="line"/>
      <point x="269.84" y="100"/>
      <point x="286.502" y="161"/>
      <point x="301.838" y="201" type="curve" smooth="yes"/>
    </contour>
  </outline>
</glyph>
<glyph name="existential" format="2">
  <advance width="600"/>
  <unicode hex="2203"/>
  <outline>
    <contour>
      <point x="599.048" y="720" type="line" name="at01"/>
      <point x="144.048" y="720" type="line"/>
      <point x="123.456" y="590" type="line" name="sv01"/>
      <point x="428.456" y="590" type="line" name="dh01"/>
      <point x="403.746" y="434" type="line"/>
      <point x="133.746" y="434" type="line" name="dv02"/>
      <point x="113.154" y="304" type="line" name="dv01"/>
      <point x="383.154" y="304" type="line" name="sh01"/>
      <point x="355.592" y="130" type="line" name="sv02"/>
      <point x="50.592" y="130" type="line"/>
      <point x="30" y="0" type="line" name="ab01"/>
      <point x="485" y="0" type="line"/>
    </contour>
  </outline>
</glyph>
<glyph name="element" format="2">
  <advance width="600"/>
  <unicode hex="2208"/>
  <outline>
    <contour>
      <point x="608.952" y="530" type="line" name="dh02"/>
      <point x="303.952" y="530" type="line" smooth="yes"/>
      <point x="241.952" y="530"/>
      <point x="197.933" y="492"/>
      <point x="188.112" y="430" type="curve"/>
      <point x="186.528" y="420" type="line"/>
      <point x="591.528" y="420" type="line" name="sv04"/>
      <point x="572.362" y="299" type="line" name="dv03"/>
      <point x="167.362" y="299" type="line"/>
      <point x="165.936" y="290" type="line" name="sv03"/>
      <point x="156.115" y="228"/>
      <point x="188.096" y="190"/>
      <point x="250.096" y="190" type="curve" smooth="yes"/>
      <point x="555.096" y="190" type="line" name="dh03"/>
      <point x="534.504" y="60" type="line" name="dh04"/>
      <point x="229.504" y="60" type="line" smooth="yes"/>
      <point x="77.504" y="60"/>
      <point x="-1.8736" y="146"/>
      <point x="20.6192" y="288" type="curve" smooth="yes" name="sv01"/>
      <point x="43.4288" y="432" type="line" smooth="yes" name="dv01"/>
      <point x="65.7632" y="573"/>
      <point x="173.544" y="660"/>
      <point x="324.544" y="660" type="curve" smooth="yes"/>
      <point x="629.544" y="660" type="line" name="dh01"/>
    </contour>
  </outline>
</glyph>
<glyph name="notelement" format="2">
  <advance width="600"/>
  <unicode hex="2209"/>
  <outline>
    <contour>
      <point x="500.012" y="780" type="line"/>
      <point x="593.113" y="780" type="line"/>
      <point x="183.999" y="-60" type="line"/>
      <point x="90.6417" y="-60" type="line"/>
    </contour>
    <contour>
      <point x="629.544" y="660" type="line" name="dh01"/>
      <point x="609.744" y="535" type="line" name="dh02"/>
      <point x="304.744" y="535" type="line" smooth="yes"/>
      <point x="242.744" y="535"/>
      <point x="192.933" y="492"/>
      <point x="183.112" y="430" type="curve" smooth="yes"/>
      <point x="181.053" y="417" type="line"/>
      <point x="591.053" y="417" type="line" name="sv04"/>
      <point x="572.837" y="302" type="line" name="dv03"/>
      <point x="162.837" y="302" type="line"/>
      <point x="160.936" y="290" type="line" smooth="yes" name="sv03"/>
      <point x="151.115" y="228"/>
      <point x="187.304" y="185"/>
      <point x="249.304" y="185" type="curve" smooth="yes"/>
      <point x="554.304" y="185" type="line" name="dh03"/>
      <point x="534.504" y="60" type="line" name="dh04"/>
      <point x="229.504" y="60" type="line" smooth="yes"/>
      <point x="77.504" y="60"/>
      <point x="-1.8736" y="146"/>
      <point x="20.6192" y="288" type="curve" smooth="yes" name="sv01"/>
      <point x="43.4288" y="432" type="line" smooth="yes" name="dv01"/>
      <point x="65.7632" y="573"/>
      <point x="173.544" y="660"/>
      <point x="324.544" y="660" type="curve" smooth="yes"/>
    </contour>
  </outline>
</glyph>
<glyph name="suchthat" format="2">
  <advance width="600"/>
  <unicode hex="220B"/>
  <outline>
    <contour>
      <point x="58.952" y="530" type="line" name="dh02"/>
      <point x="79.544" y="660" type="line" name="dh01"/>
      <point x="384.544" y="660" type="line" smooth="yes"/>
      <point x="535.544" y="660"/>
      <point x="615.763" y="573"/>
      <point x="593.429" y="432" type="curve" smooth="yes" name="dv01"/>
      <point x="570.619" y="288" type="line" smooth="yes" name="sv01"/>
      <point x="548.126" y="146"/>
      <point x="441.504" y="60"/>
      <point x="289.504" y="60" type="curve" smooth="yes"/>
      <point x="-15.496" y="60" type="line" name="dh04"/>
      <point x="5.096" y="190" type="line" name="dh03"/>
      <point x="310.096" y="190" type="line" smooth="yes"/>
      <point x="372.096" y="190"/>
      <point x="416.115" y="228"/>
      <point x="425.936" y="290" type="curve" smooth="yes" name="sv03"/>
      <point x="427.362" y="299" type="line"/>
      <point x="22.3616" y="299" type="line" name="dv03"/>
      <point x="41.528" y="420" type="line" name="sv04"/>
      <point x="446.528" y="420" type="line"/>
      <point x="448.112" y="430" type="line" smooth="yes"/>
      <point x="457.933" y="492"/>
      <point x="425.952" y="530"/>
      <point x="363.952" y="530" type="curve" smooth="yes"/>
    </contour>
  </outline>
</glyph>
<glyph name="uni220C" format="2">
  <advance width="600"/>
  <unicode hex="220C"/>
  <outline>
    <contour>
      <point x="430.012" y="780" type="line"/>
      <point x="523.406" y="780" type="line"/>
      <point x="113.999" y="-60" type="line"/>
      <point x="20.9348" y="-60" type="line"/>
    </contour>
    <contour>
      <point x="79.544" y="660" type="line" name="dh01"/>
      <point x="384.544" y="660" type="line" smooth="yes"/>
      <point x="535.544" y="660"/>
      <point x="615.763" y="573"/>
      <point x="593.429" y="432" type="curve" smooth="yes" name="dv01"/>
      <point x="570.619" y="288" type="line" smooth="yes" name="sv01"/>
      <point x="548.126" y="146"/>
      <point x="441.504" y="60"/>
      <point x="289.504" y="60" type="curve" smooth="yes"/>
      <point x="-15.496" y="60" type="line" name="dh04"/>
      <point x="4.304" y="185" type="line" name="dh03"/>
      <point x="309.304" y="185" type="line" smooth="yes"/>
      <point x="371.304" y="185"/>
      <point x="421.115" y="228"/>
      <point x="430.936" y="290" type="curve" smooth="yes" name="sv03"/>
      <point x="432.837" y="302" type="line"/>
      <point x="22.8368" y="302" type="line" name="dv03"/>
      <point x="41.0528" y="417" type="line" name="sv04"/>
      <point x="451.053" y="417" type="line"/>
      <point x="453.112" y="430" type="line" smooth="yes"/>
      <point x="462.933" y="492"/>
      <point x="426.744" y="535"/>
      <point x="364.744" y="535" type="curve" smooth="yes"/>
      <point x="59.744" y="535" type="line" name="dh02"/>
    </contour>
  </outline>
</glyph>
<glyph name="uni2210" format="2">
  <advance width="600"/>
  <unicode hex="2210"/>
  <outline>
    <contour>
      <point x="15" y="0" type="line"/>
      <point x="485" y="0" type="line"/>
      <point x="599.048" y="720" type="line"/>
      <point x="449.048" y="720" type="line"/>
      <point x="357.176" y="140" type="line"/>
      <point x="187.176" y="140" type="line"/>
      <point x="279.048" y="720" type="line"/>
      <point x="129.048" y="720" type="line"/>
    </contour>
  </outline>
</glyph>
<glyph name="summation" format="2">
  <advance width="600" height="985"/>
  <unicode hex="2211"/>
  <outline>
    <contour>
      <point x="463.072" y="-170" type="line"/>
      <point x="485.09" y="-31" type="line"/>
      <point x="260.09" y="-31" type="line"/>
      <point x="186.456" y="-35" type="line"/>
      <point x="186.773" y="-33" type="line"/>
      <point x="448.106" y="209" type="line"/>
      <point x="469.806" y="346" type="line"/>
      <point x="279.347" y="583" type="line"/>
      <point x="279.664" y="585" type="line"/>
      <point x="352.03" y="581" type="line"/>
      <point x="582.03" y="581" type="line"/>
      <point x="604.048" y="720" type="line"/>
      <point x="119.048" y="720" type="line"/>
      <point x="96.7136" y="579" type="line"/>
      <point x="330.619" y="288" type="line"/>
      <point x="0.4064" y="-29" type="line"/>
      <point x="-21.928" y="-170" type="line"/>
    </contour>
  </outline>
</glyph>
<glyph name="infinity" format="2">
  <advance width="600" height="985"/>
  <unicode hex="221E"/>
  <outline>
    <contour>
      <point x="201.992" y="505" type="curve" smooth="yes"/>
      <point x="110.992" y="505"/>
      <point x="40.6464" y="446"/>
      <point x="27.816" y="365" type="curve" smooth="yes"/>
      <point x="17.52" y="300" type="line" smooth="yes"/>
      <point x="4.2144" y="216"/>
      <point x="49.344" y="160"/>
      <point x="131.344" y="160" type="curve" smooth="yes"/>
      <point x="237.344" y="160"/>
      <point x="265.026" y="259"/>
      <point x="265.026" y="259" type="curve"/>
      <point x="270.026" y="259" type="line"/>
      <point x="285.046" y="196"/>
      <point x="333.344" y="160"/>
      <point x="403.344" y="160" type="curve" smooth="yes"/>
      <point x="494.344" y="160"/>
      <point x="564.69" y="219"/>
      <point x="577.52" y="300" type="curve" smooth="yes"/>
      <point x="587.816" y="365" type="line" smooth="yes"/>
      <point x="601.122" y="449"/>
      <point x="555.992" y="505"/>
      <point x="473.992" y="505" type="curve" smooth="yes"/>
      <point x="367.992" y="505"/>
      <point x="340.31" y="406"/>
      <point x="340.31" y="406" type="curve"/>
      <point x="335.31" y="406" type="line"/>
      <point x="320.29" y="469"/>
      <point x="271.992" y="505"/>
    </contour>
    <contour>
      <point x="441.528" y="420" type="curve" smooth="yes"/>
      <point x="474.528" y="420"/>
      <point x="493.043" y="398"/>
      <point x="487.816" y="365" type="curve" smooth="yes"/>
      <point x="477.52" y="300" type="line" smooth="yes"/>
      <point x="472.293" y="267"/>
      <point x="446.808" y="245"/>
      <point x="413.808" y="245" type="curve" smooth="yes"/>
      <point x="386.808" y="245"/>
      <point x="365.184" y="260"/>
      <point x="358.936" y="290" type="curve" smooth="yes"/>
      <point x="346.598" y="351" type="line"/>
      <point x="346.598" y="351"/>
      <point x="373.528" y="420"/>
    </contour>
    <contour>
      <point x="191.528" y="420" type="curve" smooth="yes"/>
      <point x="218.528" y="420"/>
      <point x="238.994" y="404"/>
      <point x="246.4" y="375" type="curve"/>
      <point x="258.738" y="314" type="line"/>
      <point x="258.738" y="314"/>
      <point x="231.808" y="245"/>
      <point x="163.808" y="245" type="curve" smooth="yes"/>
      <point x="130.808" y="245"/>
      <point x="112.293" y="267"/>
      <point x="117.52" y="300" type="curve" smooth="yes"/>
      <point x="127.816" y="365" type="line" smooth="yes"/>
      <point x="133.043" y="398"/>
      <point x="158.528" y="420"/>
    </contour>
  </outline>
</glyph>
<glyph name="integral" format="2">
  <advance width="600" height="985"/>
  <unicode hex="222B"/>
  <outline>
    <contour>
      <point x="644.048" y="720" type="line"/>
      <point x="621.08" y="575" type="line"/>
      <point x="496.08" y="575" type="line" smooth="yes"/>
      <point x="445.08" y="575"/>
      <point x="411.645" y="547"/>
      <point x="404.042" y="499" type="curve" smooth="yes"/>
      <point x="330.544" y="35" type="line" smooth="yes"/>
      <point x="311.378" y="-86"/>
      <point x="199.072" y="-170"/>
      <point x="58.072" y="-170" type="curve" smooth="yes"/>
      <point x="-56.928" y="-170" type="line"/>
      <point x="-33.96" y="-25" type="line"/>
      <point x="91.04" y="-25" type="line" smooth="yes"/>
      <point x="142.04" y="-25"/>
      <point x="175.475" y="3"/>
      <point x="183.078" y="51" type="curve" smooth="yes"/>
      <point x="256.576" y="515" type="line" smooth="yes"/>
      <point x="275.742" y="636"/>
      <point x="388.048" y="720"/>
      <point x="529.048" y="720" type="curve" smooth="yes"/>
    </contour>
  </outline>
</glyph>
<glyph name="notequal" format="2">
  <advance width="600" height="985"/>
  <unicode hex="2260"/>
  <outline>
    <component base="equal"/>
    <contour>
      <point x="425.336" y="665" type="line"/>
      <point x="575.336" y="665" type="line"/>
      <point x="180" y="0" type="line"/>
      <point x="30" y="0" type="line"/>
    </contour>
  </outline>
</glyph>
<glyph name="greaterequal" format="2">
  <advance width="600" height="985"/>
  <unicode hex="2265"/>
  <outline>
    <component base="greater" xOffset="22" yOffset="125"/>
    <contour>
      <point x="38.8" y="140" type="line"/>
      <point x="498.8" y="140" type="line"/>
      <point x="476.624" y="0" type="line"/>
      <point x="16.624" y="0" type="line"/>
    </contour>
  </outline>
</glyph>
<glyph name="propersubset" format="2">
  <advance width="600"/>
  <unicode hex="2282"/>
  <outline>
    <contour>
      <point x="622.416" y="615" type="line" name="dh01"/>
      <point x="600.24" y="475" type="line" name="dh02"/>
      <point x="304.24" y="475" type="line" smooth="yes"/>
      <point x="240.152" y="475"/>
      <point x="194.465" y="438.542"/>
      <point x="185.192" y="380" type="curve" smooth="yes"/>
      <point x="178.856" y="340" type="line" smooth="yes" name="sv03"/>
      <point x="169.47" y="280.747"/>
      <point x="202.942" y="245"/>
      <point x="267.808" y="245" type="curve" smooth="yes"/>
      <point x="563.808" y="245" type="line" name="dh03"/>
      <point x="541.632" y="105" type="line" name="dh04"/>
      <point x="241.632" y="105" type="line" smooth="yes"/>
      <point x="91.632" y="105"/>
      <point x="6.39488" y="198.2"/>
      <point x="28.5392" y="338" type="curve" smooth="yes" name="sv01"/>
      <point x="35.5088" y="382" type="line" smooth="yes" name="dv01"/>
      <point x="57.6531" y="521.8"/>
      <point x="172.416" y="615"/>
      <point x="322.416" y="615" type="curve" smooth="yes"/>
    </contour>
  </outline>
</glyph>
<glyph name="propersuperset" format="2">
  <advance width="600"/>
  <unicode hex="2283"/>
  <outline>
    <contour>
      <point x="72.416" y="615" type="line" name="dh01"/>
      <point x="372.416" y="615" type="line" smooth="yes"/>
      <point x="522.416" y="615"/>
      <point x="607.653" y="521.8"/>
      <point x="585.509" y="382" type="curve" smooth="yes" name="dv01"/>
      <point x="578.539" y="338" type="line" smooth="yes" name="sv01"/>
      <point x="556.395" y="198.2"/>
      <point x="441.632" y="105"/>
      <point x="291.632" y="105" type="curve" smooth="yes"/>
      <point x="-8.368" y="105" type="line" name="dh04"/>
      <point x="13.808" y="245" type="line" name="dh03"/>
      <point x="309.808" y="245" type="line" smooth="yes"/>
      <point x="374.674" y="245"/>
      <point x="419.47" y="280.747"/>
      <point x="428.856" y="340" type="curve" smooth="yes" name="sv03"/>
      <point x="435.192" y="380" type="line" smooth="yes"/>
      <point x="444.465" y="438.542"/>
      <point x="410.328" y="475"/>
      <point x="346.24" y="475" type="curve" smooth="yes"/>
      <point x="50.24" y="475" type="line" name="dh02"/>
    </contour>
  </outline>
</glyph>
<glyph name="SF010000" format="2">
  <advance width="600"/>
  <unicode hex="250C"/>
  <outline>
    <contour>
      <point x="350" y="310" type="line"/>
      <point x="350" y="-310" type="line"/>
      <point x="250" y="-310" type="line"/>
      <point x="250" y="410" type="line"/>
      <point x="620" y="410" type="line"/>
      <point x="620" y="310" type="line"/>
    </contour>
  </outline>
</glyph>
<glyph name="uni251E" format="2">
  <advance width="600"/>
  <unicode hex="251E"/>
  <outline>
    <contour>
      <point x="200" y="1010" type="line"/>
      <point x="400" y="1010" type="line"/>
      <point x="400" y="410" type="line"/>
      <point x="620" y="410" type="line"/>
      <point x="620" y="310" type="line"/>
      <point x="350" y="310" type="line"/>
      <point x="350" y="-311" type="line"/>
      <point x="250" y="-311" type="line"/>
      <point x="250" y="310" type="line"/>
      <point x="200" y="310" type="line"/>
    </contour>
  </outline>
</glyph>
<glyph name="uni254D" format="2">
  <advance width="600"/>
  <unicode hex="254D"/>
  <outline>
    <contour>
      <point x="375" y="460" type="line"/>
      <point x="525" y="460" type="line"/>
      <point x="525" y="260" type="line"/>
      <point x="375" y="260" type="line"/>
    </contour>
    <contour>
      <point x="75" y="460" type="line"/>
      <point x="225" y="460" type="line"/>
      <point x="225" y="260" type="line"/>
      <point x="75" y="260" type="line"/>
    </contour>
  </outline>
</glyph>
<glyph name="SF240000" format="2">
  <advance width="600"/>
  <unicode hex="2551"/>
  <outline>
    <contour>
      <point x="150" y="1010" type="line"/>
      <point x="250" y="1010" type="line"/>
      <point x="250" y="-310" type="line"/>
      <point x="150" y="-310" type="line"/>
    </contour>
    <contour>
      <point x="350" y="1010" type="line"/>
      <point x="450" y="1010" type="line"/>
      <point x="450" y="-310" type="line"/>
      <point x="350" y="-310" type="line"/>
    </contour>
  </outline>
</glyph>
<glyph name="uni2573" format="2">
  <advance width="600"/>
  <unicode hex="2573"/>
  <outline>
    <contour>
      <point x="300" y="255" type="line"/>
      <point x="60" y="-170" type="line"/>
      <point x="-20" y="-170" type="line"/>
      <point x="-20" y="-130" type="line"/>
      <point x="249" y="350" type="line"/>
      <point x="-20" y="830" type="line"/>
      <point x="-20" y="870" type="line"/>
      <point x="60" y="870" type="line"/>
      <point x="300" y="445" type="line"/>
      <point x="540" y="870" type="line"/>
      <point x="620" y="870" type="line"/>
      <point x="620" y="830" type="line"/>
      <point x="351" y="350" type="line"/>
      <point x="620" y="-130" type="line"/>
      <point x="620" y="-170" type="line"/>
      <point x="540" y="-170" type="line"/>
    </contour>
  </outline>
</glyph>
<glyph name="uni258E" format="2">
  <advance width="600"/>
  <unicode hex="258E"/>
  <outline>
    <contour>
      <point x="-20" y="1010" type="line"/>
      <point x="150" y="1010" type="line"/>
      <point x="150" y="-310" type="line"/>
      <point x="-20" y="-310" type="line"/>
    </contour>
  </outline>
</glyph>
<glyph name="uni258F" format="2">
  <advance width="600"/>
  <unicode hex="258F"/>
  <outline>
    <contour>
      <point x="-20" y="1010" type="line"/>
      <point x="75" y="1010" type="line"/>
      <point x="75" y="-310" type="line"/>
      <point x="-20" y="-310" type="line"/>
    </contour>
  </outline>
</glyph>
<glyph name="rtblock" format="2">
  <advance width="600"/>
  <unicode hex="2590"/>
  <outline>
    <contour>
      <point x="300" y="1010" type="line"/>
      <point x="620" y="1010" type="line"/>
      <point x="620" y="-310" type="line"/>
      <point x="300" y="-310" type="line"/>
    </contour>
  </outline>
</glyph>
<glyph name="uni259F" format="2">
  <advance width="600"/>
  <unicode hex="259F"/>
  <outline>
    <contour>
      <point x="620" y="1010" type="line"/>
      <point x="620" y="-310" type="line"/>
      <point x="-20" y="-310" type="line"/>
      <point x="-20" y="350" type="line"/>
      <point x="300" y="350" type="line"/>
      <point x="300" y="1010" type="line"/>
    </contour>
  </outline>
</glyph>
<glyph name="lozenge" format="2">
  <advance width="600" height="985"/>
  <unicode hex="25CA"/>
  <outline>
    <contour>
      <point x="37.52" y="300" type="line"/>
      <point x="152" y="0" type="line"/>
      <point x="354" y="0" type="line"/>
      <point x="557.995" y="303" type="line"/>
      <point x="576.053" y="417" type="line"/>
      <point x="466.048" y="720" type="line"/>
      <point x="264.048" y="720" type="line"/>
      <point x="56.0528" y="417" type="line"/>
    </contour>
    <contour>
      <point x="404.995" y="303" type="line"/>
      <point x="319.67" y="181" type="line" smooth="yes"/>
      <point x="291.334" y="141"/>
      <point x="264.256" y="90"/>
      <point x="264.256" y="90" type="curve"/>
      <point x="258.256" y="90" type="line"/>
      <point x="258.256" y="90"/>
      <point x="244.81" y="144"/>
      <point x="230.67" y="181" type="curve" smooth="yes"/>
      <point x="184.995" y="303" type="line"/>
      <point x="203.053" y="417" type="line"/>
      <point x="291.378" y="539" type="line" smooth="yes"/>
      <point x="318.238" y="576"/>
      <point x="347.792" y="630"/>
      <point x="347.792" y="630" type="curve"/>
      <point x="353.792" y="630" type="line"/>
      <point x="353.792" y="630"/>
      <point x="366.714" y="579"/>
      <point x="380.378" y="539" type="curve" smooth="yes"/>
      <point x="423.053" y="417" type="line"/>
    </contour>
  </outline>
</glyph>
<glyph name="uniE0B1" format="2">
  <advance width="600"/>
  <unicode hex="E0B1"/>
  <outline>
    <contour>
      <point x="0" y="970" type="line"/>
      <point x="610" y="350" type="line"/>
      <point x="0" y="-270" type="line"/>
      <point x="-118" y="-270" type="line"/>
      <point x="492" y="348" type="line"/>
      <point x="-112" y="970" type="line"/>
    </contour>
  </outline>
</glyph>
<glyph name="uniE0B3" format="2">
  <advance width="600"/>
  <unicode hex="E0B3"/>
  <outline>
    <contour>
      <point x="600" y="-270" type="line"/>
      <point x="-10" y="350" type="line"/>
      <point x="600" y="970" type="line"/>
      <point x="715" y="970" type="line"/>
      <point x="110" y="354" type="line"/>
      <point x="713" y="-270" type="line"/>
    </contour>
  </outline>
</glyph>
<glyph name="acute.case" format="2">
  <advance width="600" height="985"/>
  <outline>
    <contour>
      <point x="308.208" y="941" type="line"/>
      <point x="185.208" y="795" type="line"/>
      <point x="315.208" y="795" type="line"/>
      <point x="458.208" y="941" type="line"/>
    </contour>
  </outline>
</glyph>
<glyph name="ampersand_ampersand.liga" format="2">
  <advance width="600" height="985"/>
  <outline>
    <contour>
      <point x="107.294" y="551.098" type="curve" smooth="yes"/>
      <point x="124.227" y="658"/>
      <point x="215.632" y="730"/>
      <point x="335.632" y="730" type="curve" smooth="yes"/>
      <point x="458.632" y="730"/>
      <point x="528.594" y="654"/>
      <point x="510.536" y="540" type="curve"/>
      <point x="375.536" y="540" type="line"/>
      <point x="382.189" y="582"/>
      <point x="358.624" y="610"/>
      <point x="316.624" y="610" type="curve" smooth="yes"/>
      <point x="274.624" y="610"/>
      <point x="242.189" y="582"/>
      <point x="235.536" y="540" type="curve" smooth="yes"/>
      <point x="231.101" y="512"/>
      <point x="238.824" y="485"/>
      <point x="265.062" y="436" type="curve" smooth="yes"/>
      <point x="500" y="0" type="line"/>
      <point x="357" y="0" type="line"/>
      <point x="144.301" y="387" type="line" smooth="yes"/>
      <point x="110.28" y="450"/>
      <point x="99.0416" y="499"/>
    </contour>
    <contour>
      <point x="250.28" y="440" type="line"/>
      <point x="235.232" y="345" type="line"/>
      <point x="221.232" y="345" type="line" smooth="yes"/>
      <point x="175.232" y="345"/>
      <point x="145.48" y="315"/>
      <point x="136.768" y="260" type="curve" smooth="yes"/>
      <point x="126.472" y="195" type="line" smooth="yes"/>
      <point x="117.76" y="140"/>
      <point x="143.008" y="110"/>
      <point x="188.008" y="110" type="curve" smooth="yes"/>
      <point x="235.008" y="110"/>
      <point x="270.602" y="139"/>
      <point x="293.146" y="174" type="curve" smooth="yes"/>
      <point x="412.608" y="360" type="line"/>
      <point x="552.608" y="360" type="line"/>
      <point x="392.8" y="115" type="line" smooth="yes"/>
      <point x="338.494" y="31"/>
      <point x="261" y="-10"/>
      <point x="160" y="-10" type="curve" smooth="yes"/>
      <point x="28" y="-10"/>
      <point x="-33.9616" y="66"/>
      <point x="-13.528" y="195" type="curve" smooth="yes"/>
      <point x="-3.232" y="260" type="line" smooth="yes"/>
      <point x="14.5088" y="372"/>
      <point x="89.28" y="440"/>
      <point x="195.28" y="440" type="curve" smooth="yes"/>
    </contour>
    <contour>
      <point x="-289.72" y="440" type="line"/>
      <point x="-304.768" y="345" type="line"/>
      <point x="-318.768" y="345" type="line" smooth="yes"/>
      <point x="-364.768" y="345"/>
      <point x="-394.52" y="315"/>
      <point x="-403.232" y="260" type="curve" smooth="yes"/>
      <point x="-413.528" y="195" type="line" smooth="yes"/>
      <point x="-422.24" y="140"/>
      <point x="-396.992" y="110"/>
      <point x="-351.992" y="110" type="curve" smooth="yes"/>
      <point x="-310.992" y="110"/>
      <point x="-272.19" y="134"/>
      <point x="-246.854" y="174" type="curve" smooth="yes"/>
      <point x="-237.478" y="189" type="line"/>
      <point x="-147.2" y="115" type="line"/>
      <point x="-201.506" y="31"/>
      <point x="-279" y="-10"/>
      <point x="-380" y="-10" type="curve" smooth="yes"/>
      <point x="-512" y="-10"/>
      <point x="-573.962" y="66"/>
      <point x="-553.528" y="195" type="curve" smooth="yes"/>
      <point x="-543.232" y="260" type="line" smooth="yes"/>
      <point x="-525.491" y="372"/>
      <point x="-450.72" y="440"/>
      <point x="-344.72" y="440" type="curve" smooth="yes"/>
    </contour>
    <contour>
      <point x="-432.706" y="551.098" type="curve" smooth="yes"/>
      <point x="-415.773" y="658"/>
      <point x="-324.368" y="730"/>
      <point x="-204.368" y="730" type="curve" smooth="yes"/>
      <point x="-81.368" y="730"/>
      <point x="-11.4064" y="654"/>
      <point x="-29.464" y="540" type="curve"/>
      <point x="-164.464" y="540" type="line"/>
      <point x="-157.811" y="582"/>
      <point x="-181.376" y="610"/>
      <point x="-223.376" y="610" type="curve" smooth="yes"/>
      <point x="-265.376" y="610"/>
      <point x="-297.811" y="582"/>
      <point x="-304.464" y="540" type="curve" smooth="yes"/>
      <point x="-308.899" y="512"/>
      <point x="-301.176" y="485"/>
      <point x="-274.938" y="436" type="curve" smooth="yes"/>
      <point x="-40" y="0" type="line"/>
      <point x="-183" y="0" type="line"/>
      <point x="-395.699" y="387" type="line" smooth="yes"/>
      <point x="-429.72" y="450"/>
      <point x="-440.958" y="499"/>
    </contour>
  </outline>
</glyph>
<glyph name="ampersand_equal.liga" format="2">
  <advance width="600" height="985"/>
  <outline>
    <contour>
      <point x="38.56" y="275" type="line"/>
      <point x="513.56" y="275" type="line"/>
      <point x="491.384" y="135" type="line"/>
      <point x="16.384" y="135" type="line"/>
    </contour>
    <contour>
      <point x="-281.304" y="440" type="line"/>
      <point x="-296.352" y="345" type="line"/>
      <point x="-310.352" y="345" type="line" smooth="yes"/>
      <point x="-356.352" y="345"/>
      <point x="-386.104" y="315"/>
      <point x="-394.816" y="260" type="curve" smooth="yes"/>
      <point x="-405.112" y="195" type="line" smooth="yes"/>
      <point x="-413.824" y="140"/>
      <point x="-390.576" y="110"/>
      <point x="-338.576" y="110" type="curve" smooth="yes"/>
      <point x="-297.576" y="110"/>
      <point x="-266.458" y="136"/>
      <point x="-238.438" y="174" type="curve" smooth="yes"/>
      <point x="21.16" y="525" type="line"/>
      <point x="553.16" y="525" type="line"/>
      <point x="530.984" y="385" type="line"/>
      <point x="60.984" y="385" type="line"/>
      <point x="-125.091" y="132" type="line" smooth="yes"/>
      <point x="-191.189" y="43"/>
      <point x="-282.584" y="-10"/>
      <point x="-372.584" y="-10" type="curve" smooth="yes"/>
      <point x="-498.584" y="-10"/>
      <point x="-565.07" y="69"/>
      <point x="-545.112" y="195" type="curve" smooth="yes"/>
      <point x="-534.816" y="260" type="line" smooth="yes"/>
      <point x="-517.075" y="372"/>
      <point x="-442.304" y="440"/>
      <point x="-336.304" y="440" type="curve" smooth="yes"/>
    </contour>
    <contour>
      <point x="-422.706" y="551.098" type="curve" smooth="yes"/>
      <point x="-405.773" y="658"/>
      <point x="-314.368" y="730"/>
      <point x="-194.368" y="730" type="curve" smooth="yes"/>
      <point x="-71.368" y="730"/>
      <point x="-1.4064" y="654"/>
      <point x="-19.464" y="540" type="curve"/>
      <point x="-154.464" y="540" type="line"/>
      <point x="-147.811" y="582"/>
      <point x="-171.376" y="610"/>
      <point x="-213.376" y="610" type="curve" smooth="yes"/>
      <point x="-255.376" y="610"/>
      <point x="-287.811" y="582"/>
      <point x="-294.464" y="540" type="curve" smooth="yes"/>
      <point x="-299.216" y="510"/>
      <point x="-288.81" y="481"/>
      <point x="-264.938" y="436" type="curve" smooth="yes"/>
      <point x="-30" y="0" type="line"/>
      <point x="-173" y="0" type="line"/>
      <point x="-385.699" y="387" type="line" smooth="yes"/>
      <point x="-419.72" y="450"/>
      <point x="-430.958" y="499"/>
    </contour>
  </outline>
</glyph>
<glyph name="asciitilde_asciitilde.liga" format="2">
  <advance width="600" height="985"/>
  <outline>
    <contour>
      <point x="-435.816" y="260" type="line"/>
      <point x="-325.816" y="260" type="line"/>
      <point x="-320.747" y="292" type="line" smooth="yes"/>
      <point x="-317.104" y="315"/>
      <point x="-298.728" y="330"/>
      <point x="-274.728" y="330" type="curve" smooth="yes"/>
      <point x="-219.728" y="330"/>
      <point x="-225.568" y="230"/>
      <point x="-105.568" y="230" type="curve" smooth="yes"/>
      <point x="14.432" y="230"/>
      <point x="50.272" y="330"/>
      <point x="105.272" y="330" type="curve" smooth="yes"/>
      <point x="160.272" y="330"/>
      <point x="174.432" y="230"/>
      <point x="284.432" y="230" type="curve" smooth="yes"/>
      <point x="368.432" y="230"/>
      <point x="433.144" y="285"/>
      <point x="445.024" y="360" type="curve" smooth="yes"/>
      <point x="452.152" y="405" type="line"/>
      <point x="342.152" y="405" type="line"/>
      <point x="337.083" y="373" type="line" smooth="yes"/>
      <point x="333.44" y="350"/>
      <point x="315.064" y="335"/>
      <point x="291.064" y="335" type="curve" smooth="yes"/>
      <point x="236.064" y="335"/>
      <point x="241.904" y="435"/>
      <point x="121.904" y="435" type="curve" smooth="yes"/>
      <point x="1.904" y="435"/>
      <point x="-33.936" y="335"/>
      <point x="-88.936" y="335" type="curve" smooth="yes"/>
      <point x="-143.936" y="335"/>
      <point x="-158.096" y="435"/>
      <point x="-268.096" y="435" type="curve" smooth="yes"/>
      <point x="-352.096" y="435"/>
      <point x="-416.808" y="380"/>
      <point x="-428.688" y="305" type="curve" smooth="yes"/>
    </contour>
  </outline>
</glyph>
<glyph name="asciitilde_asciitilde_greater.liga" format="2">
  <advance width="600" height="985"/>
  <outline>
    <contour>
      <point x="336" y="330" type="line" smooth="yes"/>
      <point x="281" y="330"/>
      <point x="255" y="230"/>
      <point x="135" y="230" type="curve" smooth="yes"/>
      <point x="15" y="230"/>
      <point x="21" y="330"/>
      <point x="-34" y="330" type="curve" smooth="yes"/>
      <point x="-89" y="330"/>
      <point x="-125" y="230"/>
      <point x="-245" y="230" type="curve" smooth="yes"/>
      <point x="-365" y="230"/>
      <point x="-369" y="330"/>
      <point x="-424" y="330" type="curve" smooth="yes"/>
      <point x="-479" y="330"/>
      <point x="-515" y="230"/>
      <point x="-635" y="230" type="curve" smooth="yes"/>
      <point x="-755" y="230"/>
      <point x="-759" y="330"/>
      <point x="-814" y="330" type="curve" smooth="yes"/>
      <point x="-869" y="330"/>
      <point x="-905" y="230"/>
      <point x="-1015" y="230" type="curve" smooth="yes"/>
      <point x="-1099" y="230"/>
      <point x="-1147" y="280"/>
      <point x="-1135" y="355" type="curve" smooth="yes"/>
      <point x="-1128" y="400" type="line"/>
      <point x="-1018" y="400" type="line"/>
      <point x="-1023" y="368" type="line" smooth="yes"/>
      <point x="-1026" y="345"/>
      <point x="-1016" y="330"/>
      <point x="-989" y="330" type="curve" smooth="yes"/>
      <point x="-934" y="330"/>
      <point x="-918" y="430"/>
      <point x="-798" y="430" type="curve" smooth="yes"/>
      <point x="-678" y="430"/>
      <point x="-674" y="330"/>
      <point x="-619" y="330" type="curve" smooth="yes"/>
      <point x="-564" y="330"/>
      <point x="-518" y="430"/>
      <point x="-408" y="430" type="curve" smooth="yes"/>
      <point x="-288" y="430"/>
      <point x="-284" y="330"/>
      <point x="-229" y="330" type="curve" smooth="yes"/>
      <point x="-174" y="330"/>
      <point x="-128" y="430"/>
      <point x="-18" y="430" type="curve" smooth="yes"/>
      <point x="102" y="430"/>
      <point x="96" y="330"/>
      <point x="151" y="330" type="curve" smooth="yes"/>
      <point x="206" y="330"/>
      <point x="242" y="430"/>
      <point x="352" y="430" type="curve" smooth="yes"/>
      <point x="408" y="430" type="line"/>
      <point x="391" y="330" type="line"/>
    </contour>
    <contour>
      <point x="364.08" y="625" type="line"/>
      <point x="534.352" y="330" type="line"/>
      <point x="268.624" y="35" type="line"/>
      <point x="93.624" y="35" type="line"/>
      <point x="281.888" y="245" type="line" smooth="yes"/>
      <point x="326.808" y="295"/>
      <point x="376.035" y="328"/>
      <point x="376.035" y="328" type="curve"/>
      <point x="376.51" y="331" type="line"/>
      <point x="376.51" y="331"/>
      <point x="348.579" y="363"/>
      <point x="319.658" y="414" type="curve" smooth="yes"/>
      <point x="197.08" y="625" type="line"/>
    </contour>
  </outline>
</glyph>
<glyph name="asciitilde_equal.liga" format="2">
  <advance width="600" height="985"/>
  <outline>
    <contour>
      <point x="179.464" y="350" type="curve" smooth="yes"/>
      <point x="29.464" y="350"/>
      <point x="-65.488" y="445"/>
      <point x="-160.488" y="445" type="curve" smooth="yes"/>
      <point x="-211.488" y="445"/>
      <point x="-249.606" y="419"/>
      <point x="-255.784" y="380" type="curve" smooth="yes"/>
      <point x="-259.744" y="355" type="line"/>
      <point x="-369.744" y="355" type="line"/>
      <point x="-364.2" y="390" type="line" smooth="yes"/>
      <point x="-348.994" y="486"/>
      <point x="-262.856" y="550"/>
      <point x="-148.856" y="550" type="curve" smooth="yes"/>
      <point x="1.144" y="550"/>
      <point x="96.096" y="455"/>
      <point x="191.096" y="455" type="curve" smooth="yes"/>
      <point x="242.096" y="455"/>
      <point x="280.214" y="481"/>
      <point x="286.392" y="520" type="curve" smooth="yes"/>
      <point x="290.352" y="545" type="line"/>
      <point x="400.352" y="545" type="line"/>
      <point x="394.808" y="510" type="line" smooth="yes"/>
      <point x="379.602" y="414"/>
      <point x="293.464" y="350"/>
    </contour>
    <contour>
      <point x="-384.792" y="260" type="line"/>
      <point x="355.208" y="260" type="line"/>
      <point x="333.032" y="120" type="line"/>
      <point x="-406.968" y="120" type="line"/>
    </contour>
  </outline>
  <guideline angle="90" x="-1126" y="0"/>
</glyph>
<glyph name="asciitilde_greater.liga" format="2">
  <advance width="600" height="985"/>
  <outline>
    <contour>
      <point x="364.08" y="625" type="line"/>
      <point x="534.352" y="330" type="line"/>
      <point x="268.624" y="35" type="line"/>
      <point x="93.624" y="35" type="line"/>
      <point x="281.888" y="245" type="line" smooth="yes"/>
      <point x="326.808" y="295"/>
      <point x="376.035" y="328"/>
      <point x="376.035" y="328" type="curve"/>
      <point x="376.51" y="331" type="line"/>
      <point x="376.51" y="331"/>
      <point x="348.579" y="363"/>
      <point x="319.658" y="414" type="curve" smooth="yes"/>
      <point x="197.08" y="625" type="line"/>
    </contour>
    <contour>
      <point x="-525.64" y="400" type="line"/>
      <point x="-415.64" y="400" type="line"/>
      <point x="-420.709" y="368" type="line" smooth="yes"/>
      <point x="-424.352" y="345"/>
      <point x="-410.728" y="330"/>
      <point x="-386.728" y="330" type="curve" smooth="yes"/>
      <point x="-331.728" y="330"/>
      <point x="-320.888" y="430"/>
      <point x="-200.888" y="430" type="curve" smooth="yes"/>
      <point x="-80.888" y="430"/>
      <point x="-81.728" y="330"/>
      <point x="-26.728" y="330" type="curve" smooth="yes"/>
      <point x="28.272" y="330"/>
      <point x="69.112" y="430"/>
      <point x="179.112" y="430" type="curve" smooth="yes"/>
      <point x="299.112" y="430"/>
      <point x="298.272" y="330"/>
      <point x="353.272" y="330" type="curve" smooth="yes"/>
      <point x="418.272" y="330" type="line"/>
      <point x="402.432" y="230" type="line"/>
      <point x="337.432" y="230" type="line" smooth="yes"/>
      <point x="217.432" y="230"/>
      <point x="218.272" y="330"/>
      <point x="163.272" y="330" type="curve" smooth="yes"/>
      <point x="108.272" y="330"/>
      <point x="77.432" y="230"/>
      <point x="-42.568" y="230" type="curve" smooth="yes"/>
      <point x="-162.568" y="230"/>
      <point x="-161.728" y="330"/>
      <point x="-216.728" y="330" type="curve" smooth="yes"/>
      <point x="-271.728" y="330"/>
      <point x="-302.568" y="230"/>
      <point x="-412.568" y="230" type="curve" smooth="yes"/>
      <point x="-496.568" y="230"/>
      <point x="-544.648" y="280"/>
      <point x="-532.768" y="355" type="curve" smooth="yes"/>
    </contour>
  </outline>
  <guideline angle="90" x="-600" y="0"/>
</glyph>
<glyph name="asciitilde_hyphen.liga" format="2">
  <advance width="600" height="985"/>
  <outline>
    <contour>
      <point x="-79.712" y="210" type="curve" smooth="yes"/>
      <point x="-219.712" y="210"/>
      <point x="-248.328" y="345"/>
      <point x="-328.328" y="345" type="curve" smooth="yes"/>
      <point x="-361.328" y="345"/>
      <point x="-386.813" y="323"/>
      <point x="-392.04" y="290" type="curve" smooth="yes"/>
      <point x="-400.752" y="235" type="line"/>
      <point x="-510.752" y="235" type="line"/>
      <point x="-499.664" y="305" type="line" smooth="yes"/>
      <point x="-485.883" y="392"/>
      <point x="-412.696" y="450"/>
      <point x="-316.696" y="450" type="curve" smooth="yes"/>
      <point x="-176.696" y="450"/>
      <point x="-148.08" y="315"/>
      <point x="-68.08" y="315" type="curve" smooth="yes"/>
      <point x="-35.08" y="315"/>
      <point x="-9.2784" y="339"/>
      <point x="-3.576" y="375" type="curve"/>
      <point x="104.048" y="360" type="line"/>
      <point x="89.792" y="270"/>
      <point x="16.288" y="210"/>
    </contour>
    <contour>
      <point x="0.383999" y="400" type="line"/>
      <point x="510.384" y="400" type="line"/>
      <point x="488.208" y="260" type="line"/>
      <point x="-21.792" y="260" type="line"/>
    </contour>
  </outline>
  <guideline angle="90" x="-1240" y="0"/>
</glyph>
<glyph name="asterisk_greater.liga" format="2">
  <advance width="600" height="985"/>
  <outline>
    <component base="greater" xOffset="15"/>
    <contour>
      <point x="-568.283" y="377" type="line"/>
      <point x="-504.958" y="499" type="line"/>
      <point x="-427.552" y="470" type="line" smooth="yes"/>
      <point x="-378.562" y="451"/>
      <point x="-322.64" y="400"/>
      <point x="-293.234" y="371" type="curve"/>
      <point x="-287.6" y="375" type="line"/>
      <point x="-296.106" y="416"/>
      <point x="-311.275" y="497"/>
      <point x="-302.088" y="555" type="curve" smooth="yes"/>
      <point x="-288.624" y="640" type="line"/>
      <point x="-158.624" y="640" type="line"/>
      <point x="-172.088" y="555" type="line" smooth="yes"/>
      <point x="-181.275" y="497"/>
      <point x="-222.106" y="416"/>
      <point x="-243.6" y="375" type="curve"/>
      <point x="-240.075" y="372" type="line"/>
      <point x="-201.482" y="401"/>
      <point x="-129.562" y="451"/>
      <point x="-74.552" y="470" type="curve" smooth="yes"/>
      <point x="12.0416" y="499" type="line"/>
      <point x="37.7168" y="377" type="line"/>
      <point x="-48.8768" y="348" type="line" smooth="yes"/>
      <point x="-103.886" y="329"/>
      <point x="-184.362" y="326"/>
      <point x="-229.362" y="326" type="curve"/>
      <point x="-231.995" y="322" type="line"/>
      <point x="-199.955" y="297"/>
      <point x="-140.717" y="248"/>
      <point x="-115.003" y="202" type="curve"/>
      <point x="-76.0416" y="126" type="line"/>
      <point x="-193.763" y="52" type="line"/>
      <point x="-233.883" y="127" type="line" smooth="yes"/>
      <point x="-259.438" y="174"/>
      <point x="-270.291" y="257"/>
      <point x="-274.638" y="299" type="curve"/>
      <point x="-280.638" y="299" type="line"/>
      <point x="-298.291" y="257"/>
      <point x="-335.28" y="175"/>
      <point x="-375.883" y="127" type="curve" smooth="yes"/>
      <point x="-439.763" y="52" type="line"/>
      <point x="-534.042" y="126" type="line"/>
      <point x="-471.162" y="201" type="line" smooth="yes"/>
      <point x="-430.717" y="248"/>
      <point x="-356.797" y="298"/>
      <point x="-315.837" y="323" type="curve"/>
      <point x="-317.362" y="326" type="line"/>
      <point x="-362.362" y="326"/>
      <point x="-442.886" y="329"/>
      <point x="-491.877" y="348" type="curve" smooth="yes"/>
    </contour>
  </outline>
</glyph>
<glyph name="bar_bar_hyphen.liga" format="2">
  <advance width="600" height="985"/>
  <outline>
    <contour>
      <point x="-391.2" y="750" type="line"/>
      <point x="-241.2" y="750" type="line"/>
      <point x="-296.64" y="400" type="line"/>
      <point x="383.36" y="400" type="line"/>
      <point x="361.184" y="260" type="line"/>
      <point x="-318.816" y="260" type="line"/>
      <point x="-373.464" y="-85" type="line"/>
      <point x="-523.464" y="-85" type="line"/>
    </contour>
    <contour>
      <point x="-953.464" y="-85" type="line"/>
      <point x="-821.2" y="750" type="line"/>
      <point x="-671.2" y="750" type="line"/>
      <point x="-803.464" y="-85" type="line"/>
    </contour>
  </outline>
</glyph>
<glyph name="bar_braceright.liga" format="2">
  <advance width="600" height="985"/>
  <outline>
    <contour>
      <point x="24.888" y="820" type="line"/>
      <point x="154.888" y="820" type="line" smooth="yes"/>
      <point x="263.888" y="820"/>
      <point x="323.325" y="747"/>
      <point x="305.584" y="635" type="curve" smooth="yes"/>
      <point x="282.616" y="490" type="line" smooth="yes"/>
      <point x="275.963" y="448"/>
      <point x="299.528" y="420"/>
      <point x="341.528" y="420" type="curve" smooth="yes"/>
      <point x="456.528" y="420" type="line"/>
      <point x="434.352" y="280" type="line"/>
      <point x="319.352" y="280" type="line" smooth="yes"/>
      <point x="277.352" y="280"/>
      <point x="244.917" y="252"/>
      <point x="238.264" y="210" type="curve" smooth="yes"/>
      <point x="214.346" y="59" type="line" smooth="yes"/>
      <point x="196.922" y="-51"/>
      <point x="115.834" y="-121"/>
      <point x="5.8336" y="-121" type="curve" smooth="yes"/>
      <point x="-124.166" y="-121" type="line"/>
      <point x="-101.99" y="19" type="line"/>
      <point x="-1.9904" y="19" type="line" smooth="yes"/>
      <point x="36.0096" y="19"/>
      <point x="60.7024" y="36"/>
      <point x="67.5136" y="79" type="curve" smooth="yes"/>
      <point x="91.432" y="230" type="line" smooth="yes"/>
      <point x="103.312" y="305"/>
      <point x="167.331" y="343"/>
      <point x="244.806" y="346" type="curve"/>
      <point x="245.598" y="351" type="line"/>
      <point x="168.074" y="354"/>
      <point x="117.568" y="395"/>
      <point x="129.448" y="470" type="curve" smooth="yes"/>
      <point x="153.208" y="620" type="line" smooth="yes"/>
      <point x="158.91" y="656"/>
      <point x="138.712" y="680"/>
      <point x="102.712" y="680" type="curve" smooth="yes"/>
      <point x="2.712" y="680" type="line"/>
    </contour>
    <contour>
      <point x="-300.112" y="820" type="line"/>
      <point x="-150.112" y="820" type="line"/>
      <point x="-299.008" y="-120" type="line"/>
      <point x="-449.008" y="-120" type="line"/>
    </contour>
  </outline>
  <guideline angle="90" x="-600" y="0"/>
</glyph>
<glyph name="bar_equal_greater.liga" format="2">
  <advance width="600" height="985"/>
  <outline>
    <contour>
      <point x="-1025.36" y="275" type="line"/>
      <point x="332.64" y="275" type="line"/>
      <point x="311.256" y="140" type="line"/>
      <point x="-1046.74" y="140" type="line"/>
    </contour>
    <contour>
      <point x="-986.552" y="520" type="line"/>
      <point x="371.448" y="520" type="line"/>
      <point x="350.064" y="385" type="line"/>
      <point x="-1007.94" y="385" type="line"/>
    </contour>
    <contour>
      <point x="-1066" y="625" type="line"/>
      <point x="-916" y="625" type="line"/>
      <point x="-1009.46" y="35" type="line"/>
      <point x="-1159.46" y="35" type="line"/>
    </contour>
    <contour>
      <point x="364.08" y="625" type="line"/>
      <point x="534.352" y="330" type="line"/>
      <point x="268.624" y="35" type="line"/>
      <point x="93.624" y="35" type="line"/>
      <point x="281.888" y="245" type="line" smooth="yes"/>
      <point x="326.808" y="295"/>
      <point x="376.035" y="328"/>
      <point x="376.035" y="328" type="curve"/>
      <point x="376.51" y="331" type="line"/>
      <point x="376.51" y="331"/>
      <point x="348.579" y="363"/>
      <point x="319.658" y="414" type="curve" smooth="yes"/>
      <point x="197.08" y="625" type="line"/>
    </contour>
  </outline>
  <guideline angle="90" x="-1200" y="0"/>
</glyph>
<glyph name="bar_hyphen_greater.liga" format="2">
  <advance width="600" height="985"/>
  <outline>
    <contour>
      <point x="364.08" y="625" type="line"/>
      <point x="534.352" y="330" type="line"/>
      <point x="268.624" y="35" type="line"/>
      <point x="93.624" y="35" type="line"/>
      <point x="281.888" y="245" type="line" smooth="yes"/>
      <point x="326.808" y="295"/>
      <point x="376.035" y="328"/>
      <point x="376.035" y="328" type="curve"/>
      <point x="376.51" y="331" type="line"/>
      <point x="376.51" y="331"/>
      <point x="348.579" y="363"/>
      <point x="319.658" y="414" type="curve" smooth="yes"/>
      <point x="197.08" y="625" type="line"/>
    </contour>
    <contour>
      <point x="-1066" y="625" type="line"/>
      <point x="-916" y="625" type="line"/>
      <point x="-1009.46" y="35" type="line"/>
      <point x="-1159.46" y="35" type="line"/>
    </contour>
    <contour>
      <point x="-990" y="400" type="line"/>
      <point x="390" y="400" type="line"/>
      <point x="390" y="260" type="line"/>
      <point x="-990" y="260" type="line"/>
    </contour>
  </outline>
</glyph>
<glyph name="bracketleft_bar_bar_bracketright.liga" format="2">
  <advance width="600" height="985"/>
  <outline>
    <contour>
      <point x="-1486.11" y="820" type="line"/>
      <point x="-1181.11" y="820" type="line"/>
      <point x="-1203.29" y="680" type="line"/>
      <point x="-1358.29" y="680" type="line"/>
      <point x="-1462.83" y="20" type="line"/>
      <point x="-1307.83" y="20" type="line"/>
      <point x="-1330.01" y="-120" type="line"/>
      <point x="-1635.01" y="-120" type="line"/>
    </contour>
    <contour>
      <point x="-885.112" y="820" type="line"/>
      <point x="-735.112" y="820" type="line"/>
      <point x="-884.008" y="-120" type="line"/>
      <point x="-1034.01" y="-120" type="line"/>
    </contour>
    <contour>
      <point x="-305.112" y="820" type="line"/>
      <point x="-155.112" y="820" type="line"/>
      <point x="-304.008" y="-120" type="line"/>
      <point x="-454.008" y="-120" type="line"/>
    </contour>
    <contour>
      <point x="439.888" y="820" type="line"/>
      <point x="290.992" y="-120" type="line"/>
      <point x="-14.008" y="-120" type="line"/>
      <point x="8.168" y="20" type="line"/>
      <point x="163.168" y="20" type="line"/>
      <point x="267.712" y="680" type="line"/>
      <point x="112.712" y="680" type="line"/>
      <point x="134.888" y="820" type="line"/>
    </contour>
  </outline>
</glyph>
<glyph name="breve.case" format="2">
  <advance width="600" height="985"/>
  <outline>
    <contour>
      <point x="364.621" y="880" type="curve" smooth="yes"/>
      <point x="406.621" y="880"/>
      <point x="433.63" y="899"/>
      <point x="439.332" y="935" type="curve"/>
      <point x="554.332" y="935" type="line"/>
      <point x="540.552" y="848"/>
      <point x="459.366" y="790"/>
      <point x="351.366" y="790" type="curve" smooth="yes"/>
      <point x="243.366" y="790"/>
      <point x="180.552" y="848"/>
      <point x="194.332" y="935" type="curve"/>
      <point x="309.332" y="935" type="line"/>
      <point x="303.63" y="899"/>
      <point x="324.621" y="880"/>
    </contour>
  </outline>
</glyph>
<glyph name="equal_equal.liga" format="2">
  <advance width="600" height="985"/>
  <outline>
    <contour>
      <point x="-509.016" y="385" type="line"/>
      <point x="-486.84" y="525" type="line"/>
      <point x="553.16" y="525" type="line"/>
      <point x="530.984" y="385" type="line"/>
    </contour>
    <contour>
      <point x="-526.598" y="274" type="line"/>
      <point x="513.402" y="274" type="line"/>
      <point x="491.226" y="134" type="line"/>
      <point x="-547.774" y="134" type="line"/>
    </contour>
  </outline>
</glyph>
<glyph name="equal_equal_equal.liga" format="2">
  <advance width="600" height="985"/>
  <outline>
    <contour>
      <point x="-1138.95" y="196" type="line"/>
      <point x="501.046" y="196" type="line"/>
      <point x="485.206" y="96" type="line"/>
      <point x="-1154.79" y="96" type="line"/>
    </contour>
    <contour>
      <point x="-1080.66" y="564" type="line"/>
      <point x="559.338" y="564" type="line"/>
      <point x="543.498" y="464" type="line"/>
      <point x="-1096.5" y="464" type="line"/>
    </contour>
    <contour>
      <point x="-1109.17" y="384" type="line"/>
      <point x="530.826" y="384" type="line"/>
      <point x="514.986" y="284" type="line"/>
      <point x="-1125.01" y="284" type="line"/>
    </contour>
  </outline>
</glyph>
